Idiqlat-ExtraLight.ufo
<glyph name="numbersign" format="2">
  <advance width="744"/>
  <unicode hex="0023"/>
  <note>
numbersign
</note>
  <outline>
    <contour>
      <point x="365" y="0" type="line"/>
      <point x="447" y="0" type="line"/>
      <point x="619" y="824" type="line"/>
      <point x="538" y="824" type="line"/>
    </contour>
    <contour>
      <point x="46" y="235" type="line"/>
      <point x="671" y="235" type="line"/>
      <point x="671" y="312" type="line"/>
      <point x="46" y="312" type="line"/>
    </contour>
    <contour>
      <point x="123" y="0" type="line"/>
      <point x="205" y="0" type="line"/>
      <point x="377" y="824" type="line"/>
      <point x="297" y="824" type="line"/>
    </contour>
    <contour>
      <point x="71" y="510" type="line"/>
      <point x="696" y="510" type="line"/>
      <point x="696" y="587" type="line"/>
      <point x="71" y="587" type="line"/>
    </contour>
  </outline>
</glyph>
<glyph name="dollar" format="2">
  <advance width="691"/>
  <unicode hex="0024"/>
  <outline>
    <contour>
      <point x="320" y="-12" type="curve" smooth="yes"/>
      <point x="513" y="-12"/>
      <point x="645" y="87"/>
      <point x="645" y="227" type="curve" smooth="yes"/>
      <point x="645" y="487"/>
      <point x="226" y="446"/>
      <point x="226" y="643" type="curve" smooth="yes"/>
      <point x="226" y="718"/>
      <point x="292" y="764"/>
      <point x="378" y="764" type="curve" smooth="yes"/>
      <point x="422" y="764"/>
      <point x="455" y="756"/>
      <point x="487" y="737" type="curve"/>
      <point x="529" y="609" type="line"/>
      <point x="603" y="614" type="line"/>
      <point x="590" y="803" type="line"/>
      <point x="539" y="826"/>
      <point x="463" y="838"/>
      <point x="392" y="838" type="curve" smooth="yes"/>
      <point x="204" y="838"/>
      <point x="75" y="741"/>
      <point x="75" y="597" type="curve" smooth="yes"/>
      <point x="75" y="323"/>
      <point x="490" y="375"/>
      <point x="490" y="180" type="curve" smooth="yes"/>
      <point x="490" y="106"/>
      <point x="431" y="64"/>
      <point x="339" y="64" type="curve" smooth="yes"/>
      <point x="286" y="64"/>
      <point x="231" y="79"/>
      <point x="188" y="107" type="curve"/>
      <point x="145" y="243" type="line"/>
      <point x="72" y="238" type="line"/>
      <point x="79" y="43" type="line"/>
      <point x="138" y="9"/>
      <point x="239" y="-12"/>
    </contour>
    <contour>
      <point x="325" y="-162" type="line"/>
      <point x="401" y="-162" type="line"/>
      <point x="401" y="987" type="line"/>
      <point x="325" y="987" type="line"/>
    </contour>
  </outline>
</glyph>
<glyph name="percent" format="2">
  <advance width="1084"/>
  <unicode hex="0025"/>
  <outline>
    <contour>
      <point x="256" y="-17" type="line"/>
      <point x="902" y="780" type="line"/>
      <point x="827" y="843" type="line"/>
      <point x="183" y="44" type="line"/>
    </contour>
    <contour>
      <point x="277" y="401" type="curve" smooth="yes"/>
      <point x="401" y="401"/>
      <point x="504" y="494"/>
      <point x="504" y="618" type="curve" smooth="yes"/>
      <point x="504" y="746"/>
      <point x="407" y="835"/>
      <point x="277" y="835" type="curve" smooth="yes"/>
      <point x="154" y="835"/>
      <point x="50" y="739"/>
      <point x="50" y="618" type="curve" smooth="yes"/>
      <point x="50" y="490"/>
      <point x="145" y="401"/>
    </contour>
    <contour>
      <point x="278" y="499" type="curve" smooth="yes"/>
      <point x="213" y="499"/>
      <point x="166" y="548"/>
      <point x="166" y="620" type="curve" smooth="yes"/>
      <point x="166" y="690"/>
      <point x="213" y="738"/>
      <point x="278" y="738" type="curve" smooth="yes"/>
      <point x="342" y="738"/>
      <point x="394" y="692"/>
      <point x="394" y="620" type="curve" smooth="yes"/>
      <point x="394" y="546"/>
      <point x="342" y="499"/>
    </contour>
    <contour>
      <point x="807" y="-10" type="curve" smooth="yes"/>
      <point x="931" y="-10"/>
      <point x="1033" y="82"/>
      <point x="1033" y="205" type="curve" smooth="yes"/>
      <point x="1033" y="333"/>
      <point x="937" y="423"/>
      <point x="807" y="423" type="curve" smooth="yes"/>
      <point x="684" y="423"/>
      <point x="580" y="326"/>
      <point x="580" y="205" type="curve" smooth="yes"/>
      <point x="580" y="77"/>
      <point x="676" y="-10"/>
    </contour>
    <contour>
      <point x="807" y="88" type="curve" smooth="yes"/>
      <point x="744" y="88"/>
      <point x="695" y="135"/>
      <point x="695" y="207" type="curve" smooth="yes"/>
      <point x="695" y="278"/>
      <point x="744" y="326"/>
      <point x="807" y="326" type="curve" smooth="yes"/>
      <point x="872" y="326"/>
      <point x="923" y="279"/>
      <point x="923" y="207" type="curve" smooth="yes"/>
      <point x="923" y="133"/>
      <point x="872" y="88"/>
    </contour>
  </outline>
</glyph>
<glyph name="ampersand" format="2">
  <advance width="1040"/>
  <unicode hex="0026"/>
  <note>
ampersand
</note>
  <outline>
    <contour>
      <point x="357" y="-11" type="curve" smooth="yes"/>
      <point x="584" y="-11"/>
      <point x="742" y="123"/>
      <point x="877" y="394" type="curve"/>
      <point x="975" y="411" type="line"/>
      <point x="971" y="471" type="line"/>
      <point x="664" y="471" type="line"/>
      <point x="660" y="409" type="line"/>
      <point x="759" y="394" type="line"/>
      <point x="678" y="169"/>
      <point x="566" y="85"/>
      <point x="406" y="85" type="curve" smooth="yes"/>
      <point x="277" y="85"/>
      <point x="207" y="149"/>
      <point x="207" y="239" type="curve" smooth="yes"/>
      <point x="207" y="317"/>
      <point x="250" y="382"/>
      <point x="373" y="443" type="curve"/>
      <point x="587" y="543"/>
      <point x="670" y="636"/>
      <point x="670" y="752" type="curve" smooth="yes"/>
      <point x="670" y="867"/>
      <point x="587" y="938"/>
      <point x="459" y="938" type="curve" smooth="yes"/>
      <point x="310" y="938"/>
      <point x="203" y="828"/>
      <point x="203" y="682" type="curve" smooth="yes"/>
      <point x="203" y="564"/>
      <point x="256" y="466"/>
      <point x="389" y="285" type="curve" smooth="yes"/>
      <point x="537" y="85"/>
      <point x="659" y="-11"/>
      <point x="832" y="-11" type="curve" smooth="yes"/>
      <point x="927" y="-11"/>
      <point x="1007" y="25"/>
      <point x="1058" y="93" type="curve"/>
      <point x="1024" y="136" type="line"/>
      <point x="980" y="103"/>
      <point x="936" y="89"/>
      <point x="888" y="89" type="curve" smooth="yes"/>
      <point x="763" y="89"/>
      <point x="662" y="172"/>
      <point x="525" y="355" type="curve" smooth="yes"/>
      <point x="391" y="530"/>
      <point x="343" y="622"/>
      <point x="343" y="727" type="curve" smooth="yes"/>
      <point x="343" y="818"/>
      <point x="391" y="866"/>
      <point x="453" y="866" type="curve" smooth="yes"/>
      <point x="503" y="866"/>
      <point x="543" y="827"/>
      <point x="543" y="752" type="curve" smooth="yes"/>
      <point x="543" y="654"/>
      <point x="493" y="582"/>
      <point x="331" y="495" type="curve"/>
      <point x="129" y="421"/>
      <point x="47" y="317"/>
      <point x="47" y="210" type="curve" smooth="yes"/>
      <point x="47" y="90"/>
      <point x="147" y="-11"/>
    </contour>
  </outline>
</glyph>
<glyph name="parenleft" format="2">
  <advance width="416"/>
  <unicode hex="0028"/>
  <outline>
    <contour>
      <point x="312" y="2" type="curve" smooth="yes"/>
      <point x="331" y="2"/>
      <point x="341" y="11"/>
      <point x="341" y="30" type="curve" smooth="yes"/>
      <point x="341" y="34"/>
      <point x="339" y="39"/>
      <point x="336" y="45" type="curve" smooth="yes"/>
      <point x="283" y="146"/>
      <point x="248" y="228"/>
      <point x="229" y="293" type="curve" smooth="yes"/>
      <point x="208" y="368"/>
      <point x="197" y="442"/>
      <point x="197" y="517" type="curve" smooth="yes"/>
      <point x="197" y="591"/>
      <point x="208" y="665"/>
      <point x="229" y="740" type="curve" smooth="yes"/>
      <point x="248" y="805"/>
      <point x="283" y="888"/>
      <point x="336" y="989" type="curve" smooth="yes"/>
      <point x="339" y="995"/>
      <point x="341" y="1000"/>
      <point x="341" y="1004" type="curve" smooth="yes"/>
      <point x="341" y="1023"/>
      <point x="331" y="1032"/>
      <point x="312" y="1032" type="curve" smooth="yes"/>
      <point x="289" y="1032"/>
      <point x="254" y="981"/>
      <point x="207" y="880" type="curve" smooth="yes"/>
      <point x="167" y="793"/>
      <point x="142" y="727"/>
      <point x="131" y="683" type="curve" smooth="yes"/>
      <point x="118" y="624"/>
      <point x="111" y="569"/>
      <point x="111" y="517" type="curve" smooth="yes"/>
      <point x="111" y="400"/>
      <point x="145" y="276"/>
      <point x="212" y="144" type="curve" smooth="yes"/>
      <point x="260" y="49"/>
      <point x="293" y="2"/>
    </contour>
  </outline>
</glyph>
<glyph name="parenright" format="2">
  <advance width="506"/>
  <unicode hex="0029"/>
  <outline>
    <contour>
      <point x="180" y="-16" type="curve" smooth="yes"/>
      <point x="199" y="-16"/>
      <point x="232" y="31"/>
      <point x="280" y="126" type="curve" smooth="yes"/>
      <point x="347" y="258"/>
      <point x="381" y="382"/>
      <point x="381" y="499" type="curve" smooth="yes"/>
      <point x="381" y="551"/>
      <point x="374" y="606"/>
      <point x="361" y="665" type="curve" smooth="yes"/>
      <point x="350" y="709"/>
      <point x="325" y="775"/>
      <point x="285" y="862" type="curve" smooth="yes"/>
      <point x="238" y="963"/>
      <point x="203" y="1014"/>
      <point x="180" y="1014" type="curve" smooth="yes"/>
      <point x="161" y="1014"/>
      <point x="151" y="1005"/>
      <point x="151" y="986" type="curve" smooth="yes"/>
      <point x="151" y="982"/>
      <point x="153" y="977"/>
      <point x="156" y="971" type="curve" smooth="yes"/>
      <point x="209" y="870"/>
      <point x="244" y="787"/>
      <point x="263" y="722" type="curve" smooth="yes"/>
      <point x="284" y="647"/>
      <point x="295" y="573"/>
      <point x="295" y="499" type="curve" smooth="yes"/>
      <point x="295" y="424"/>
      <point x="284" y="350"/>
      <point x="263" y="275" type="curve" smooth="yes"/>
      <point x="244" y="210"/>
      <point x="209" y="128"/>
      <point x="156" y="27" type="curve" smooth="yes"/>
      <point x="153" y="21"/>
      <point x="151" y="16"/>
      <point x="151" y="12" type="curve" smooth="yes"/>
      <point x="151" y="-7"/>
      <point x="161" y="-16"/>
    </contour>
  </outline>
</glyph>
<glyph name="asterisk" format="2">
  <advance width="822"/>
  <unicode hex="002A"/>
  <outline>
    <contour>
      <point x="430" y="-2" type="curve" smooth="yes"/>
      <point x="449" y="-2"/>
      <point x="465" y="5"/>
      <point x="480" y="20" type="curve"/>
      <point x="493" y="39"/>
      <point x="499" y="56"/>
      <point x="499" y="71" type="curve"/>
      <point x="484" y="119" type="line"/>
      <point x="463" y="184" type="line"/>
      <point x="488" y="195" type="line"/>
      <point x="512" y="214" type="line"/>
      <point x="588" y="136" type="line"/>
      <point x="605" y="123"/>
      <point x="621" y="117"/>
      <point x="634" y="117" type="curve" smooth="yes"/>
      <point x="677" y="117"/>
      <point x="699" y="138"/>
      <point x="699" y="180" type="curve" smooth="yes"/>
      <point x="699" y="215"/>
      <point x="684" y="236"/>
      <point x="655" y="243" type="curve" smooth="yes"/>
      <point x="547" y="269" type="line"/>
      <point x="551" y="297" type="line"/>
      <point x="547" y="325" type="line"/>
      <point x="632" y="349" type="line" smooth="yes"/>
      <point x="675" y="362"/>
      <point x="697" y="385"/>
      <point x="697" y="418" type="curve" smooth="yes"/>
      <point x="697" y="450"/>
      <point x="665" y="488"/>
      <point x="632" y="487" type="curve" smooth="yes"/>
      <point x="619" y="486"/>
      <point x="600" y="474"/>
      <point x="577" y="451" type="curve" smooth="yes"/>
      <point x="510" y="386" type="line"/>
      <point x="499" y="395"/>
      <point x="483" y="402"/>
      <point x="463" y="409" type="curve"/>
      <point x="486" y="477" type="line" smooth="yes"/>
      <point x="495" y="504"/>
      <point x="499" y="520"/>
      <point x="499" y="527" type="curve" smooth="yes"/>
      <point x="499" y="538"/>
      <point x="498" y="546"/>
      <point x="497" y="551" type="curve" smooth="yes"/>
      <point x="488" y="581"/>
      <point x="468" y="596"/>
      <point x="436" y="596" type="curve"/>
      <point x="397" y="589" type="line"/>
      <point x="377" y="576"/>
      <point x="367" y="556"/>
      <point x="367" y="527" type="curve" smooth="yes"/>
      <point x="367" y="515"/>
      <point x="371" y="495"/>
      <point x="380" y="466" type="curve" smooth="yes"/>
      <point x="397" y="410" type="line"/>
      <point x="374" y="401" type="line"/>
      <point x="350" y="384" type="line"/>
      <point x="328" y="405"/>
      <point x="311" y="423"/>
      <point x="298" y="438" type="curve" smooth="yes"/>
      <point x="273" y="465"/>
      <point x="249" y="479"/>
      <point x="226" y="479" type="curve" smooth="yes"/>
      <point x="185" y="479"/>
      <point x="164" y="459"/>
      <point x="164" y="418" type="curve" smooth="yes"/>
      <point x="164" y="389"/>
      <point x="177" y="370"/>
      <point x="204" y="360" type="curve" smooth="yes"/>
      <point x="248" y="344"/>
      <point x="286" y="332"/>
      <point x="317" y="323" type="curve"/>
      <point x="315" y="297" type="line"/>
      <point x="317" y="273" type="line"/>
      <point x="229" y="249" type="line" smooth="yes"/>
      <point x="185" y="237"/>
      <point x="163" y="213"/>
      <point x="164" y="178" type="curve" smooth="yes"/>
      <point x="165" y="137"/>
      <point x="187" y="117"/>
      <point x="228" y="117" type="curve" smooth="yes"/>
      <point x="244" y="117"/>
      <point x="257" y="121"/>
      <point x="268" y="130" type="curve" smooth="yes"/>
      <point x="294" y="151"/>
      <point x="312" y="168"/>
      <point x="322" y="180" type="curve"/>
      <point x="329" y="194"/>
      <point x="339" y="205"/>
      <point x="350" y="212" type="curve"/>
      <point x="364" y="199"/>
      <point x="381" y="191"/>
      <point x="400" y="188" type="curve"/>
      <point x="389" y="157"/>
      <point x="382" y="134"/>
      <point x="378" y="119" type="curve" smooth="yes"/>
      <point x="371" y="92"/>
      <point x="367" y="75"/>
      <point x="367" y="67" type="curve" smooth="yes"/>
      <point x="367" y="21"/>
      <point x="388" y="-2"/>
    </contour>
    <contour>
      <point x="434" y="251" type="curve" smooth="yes"/>
      <point x="404" y="251"/>
      <point x="389" y="266"/>
      <point x="389" y="295" type="curve" smooth="yes"/>
      <point x="389" y="310"/>
      <point x="395" y="323"/>
      <point x="406" y="334" type="curve"/>
      <point x="416" y="341"/>
      <point x="425" y="344"/>
      <point x="434" y="344" type="curve" smooth="yes"/>
      <point x="451" y="344"/>
      <point x="463" y="339"/>
      <point x="469" y="329" type="curve"/>
      <point x="476" y="322"/>
      <point x="480" y="312"/>
      <point x="480" y="299" type="curve" smooth="yes"/>
      <point x="480" y="284"/>
      <point x="475" y="273"/>
      <point x="465" y="266" type="curve"/>
      <point x="456" y="256"/>
      <point x="446" y="251"/>
    </contour>
  </outline>
</glyph>
<glyph name="plus" format="2">
  <advance width="757"/>
  <unicode hex="002B"/>
  <outline>
    <contour>
      <point x="681" y="406" type="line"/>
      <point x="76" y="406" type="line"/>
      <point x="76" y="307" type="line"/>
      <point x="681" y="307" type="line"/>
    </contour>
    <contour>
      <point x="328" y="661" type="line"/>
      <point x="328" y="51" type="line"/>
      <point x="429" y="51" type="line"/>
      <point x="429" y="661" type="line"/>
    </contour>
  </outline>
</glyph>
<glyph name="period" format="2">
  <advance width="360"/>
  <unicode hex="002E"/>
  <outline>
    <contour>
      <point x="179" y="-14" type="curve" smooth="yes"/>
      <point x="241" y="-14"/>
      <point x="287" y="30"/>
      <point x="287" y="90" type="curve" smooth="yes"/>
      <point x="287" y="150"/>
      <point x="241" y="195"/>
      <point x="179" y="195" type="curve" smooth="yes"/>
      <point x="119" y="195"/>
      <point x="73" y="150"/>
      <point x="73" y="90" type="curve" smooth="yes"/>
      <point x="73" y="30"/>
      <point x="119" y="-14"/>
    </contour>
  </outline>
</glyph>
<glyph name="slash" format="2">
  <advance width="545"/>
  <unicode hex="002F"/>
  <outline>
    <contour>
      <point x="33" y="-252" type="line"/>
      <point x="144" y="-252" type="line"/>
      <point x="567" y="1022" type="line"/>
      <point x="456" y="1022" type="line"/>
    </contour>
  </outline>
</glyph>
<glyph name="zero" format="2">
  <advance width="791"/>
  <unicode hex="0030"/>
  <anchor x="468" y="-75" name="L"/>
  <anchor x="468" y="1147" name="U"/>
  <outline>
    <contour>
      <point x="388" y="-15" type="curve" smooth="yes"/>
      <point x="593" y="-15"/>
      <point x="736" y="102"/>
      <point x="736" y="455" type="curve" smooth="yes"/>
      <point x="736" y="794"/>
      <point x="618" y="921"/>
      <point x="401" y="921" type="curve" smooth="yes"/>
      <point x="198" y="921"/>
      <point x="54" y="792"/>
      <point x="54" y="442" type="curve" smooth="yes"/>
      <point x="54" y="105"/>
      <point x="185" y="-15"/>
    </contour>
    <contour>
      <point x="395" y="130" type="curve" smooth="yes"/>
      <point x="288" y="130"/>
      <point x="235" y="239"/>
      <point x="235" y="457" type="curve" smooth="yes"/>
      <point x="235" y="671"/>
      <point x="291" y="774"/>
      <point x="395" y="774" type="curve" smooth="yes"/>
      <point x="505" y="774"/>
      <point x="554" y="666"/>
      <point x="554" y="439" type="curve" smooth="yes"/>
      <point x="554" y="235"/>
      <point x="498" y="130"/>
    </contour>
  </outline>
</glyph>
<glyph name="one" format="2">
  <advance width="765"/>
  <unicode hex="0031"/>
  <anchor x="450" y="-75" name="L"/>
  <anchor x="450" y="1147" name="U"/>
  <outline>
    <contour>
      <point x="314" y="0" type="line"/>
      <point x="502" y="0" type="line"/>
      <point x="493" y="69"/>
      <point x="489" y="220"/>
      <point x="489" y="303" type="curve" smooth="yes"/>
      <point x="489" y="914" type="line"/>
      <point x="314" y="914" type="line"/>
      <point x="112" y="797" type="line"/>
      <point x="135" y="632" type="line"/>
      <point x="314" y="728" type="line"/>
    </contour>
  </outline>
</glyph>
<glyph name="three" format="2">
  <advance width="791"/>
  <unicode hex="0033"/>
  <anchor x="468" y="-75" name="L"/>
  <anchor x="468" y="1147" name="U"/>
  <outline>
    <contour>
      <point x="354" y="-15" type="curve" smooth="yes"/>
      <point x="564" y="-15"/>
      <point x="720" y="108"/>
      <point x="720" y="258" type="curve" smooth="yes"/>
      <point x="720" y="428"/>
      <point x="575" y="482"/>
      <point x="485" y="497" type="curve"/>
      <point x="575" y="515"/>
      <point x="689" y="609"/>
      <point x="689" y="727" type="curve" smooth="yes"/>
      <point x="689" y="863"/>
      <point x="559" y="946"/>
      <point x="376" y="946" type="curve" smooth="yes"/>
      <point x="269" y="946"/>
      <point x="159" y="903"/>
      <point x="108" y="844" type="curve"/>
      <point x="130" y="698" type="line"/>
      <point x="202" y="772"/>
      <point x="284" y="796"/>
      <point x="383" y="796" type="curve" smooth="yes"/>
      <point x="445" y="796"/>
      <point x="510" y="760"/>
      <point x="510" y="702" type="curve" smooth="yes"/>
      <point x="510" y="633"/>
      <point x="428" y="564"/>
      <point x="312" y="564" type="curve" smooth="yes"/>
      <point x="255" y="564" type="line"/>
      <point x="255" y="411" type="line"/>
      <point x="312" y="411" type="line" smooth="yes"/>
      <point x="456" y="411"/>
      <point x="538" y="349"/>
      <point x="538" y="270" type="curve" smooth="yes"/>
      <point x="538" y="185"/>
      <point x="457" y="133"/>
      <point x="366" y="133" type="curve" smooth="yes"/>
      <point x="264" y="133"/>
      <point x="162" y="179"/>
      <point x="92" y="258" type="curve"/>
      <point x="70" y="82" type="line"/>
      <point x="137" y="20"/>
      <point x="241" y="-15"/>
    </contour>
  </outline>
</glyph>
<glyph name="eight" format="2">
  <advance width="791"/>
  <unicode hex="0038"/>
  <anchor x="468" y="-75" name="L"/>
  <anchor x="468" y="1147" name="U"/>
  <outline>
    <contour>
      <point x="395" y="-15" type="curve" smooth="yes"/>
      <point x="571" y="-15"/>
      <point x="733" y="92"/>
      <point x="733" y="260" type="curve" smooth="yes"/>
      <point x="733" y="392"/>
      <point x="640" y="455"/>
      <point x="570" y="490" type="curve"/>
      <point x="620" y="519"/>
      <point x="689" y="572"/>
      <point x="689" y="680" type="curve" smooth="yes"/>
      <point x="689" y="829"/>
      <point x="561" y="918"/>
      <point x="401" y="918" type="curve" smooth="yes"/>
      <point x="242" y="918"/>
      <point x="102" y="829"/>
      <point x="102" y="680" type="curve" smooth="yes"/>
      <point x="102" y="572"/>
      <point x="173" y="518"/>
      <point x="223" y="490" type="curve"/>
      <point x="140" y="445"/>
      <point x="57" y="386"/>
      <point x="57" y="253" type="curve" smooth="yes"/>
      <point x="57" y="85"/>
      <point x="219" y="-15"/>
    </contour>
    <contour>
      <point x="395" y="130" type="curve" smooth="yes"/>
      <point x="293" y="130"/>
      <point x="226" y="204"/>
      <point x="226" y="279" type="curve" smooth="yes"/>
      <point x="226" y="354"/>
      <point x="299" y="417"/>
      <point x="395" y="417" type="curve" smooth="yes"/>
      <point x="490" y="417"/>
      <point x="564" y="354"/>
      <point x="564" y="279" type="curve" smooth="yes"/>
      <point x="564" y="204"/>
      <point x="502" y="130"/>
    </contour>
    <contour>
      <point x="395" y="554" type="curve" smooth="yes"/>
      <point x="310" y="554"/>
      <point x="261" y="604"/>
      <point x="261" y="671" type="curve" smooth="yes"/>
      <point x="261" y="731"/>
      <point x="316" y="778"/>
      <point x="395" y="778" type="curve" smooth="yes"/>
      <point x="486" y="778"/>
      <point x="529" y="725"/>
      <point x="529" y="671" type="curve" smooth="yes"/>
      <point x="529" y="604"/>
      <point x="479" y="554"/>
    </contour>
  </outline>
</glyph>
<glyph name="colon" format="2">
  <advance width="411"/>
  <unicode hex="003A"/>
  <outline>
    <contour>
      <point x="179" y="415" type="curve" smooth="yes"/>
      <point x="241" y="415"/>
      <point x="287" y="458"/>
      <point x="287" y="518" type="curve" smooth="yes"/>
      <point x="287" y="578"/>
      <point x="241" y="623"/>
      <point x="179" y="623" type="curve" smooth="yes"/>
      <point x="119" y="623"/>
      <point x="73" y="578"/>
      <point x="73" y="518" type="curve" smooth="yes"/>
      <point x="73" y="458"/>
      <point x="119" y="415"/>
    </contour>
    <contour>
      <point x="179" y="-14" type="curve" smooth="yes"/>
      <point x="241" y="-14"/>
      <point x="288" y="30"/>
      <point x="288" y="90" type="curve" smooth="yes"/>
      <point x="288" y="150"/>
      <point x="241" y="195"/>
      <point x="179" y="195" type="curve" smooth="yes"/>
      <point x="120" y="195"/>
      <point x="73" y="150"/>
      <point x="73" y="90" type="curve" smooth="yes"/>
      <point x="73" y="30"/>
      <point x="120" y="-14"/>
    </contour>
  </outline>
</glyph>
<glyph name="less" format="2">
  <advance width="757"/>
  <unicode hex="003C"/>
  <outline>
    <contour>
      <point x="74" y="300" type="line"/>
      <point x="683" y="40" type="line"/>
      <point x="683" y="153" type="line"/>
      <point x="118" y="392" type="line"/>
      <point x="118" y="319" type="line"/>
      <point x="683" y="558" type="line"/>
      <point x="683" y="674" type="line"/>
      <point x="74" y="413" type="line"/>
    </contour>
  </outline>
</glyph>
<glyph name="equal" format="2">
  <advance width="757"/>
  <unicode hex="003D"/>
  <outline>
    <contour>
      <point x="683" y="534" type="line"/>
      <point x="74" y="534" type="line"/>
      <point x="74" y="428" type="line"/>
      <point x="683" y="428" type="line"/>
    </contour>
    <contour>
      <point x="683" y="283" type="line"/>
      <point x="74" y="283" type="line"/>
      <point x="74" y="179" type="line"/>
      <point x="683" y="179" type="line"/>
    </contour>
  </outline>
</glyph>
<glyph name="greater" format="2">
  <advance width="757"/>
  <unicode hex="003E"/>
  <outline>
    <contour>
      <point x="683" y="300" type="line"/>
      <point x="683" y="413" type="line"/>
      <point x="74" y="674" type="line"/>
      <point x="74" y="558" type="line"/>
      <point x="638" y="319" type="line"/>
      <point x="638" y="392" type="line"/>
      <point x="74" y="153" type="line"/>
      <point x="74" y="40" type="line"/>
    </contour>
  </outline>
</glyph>
<glyph name="at" format="2">
  <advance width="1308"/>
  <unicode hex="0040"/>
  <note>
at
</note>
  <outline>
    <contour>
      <point x="668" y="-318" type="curve" smooth="yes"/>
      <point x="757" y="-318"/>
      <point x="854" y="-298"/>
      <point x="925" y="-263" type="curve"/>
      <point x="903" y="-202" type="line"/>
      <point x="838" y="-230"/>
      <point x="757" y="-245"/>
      <point x="677" y="-245" type="curve" smooth="yes"/>
      <point x="389" y="-245"/>
      <point x="214" y="-69"/>
      <point x="214" y="247" type="curve" smooth="yes"/>
      <point x="214" y="561"/>
      <point x="404" y="762"/>
      <point x="717" y="762" type="curve" smooth="yes"/>
      <point x="963" y="762"/>
      <point x="1128" y="644"/>
      <point x="1128" y="395" type="curve" smooth="yes"/>
      <point x="1128" y="189"/>
      <point x="1034" y="67"/>
      <point x="931" y="67" type="curve"/>
      <point x="923" y="87"/>
      <point x="920" y="117"/>
      <point x="920" y="166" type="curve"/>
      <point x="924" y="416" type="line"/>
      <point x="924" y="538"/>
      <point x="825" y="620"/>
      <point x="675" y="620" type="curve"/>
      <point x="582" y="606"/>
      <point x="434" y="525"/>
      <point x="434" y="461" type="curve" smooth="yes"/>
      <point x="434" y="420"/>
      <point x="470" y="395"/>
      <point x="525" y="395" type="curve" smooth="yes"/>
      <point x="539" y="395"/>
      <point x="555" y="398"/>
      <point x="573" y="401" type="curve"/>
      <point x="578" y="472" type="line" smooth="yes"/>
      <point x="581" y="521"/>
      <point x="592" y="535"/>
      <point x="632" y="535" type="curve" smooth="yes"/>
      <point x="711" y="535"/>
      <point x="778" y="479"/>
      <point x="778" y="414" type="curve" smooth="yes"/>
      <point x="778" y="352" type="line"/>
      <point x="560" y="283" type="line" smooth="yes"/>
      <point x="469" y="254"/>
      <point x="431" y="214"/>
      <point x="431" y="149" type="curve" smooth="yes"/>
      <point x="431" y="76"/>
      <point x="510" y="-10"/>
      <point x="630" y="-10" type="curve" smooth="yes"/>
      <point x="688" y="-10"/>
      <point x="747" y="25"/>
      <point x="807" y="96" type="curve"/>
      <point x="782" y="100" type="line"/>
      <point x="802" y="39" type="line" smooth="yes"/>
      <point x="812" y="5"/>
      <point x="833" y="-10"/>
      <point x="877" y="-10" type="curve" smooth="yes"/>
      <point x="1061" y="-10"/>
      <point x="1242" y="178"/>
      <point x="1242" y="395" type="curve" smooth="yes"/>
      <point x="1242" y="676"/>
      <point x="1012" y="833"/>
      <point x="718" y="833" type="curve" smooth="yes"/>
      <point x="337" y="833"/>
      <point x="75" y="585"/>
      <point x="75" y="233" type="curve" smooth="yes"/>
      <point x="75" y="-115"/>
      <point x="322" y="-318"/>
    </contour>
    <contour>
      <point x="683" y="90" type="curve" smooth="yes"/>
      <point x="631" y="90"/>
      <point x="584" y="133"/>
      <point x="584" y="179" type="curve" smooth="yes"/>
      <point x="584" y="216"/>
      <point x="603" y="239"/>
      <point x="648" y="250" type="curve" smooth="yes"/>
      <point x="778" y="281" type="line"/>
      <point x="778" y="137" type="line"/>
      <point x="750" y="106"/>
      <point x="718" y="90"/>
    </contour>
  </outline>
</glyph>
<glyph name="A" format="2">
  <advance width="831"/>
  <unicode hex="0041"/>
  <note>
A
</note>
  <anchor x="403" y="824" name="above"/>
  <anchor x="381" y="0" name="below"/>
  <anchor x="776" y="0" name="ogonek"/>
  <outline>
    <contour>
      <point x="0" y="0" type="line"/>
      <point x="252" y="0" type="line"/>
      <point x="255" y="60" type="line"/>
      <point x="167" y="80" type="line"/>
      <point x="238" y="282" type="line"/>
      <point x="253" y="324" type="line"/>
      <point x="385" y="686" type="line"/>
      <point x="349" y="682" type="line"/>
      <point x="496" y="323" type="line"/>
      <point x="512" y="278" type="line"/>
      <point x="592" y="80" type="line"/>
      <point x="505" y="60" type="line"/>
      <point x="508" y="0" type="line"/>
      <point x="833" y="0" type="line"/>
      <point x="837" y="60" type="line"/>
      <point x="766" y="80" type="line"/>
      <point x="453" y="849" type="line"/>
      <point x="355" y="792" type="line"/>
      <point x="68" y="80" type="line"/>
      <point x="-1" y="60" type="line"/>
    </contour>
    <contour>
      <point x="207" y="249" type="line"/>
      <point x="262" y="251"/>
      <point x="315" y="253"/>
      <point x="380" y="253" type="curve" smooth="yes"/>
      <point x="445" y="253"/>
      <point x="501" y="251"/>
      <point x="553" y="251" type="curve"/>
      <point x="553" y="333" type="line"/>
      <point x="518" y="332"/>
      <point x="462" y="329"/>
      <point x="380" y="329" type="curve" smooth="yes"/>
      <point x="297" y="329"/>
      <point x="243" y="332"/>
      <point x="207" y="333" type="curve"/>
    </contour>
  </outline>
</glyph>
<glyph name="B" format="2">
  <advance width="811"/>
  <unicode hex="0042"/>
  <note>
B
</note>
  <anchor x="406" y="824" name="above"/>
  <anchor x="406" y="0" name="below"/>
  <outline>
    <contour>
      <point x="143" y="80" type="curve"/>
      <point x="55" y="60" type="line"/>
      <point x="58" y="0" type="line"/>
      <point x="392" y="0" type="line" smooth="yes"/>
      <point x="615" y="0"/>
      <point x="749" y="90"/>
      <point x="749" y="238" type="curve" smooth="yes"/>
      <point x="749" y="364"/>
      <point x="651" y="439"/>
      <point x="473" y="446" type="curve"/>
      <point x="479" y="435" type="line"/>
      <point x="614" y="444"/>
      <point x="707" y="523"/>
      <point x="707" y="625" type="curve" smooth="yes"/>
      <point x="707" y="755"/>
      <point x="610" y="824"/>
      <point x="422" y="824" type="curve" smooth="yes"/>
      <point x="58" y="824" type="line"/>
      <point x="55" y="762" type="line"/>
      <point x="143" y="744" type="line"/>
      <point x="147" y="733"/>
      <point x="151" y="649"/>
      <point x="151" y="529" type="curve" smooth="yes"/>
      <point x="151" y="292" type="line" smooth="yes"/>
      <point x="151" y="180"/>
      <point x="147" y="94"/>
    </contour>
    <contour>
      <point x="301" y="248" type="curve" smooth="yes"/>
      <point x="301" y="577" type="line" smooth="yes"/>
      <point x="301" y="664"/>
      <point x="302" y="740"/>
      <point x="303" y="754" type="curve"/>
      <point x="378" y="754" type="line" smooth="yes"/>
      <point x="489" y="754"/>
      <point x="546" y="701"/>
      <point x="546" y="609" type="curve" smooth="yes"/>
      <point x="546" y="512"/>
      <point x="485" y="458"/>
      <point x="373" y="458" type="curve" smooth="yes"/>
      <point x="339" y="458"/>
      <point x="315" y="459"/>
      <point x="284" y="461" type="curve"/>
      <point x="284" y="379" type="line"/>
      <point x="307" y="382"/>
      <point x="326" y="382"/>
      <point x="380" y="382" type="curve" smooth="yes"/>
      <point x="520" y="382"/>
      <point x="588" y="331"/>
      <point x="588" y="222" type="curve" smooth="yes"/>
      <point x="588" y="123"/>
      <point x="523" y="72"/>
      <point x="399" y="72" type="curve" smooth="yes"/>
      <point x="371" y="72"/>
      <point x="326" y="77"/>
      <point x="305" y="82" type="curve"/>
      <point x="302" y="100"/>
      <point x="301" y="167"/>
    </contour>
  </outline>
</glyph>
<glyph name="C" format="2">
  <advance width="857"/>
  <unicode hex="0043"/>
  <note>
C
</note>
  <anchor x="490" y="824" name="above"/>
  <anchor x="490" y="0" name="below"/>
  <outline>
    <contour>
      <point x="519" y="-12" type="curve" smooth="yes"/>
      <point x="621" y="-12"/>
      <point x="720" y="17"/>
      <point x="782" y="52" type="curve"/>
      <point x="822" y="233" type="line"/>
      <point x="744" y="242" type="line"/>
      <point x="687" y="112" type="line"/>
      <point x="648" y="85"/>
      <point x="596" y="71"/>
      <point x="542" y="71" type="curve" smooth="yes"/>
      <point x="379" y="71"/>
      <point x="251" y="200"/>
      <point x="251" y="430" type="curve" smooth="yes"/>
      <point x="251" y="615"/>
      <point x="341" y="755"/>
      <point x="530" y="755" type="curve" smooth="yes"/>
      <point x="579" y="755"/>
      <point x="636" y="744"/>
      <point x="672" y="722" type="curve"/>
      <point x="717" y="582" type="line"/>
      <point x="790" y="588" type="line"/>
      <point x="781" y="791" type="line"/>
      <point x="717" y="819"/>
      <point x="622" y="836"/>
      <point x="542" y="836" type="curve" smooth="yes"/>
      <point x="254" y="836"/>
      <point x="68" y="653"/>
      <point x="68" y="403" type="curve" smooth="yes"/>
      <point x="68" y="131"/>
      <point x="262" y="-12"/>
    </contour>
  </outline>
</glyph>
<glyph name="D" format="2">
  <advance width="972"/>
  <unicode hex="0044"/>
  <note>
D
</note>
  <anchor x="477" y="824" name="above"/>
  <anchor x="463" y="0" name="below"/>
  <anchor x="491" y="412" name="center"/>
  <anchor x="287" y="412" name="stroke"/>
  <outline>
    <contour>
      <point x="61" y="824" type="line"/>
      <point x="56" y="762" type="line"/>
      <point x="144" y="742" type="line"/>
      <point x="148" y="730"/>
      <point x="153" y="643"/>
      <point x="153" y="529" type="curve" smooth="yes"/>
      <point x="153" y="292" type="line" smooth="yes"/>
      <point x="153" y="185"/>
      <point x="148" y="95"/>
      <point x="144" y="80" type="curve"/>
      <point x="56" y="60" type="line"/>
      <point x="61" y="0" type="line"/>
      <point x="437" y="0" type="line" smooth="yes"/>
      <point x="706" y="0"/>
      <point x="898" y="174"/>
      <point x="898" y="421" type="curve" smooth="yes"/>
      <point x="898" y="675"/>
      <point x="722" y="824"/>
      <point x="422" y="824" type="curve" smooth="yes"/>
    </contour>
    <contour>
      <point x="306" y="740" type="curve"/>
      <point x="343" y="747"/>
      <point x="377" y="749"/>
      <point x="407" y="749" type="curve" smooth="yes"/>
      <point x="599" y="749"/>
      <point x="724" y="632"/>
      <point x="724" y="379" type="curve" smooth="yes"/>
      <point x="724" y="179"/>
      <point x="630" y="80"/>
      <point x="449" y="80" type="curve" smooth="yes"/>
      <point x="408" y="80"/>
      <point x="363" y="84"/>
      <point x="310" y="93" type="curve"/>
      <point x="306" y="133"/>
      <point x="303" y="212"/>
      <point x="303" y="292" type="curve" smooth="yes"/>
      <point x="303" y="529" type="line" smooth="yes"/>
      <point x="303" y="661"/>
      <point x="306" y="716"/>
    </contour>
  </outline>
</glyph>
<glyph name="E" format="2">
  <advance width="796"/>
  <unicode hex="0045"/>
  <note>
E
</note>
  <anchor x="399" y="824" name="above"/>
  <anchor x="399" y="0" name="below"/>
  <anchor x="705" y="0" name="ogonek"/>
  <anchor x="35" y="824" name="topleft"/>
  <outline>
    <contour>
      <point x="702" y="-7" type="curve"/>
      <point x="763" y="207" type="line"/>
      <point x="692" y="220" type="line"/>
      <point x="617" y="84" type="line"/>
      <point x="600" y="80"/>
      <point x="584" y="79"/>
      <point x="518" y="79" type="curve" smooth="yes"/>
      <point x="409" y="79" type="line" smooth="yes"/>
      <point x="363" y="79"/>
      <point x="334" y="80"/>
      <point x="304" y="83" type="curve"/>
      <point x="302" y="104"/>
      <point x="301" y="166"/>
      <point x="301" y="239" type="curve" smooth="yes"/>
      <point x="301" y="580" type="line" smooth="yes"/>
      <point x="301" y="659"/>
      <point x="302" y="729"/>
      <point x="304" y="746" type="curve"/>
      <point x="326" y="748"/>
      <point x="357" y="750"/>
      <point x="392" y="750" type="curve" smooth="yes"/>
      <point x="528" y="750" type="line" smooth="yes"/>
      <point x="549" y="750"/>
      <point x="567" y="748"/>
      <point x="587" y="744" type="curve"/>
      <point x="636" y="624" type="line"/>
      <point x="708" y="634" type="line"/>
      <point x="676" y="829" type="line"/>
      <point x="622" y="825"/>
      <point x="549" y="824"/>
      <point x="502" y="824" type="curve" smooth="yes"/>
      <point x="59" y="824" type="line"/>
      <point x="55" y="762" type="line"/>
      <point x="143" y="742" type="line"/>
      <point x="148" y="731"/>
      <point x="151" y="652"/>
      <point x="151" y="529" type="curve" smooth="yes"/>
      <point x="151" y="292" type="line" smooth="yes"/>
      <point x="151" y="173"/>
      <point x="148" y="93"/>
      <point x="143" y="80" type="curve"/>
      <point x="55" y="60" type="line"/>
      <point x="59" y="0" type="line"/>
      <point x="542" y="0" type="line"/>
      <point x="589" y="0"/>
      <point x="650" y="-1"/>
    </contour>
    <contour>
      <point x="536" y="285" type="line"/>
      <point x="605" y="285" type="line"/>
      <point x="605" y="562" type="line"/>
      <point x="536" y="562" type="line"/>
      <point x="521" y="465" type="line"/>
      <point x="510" y="464"/>
      <point x="482" y="463"/>
      <point x="449" y="463" type="curve" smooth="yes"/>
      <point x="357" y="463" type="line" smooth="yes"/>
      <point x="328" y="463"/>
      <point x="299" y="464"/>
      <point x="276" y="466" type="curve"/>
      <point x="276" y="379" type="line"/>
      <point x="299" y="381"/>
      <point x="328" y="384"/>
      <point x="357" y="384" type="curve" smooth="yes"/>
      <point x="449" y="384" type="line" smooth="yes"/>
      <point x="482" y="384"/>
      <point x="510" y="381"/>
      <point x="521" y="378" type="curve"/>
    </contour>
  </outline>
</glyph>
<glyph name="F" format="2">
  <advance width="728"/>
  <unicode hex="0046"/>
  <note>
F
</note>
  <anchor x="365" y="824" name="above"/>
  <anchor x="227" y="0" name="below"/>
  <outline>
    <contour>
      <point x="68" y="0" type="line"/>
      <point x="419" y="0" type="line"/>
      <point x="424" y="63" type="line"/>
      <point x="310" y="80" type="line"/>
      <point x="306" y="91"/>
      <point x="302" y="158"/>
      <point x="302" y="256" type="curve"/>
      <point x="301" y="570" type="line"/>
      <point x="301" y="680"/>
      <point x="301" y="728"/>
      <point x="302" y="744" type="curve"/>
      <point x="322" y="747"/>
      <point x="360" y="750"/>
      <point x="389" y="750" type="curve" smooth="yes"/>
      <point x="523" y="750" type="line" smooth="yes"/>
      <point x="543" y="750"/>
      <point x="563" y="748"/>
      <point x="579" y="744" type="curve"/>
      <point x="630" y="624" type="line"/>
      <point x="703" y="634" type="line"/>
      <point x="669" y="829" type="line"/>
      <point x="617" y="825"/>
      <point x="544" y="824"/>
      <point x="495" y="824" type="curve" smooth="yes"/>
      <point x="63" y="824" type="line"/>
      <point x="59" y="762" type="line"/>
      <point x="147" y="741" type="line"/>
      <point x="150" y="731"/>
      <point x="153" y="658"/>
      <point x="153" y="544" type="curve"/>
      <point x="151" y="288" type="line"/>
      <point x="151" y="165"/>
      <point x="148" y="91"/>
      <point x="145" y="80" type="curve"/>
      <point x="63" y="60" type="line"/>
    </contour>
    <contour>
      <point x="528" y="271" type="line"/>
      <point x="598" y="271" type="line"/>
      <point x="598" y="554" type="line"/>
      <point x="528" y="554" type="line"/>
      <point x="512" y="460" type="line"/>
      <point x="502" y="458"/>
      <point x="477" y="455"/>
      <point x="439" y="455" type="curve" smooth="yes"/>
      <point x="338" y="455" type="line" smooth="yes"/>
      <point x="310" y="455"/>
      <point x="282" y="458"/>
      <point x="261" y="459" type="curve"/>
      <point x="261" y="374" type="line"/>
      <point x="288" y="375"/>
      <point x="313" y="377"/>
      <point x="338" y="377" type="curve" smooth="yes"/>
      <point x="439" y="377" type="line" smooth="yes"/>
      <point x="470" y="377"/>
      <point x="497" y="375"/>
      <point x="512" y="371" type="curve"/>
    </contour>
  </outline>
</glyph>
<glyph name="G" format="2">
  <advance width="916"/>
  <unicode hex="0047"/>
  <note>
G
</note>
  <anchor x="492" y="824" name="above"/>
  <anchor x="492" y="0" name="below"/>
  <outline>
    <contour>
      <point x="522" y="-12" type="curve" smooth="yes"/>
      <point x="618" y="-12"/>
      <point x="728" y="14"/>
      <point x="805" y="63" type="curve"/>
      <point x="803" y="116"/>
      <point x="801" y="156"/>
      <point x="801" y="205" type="curve" smooth="yes"/>
      <point x="801" y="251"/>
      <point x="800" y="294"/>
      <point x="801" y="307" type="curve"/>
      <point x="867" y="326" type="line"/>
      <point x="862" y="386" type="line"/>
      <point x="555" y="386" type="line"/>
      <point x="550" y="323" type="line"/>
      <point x="648" y="306" type="line"/>
      <point x="651" y="280"/>
      <point x="653" y="230"/>
      <point x="653" y="179" type="curve" smooth="yes"/>
      <point x="653" y="31" type="line"/>
      <point x="685" y="108" type="line"/>
      <point x="644" y="80"/>
      <point x="588" y="70"/>
      <point x="546" y="70" type="curve" smooth="yes"/>
      <point x="378" y="70"/>
      <point x="246" y="200"/>
      <point x="246" y="430" type="curve" smooth="yes"/>
      <point x="246" y="615"/>
      <point x="338" y="755"/>
      <point x="532" y="755" type="curve" smooth="yes"/>
      <point x="577" y="755"/>
      <point x="635" y="746"/>
      <point x="673" y="722" type="curve"/>
      <point x="716" y="595" type="line"/>
      <point x="787" y="601" type="line"/>
      <point x="781" y="791" type="line"/>
      <point x="720" y="819"/>
      <point x="625" y="836"/>
      <point x="545" y="836" type="curve" smooth="yes"/>
      <point x="252" y="836"/>
      <point x="66" y="653"/>
      <point x="66" y="399" type="curve" smooth="yes"/>
      <point x="66" y="131"/>
      <point x="260" y="-12"/>
    </contour>
  </outline>
</glyph>
<glyph name="H" format="2">
  <advance width="960"/>
  <unicode hex="0048"/>
  <note>
H
</note>
  <anchor x="479" y="824" name="above"/>
  <anchor x="479" y="0" name="below"/>
  <anchor x="479" y="609" name="center"/>
  <anchor x="35" y="824" name="topleft"/>
  <outline>
    <contour>
      <point x="565" y="0" type="line"/>
      <point x="900" y="0" type="line"/>
      <point x="904" y="60" type="line"/>
      <point x="817" y="80" type="line"/>
      <point x="811" y="93"/>
      <point x="808" y="174"/>
      <point x="808" y="292" type="curve" smooth="yes"/>
      <point x="808" y="529" type="line" smooth="yes"/>
      <point x="808" y="651"/>
      <point x="811" y="731"/>
      <point x="817" y="742" type="curve"/>
      <point x="904" y="762" type="line"/>
      <point x="900" y="824" type="line"/>
      <point x="565" y="824" type="line"/>
      <point x="562" y="762" type="line"/>
      <point x="648" y="742" type="line"/>
      <point x="653" y="731"/>
      <point x="656" y="657"/>
      <point x="656" y="529" type="curve" smooth="yes"/>
      <point x="656" y="292" type="line" smooth="yes"/>
      <point x="656" y="169"/>
      <point x="653" y="93"/>
      <point x="648" y="80" type="curve"/>
      <point x="562" y="60" type="line"/>
    </contour>
    <contour>
      <point x="61" y="0" type="line"/>
      <point x="394" y="0" type="line"/>
      <point x="398" y="60" type="line"/>
      <point x="311" y="80" type="line"/>
      <point x="305" y="93"/>
      <point x="302" y="169"/>
      <point x="302" y="292" type="curve" smooth="yes"/>
      <point x="302" y="529" type="line" smooth="yes"/>
      <point x="302" y="657"/>
      <point x="305" y="731"/>
      <point x="311" y="742" type="curve"/>
      <point x="398" y="762" type="line"/>
      <point x="394" y="824" type="line"/>
      <point x="61" y="824" type="line"/>
      <point x="56" y="762" type="line"/>
      <point x="143" y="742" type="line"/>
      <point x="148" y="732"/>
      <point x="151" y="651"/>
      <point x="151" y="529" type="curve" smooth="yes"/>
      <point x="151" y="292" type="line" smooth="yes"/>
      <point x="151" y="173"/>
      <point x="148" y="93"/>
      <point x="143" y="80" type="curve"/>
      <point x="56" y="60" type="line"/>
    </contour>
    <contour>
      <point x="279" y="375" type="line"/>
      <point x="319" y="377"/>
      <point x="379" y="381"/>
      <point x="481" y="381" type="curve" smooth="yes"/>
      <point x="580" y="381"/>
      <point x="639" y="377"/>
      <point x="679" y="375" type="curve"/>
      <point x="679" y="468" type="line"/>
      <point x="640" y="463"/>
      <point x="576" y="462"/>
      <point x="481" y="462" type="curve" smooth="yes"/>
      <point x="383" y="462"/>
      <point x="319" y="463"/>
      <point x="279" y="468" type="curve"/>
    </contour>
  </outline>
</glyph>
<glyph name="I" format="2">
  <advance width="455"/>
  <unicode hex="0049"/>
  <note>
I
</note>
  <anchor x="227" y="824" name="above"/>
  <anchor x="227" y="0" name="below"/>
  <anchor x="317" y="0" name="ogonek"/>
  <anchor x="35" y="824" name="topleft"/>
  <outline>
    <contour>
      <point x="61" y="0" type="line"/>
      <point x="395" y="0" type="line"/>
      <point x="398" y="60" type="line"/>
      <point x="311" y="80" type="line"/>
      <point x="305" y="93"/>
      <point x="302" y="169"/>
      <point x="302" y="292" type="curve" smooth="yes"/>
      <point x="302" y="529" type="line" smooth="yes"/>
      <point x="302" y="657"/>
      <point x="305" y="731"/>
      <point x="311" y="742" type="curve"/>
      <point x="398" y="762" type="line"/>
      <point x="395" y="824" type="line"/>
      <point x="61" y="824" type="line"/>
      <point x="56" y="762" type="line"/>
      <point x="143" y="742" type="line"/>
      <point x="148" y="732"/>
      <point x="151" y="651"/>
      <point x="151" y="529" type="curve" smooth="yes"/>
      <point x="151" y="292" type="line" smooth="yes"/>
      <point x="151" y="173"/>
      <point x="148" y="93"/>
      <point x="143" y="80" type="curve"/>
      <point x="56" y="60" type="line"/>
    </contour>
  </outline>
</glyph>
<glyph name="J" format="2">
  <advance width="455"/>
  <unicode hex="004A"/>
  <note>
J
</note>
  <anchor x="227" y="824" name="above"/>
  <outline>
    <contour>
      <point x="311" y="742" type="curve"/>
      <point x="398" y="762" type="line"/>
      <point x="395" y="824" type="line"/>
      <point x="50" y="824" type="line"/>
      <point x="47" y="762" type="line"/>
      <point x="143" y="743" type="line"/>
      <point x="148" y="727"/>
      <point x="151" y="645"/>
      <point x="151" y="533" type="curve"/>
      <point x="151" y="-34" type="line"/>
      <point x="151" y="-184"/>
      <point x="126" y="-230"/>
      <point x="52" y="-217" type="curve"/>
      <point x="114" y="-240" type="line"/>
      <point x="29" y="-155" type="line" smooth="yes"/>
      <point x="1" y="-128"/>
      <point x="-24" y="-115"/>
      <point x="-53" y="-115" type="curve" smooth="yes"/>
      <point x="-89" y="-115"/>
      <point x="-115" y="-140"/>
      <point x="-115" y="-177" type="curve" smooth="yes"/>
      <point x="-115" y="-237"/>
      <point x="-37" y="-284"/>
      <point x="60" y="-284" type="curve" smooth="yes"/>
      <point x="210" y="-284"/>
      <point x="304" y="-172"/>
      <point x="304" y="14" type="curve"/>
      <point x="302" y="531" type="line"/>
      <point x="302" y="656"/>
      <point x="305" y="733"/>
    </contour>
  </outline>
</glyph>
<glyph name="K" format="2">
  <advance width="865"/>
  <unicode hex="004B"/>
  <note>
K
</note>
  <anchor x="452" y="824" name="above"/>
  <anchor x="452" y="0" name="below"/>
  <outline>
    <contour>
      <point x="512" y="0" type="line"/>
      <point x="880" y="0" type="line"/>
      <point x="880" y="62" type="line"/>
      <point x="810" y="75" type="line"/>
      <point x="792" y="92"/>
      <point x="765" y="122"/>
      <point x="711" y="186" type="curve" smooth="yes"/>
      <point x="441" y="496" type="line"/>
      <point x="441" y="445" type="line"/>
      <point x="766" y="746" type="line"/>
      <point x="851" y="760" type="line"/>
      <point x="849" y="824" type="line"/>
      <point x="557" y="824" type="line"/>
      <point x="553" y="762" type="line"/>
      <point x="641" y="746" type="line"/>
      <point x="351" y="447" type="line"/>
      <point x="284" y="431" type="line"/>
      <point x="284" y="373" type="line"/>
      <point x="341" y="373" type="line"/>
      <point x="537" y="143" type="line" smooth="yes"/>
      <point x="563" y="113"/>
      <point x="576" y="94"/>
      <point x="589" y="74" type="curve"/>
      <point x="509" y="60" type="line"/>
    </contour>
    <contour>
      <point x="64" y="0" type="line"/>
      <point x="385" y="0" type="line"/>
      <point x="389" y="60" type="line"/>
      <point x="310" y="80" type="line"/>
      <point x="306" y="93"/>
      <point x="303" y="170"/>
      <point x="303" y="292" type="curve" smooth="yes"/>
      <point x="303" y="529" type="line" smooth="yes"/>
      <point x="303" y="654"/>
      <point x="306" y="731"/>
      <point x="312" y="742" type="curve"/>
      <point x="399" y="762" type="line"/>
      <point x="396" y="824" type="line"/>
      <point x="62" y="824" type="line"/>
      <point x="58" y="762" type="line"/>
      <point x="145" y="742" type="line"/>
      <point x="150" y="731"/>
      <point x="153" y="651"/>
      <point x="153" y="529" type="curve" smooth="yes"/>
      <point x="153" y="292" type="line" smooth="yes"/>
      <point x="153" y="170"/>
      <point x="150" y="93"/>
      <point x="147" y="80" type="curve"/>
      <point x="59" y="60" type="line"/>
    </contour>
  </outline>
</glyph>
<glyph name="L" format="2">
  <advance width="741"/>
  <unicode hex="004C"/>
  <note>
L
</note>
  <anchor x="229" y="824" name="above"/>
  <anchor x="401" y="0" name="below"/>
  <anchor x="274" y="425" name="center"/>
  <anchor x="511" y="448" name="dotacc"/>
  <anchor x="522" y="824" name="topright"/>
  <outline>
    <contour>
      <point x="675" y="-7" type="curve"/>
      <point x="736" y="223" type="line"/>
      <point x="664" y="240" type="line"/>
      <point x="587" y="95" type="line"/>
      <point x="562" y="91"/>
      <point x="533" y="88"/>
      <point x="490" y="88" type="curve" smooth="yes"/>
      <point x="408" y="88" type="line" smooth="yes"/>
      <point x="367" y="88"/>
      <point x="338" y="89"/>
      <point x="310" y="94" type="curve"/>
      <point x="306" y="115"/>
      <point x="305" y="190"/>
      <point x="305" y="292" type="curve" smooth="yes"/>
      <point x="305" y="529" type="line" smooth="yes"/>
      <point x="305" y="656"/>
      <point x="309" y="731"/>
      <point x="313" y="741" type="curve"/>
      <point x="430" y="760" type="line"/>
      <point x="426" y="824" type="line"/>
      <point x="62" y="824" type="line"/>
      <point x="59" y="762" type="line"/>
      <point x="147" y="741" type="line"/>
      <point x="150" y="729"/>
      <point x="152" y="646"/>
      <point x="152" y="529" type="curve" smooth="yes"/>
      <point x="152" y="292" type="line" smooth="yes"/>
      <point x="152" y="176"/>
      <point x="150" y="94"/>
      <point x="147" y="80" type="curve"/>
      <point x="59" y="60" type="line"/>
      <point x="62" y="0" type="line"/>
      <point x="500" y="0" type="line"/>
      <point x="542" y="0"/>
      <point x="620" y="-2"/>
    </contour>
  </outline>
</glyph>
<glyph name="M" format="2">
  <advance width="1218"/>
  <unicode hex="004D"/>
  <note>
M
</note>
  <anchor x="582" y="824" name="above"/>
  <anchor x="582" y="0" name="below"/>
  <outline>
    <contour>
      <point x="73" y="824" type="line"/>
      <point x="68" y="762" type="line"/>
      <point x="155" y="742" type="line"/>
      <point x="155" y="715"/>
      <point x="157" y="651"/>
      <point x="155" y="558" type="curve" smooth="yes"/>
      <point x="151" y="285" type="line" smooth="yes"/>
      <point x="150" y="179"/>
      <point x="148" y="100"/>
      <point x="146" y="80" type="curve"/>
      <point x="48" y="60" type="line"/>
      <point x="53" y="0" type="line"/>
      <point x="343" y="0" type="line"/>
      <point x="347" y="60" type="line"/>
      <point x="251" y="80" type="line"/>
      <point x="249" y="95"/>
      <point x="247" y="153"/>
      <point x="247" y="304" type="curve" smooth="yes"/>
      <point x="246" y="784" type="line"/>
      <point x="187" y="784" type="line"/>
      <point x="547" y="-3" type="line"/>
      <point x="613" y="-3" type="line"/>
      <point x="951" y="783" type="line"/>
      <point x="903" y="783" type="line"/>
      <point x="905" y="294" type="line" smooth="yes"/>
      <point x="906" y="159"/>
      <point x="906" y="103"/>
      <point x="905" y="80" type="curve"/>
      <point x="817" y="60" type="line"/>
      <point x="821" y="0" type="line"/>
      <point x="1157" y="0" type="line"/>
      <point x="1160" y="60" type="line"/>
      <point x="1072" y="80" type="line"/>
      <point x="1069" y="101"/>
      <point x="1066" y="177"/>
      <point x="1061" y="307" type="curve"/>
      <point x="1054" y="560" type="line" smooth="yes"/>
      <point x="1053" y="649"/>
      <point x="1051" y="720"/>
      <point x="1053" y="743" type="curve"/>
      <point x="1140" y="762" type="line"/>
      <point x="1136" y="824" type="line"/>
      <point x="878" y="824" type="line"/>
      <point x="601" y="174" type="line"/>
      <point x="632" y="174" type="line"/>
      <point x="338" y="824" type="line"/>
    </contour>
  </outline>
</glyph>
<glyph name="N" format="2">
  <advance width="960"/>
  <unicode hex="004E"/>
  <note>
N
</note>
  <anchor x="480" y="824" name="above"/>
  <anchor x="480" y="0" name="below"/>
  <outline>
    <contour>
      <point x="716" y="226" type="line"/>
      <point x="756" y="226" type="line"/>
      <point x="268" y="824" type="line"/>
      <point x="62" y="824" type="line"/>
      <point x="58" y="762" type="line"/>
      <point x="145" y="742" type="line"/>
      <point x="149" y="728"/>
      <point x="154" y="657"/>
      <point x="154" y="553" type="curve" smooth="yes"/>
      <point x="154" y="336" type="line" smooth="yes"/>
      <point x="154" y="179"/>
      <point x="150" y="94"/>
      <point x="145" y="80" type="curve"/>
      <point x="58" y="60" type="line"/>
      <point x="62" y="0" type="line"/>
      <point x="347" y="0" type="line"/>
      <point x="351" y="60" type="line"/>
      <point x="254" y="80" type="line"/>
      <point x="250" y="94"/>
      <point x="246" y="175"/>
      <point x="246" y="336" type="curve" smooth="yes"/>
      <point x="246" y="670" type="line"/>
      <point x="195" y="668" type="line"/>
      <point x="734" y="-5" type="line"/>
      <point x="807" y="-5" type="line"/>
      <point x="807" y="59"/>
      <point x="805" y="121"/>
      <point x="805" y="192" type="curve" smooth="yes"/>
      <point x="805" y="497" type="line" smooth="yes"/>
      <point x="805" y="648"/>
      <point x="811" y="732"/>
      <point x="814" y="742" type="curve"/>
      <point x="901" y="762" type="line"/>
      <point x="898" y="824" type="line"/>
      <point x="616" y="824" type="line"/>
      <point x="613" y="762" type="line"/>
      <point x="708" y="742" type="line"/>
      <point x="713" y="732"/>
      <point x="716" y="648"/>
      <point x="716" y="497" type="curve" smooth="yes"/>
    </contour>
  </outline>
</glyph>
<glyph name="O" format="2">
  <advance width="975"/>
  <unicode hex="004F"/>
  <note>
O
</note>
  <anchor x="487" y="824" name="above"/>
  <anchor x="487" y="0" name="below"/>
  <anchor x="487" y="412" name="center"/>
  <anchor x="591" y="0" name="ogonek"/>
  <anchor x="22" y="824" name="topleft"/>
  <anchor x="952" y="824" name="topright"/>
  <outline>
    <contour>
      <point x="495" y="-12" type="curve" smooth="yes"/>
      <point x="700" y="-12"/>
      <point x="909" y="151"/>
      <point x="909" y="419" type="curve" smooth="yes"/>
      <point x="909" y="665"/>
      <point x="740" y="836"/>
      <point x="497" y="836" type="curve" smooth="yes"/>
      <point x="248" y="836"/>
      <point x="66" y="653"/>
      <point x="66" y="405" type="curve" smooth="yes"/>
      <point x="66" y="159"/>
      <point x="244" y="-12"/>
    </contour>
    <contour>
      <point x="507" y="76" type="curve" smooth="yes"/>
      <point x="354" y="76"/>
      <point x="246" y="225"/>
      <point x="246" y="437" type="curve" smooth="yes"/>
      <point x="246" y="635"/>
      <point x="336" y="756"/>
      <point x="480" y="756" type="curve" smooth="yes"/>
      <point x="632" y="756"/>
      <point x="732" y="607"/>
      <point x="732" y="384" type="curve" smooth="yes"/>
      <point x="732" y="192"/>
      <point x="650" y="76"/>
    </contour>
  </outline>
</glyph>
<glyph name="P" format="2">
  <advance width="753"/>
  <unicode hex="0050"/>
  <note>
P
</note>
  <anchor x="376" y="824" name="above"/>
  <anchor x="229" y="0" name="below"/>
  <outline>
    <contour>
      <point x="66" y="0" type="line"/>
      <point x="422" y="0" type="line"/>
      <point x="426" y="63" type="line"/>
      <point x="311" y="82" type="line"/>
      <point x="310" y="93"/>
      <point x="304" y="154"/>
      <point x="304" y="285" type="curve"/>
      <point x="303" y="543" type="line"/>
      <point x="303" y="654"/>
      <point x="303" y="735"/>
      <point x="305" y="754" type="curve"/>
      <point x="364" y="754" type="line" smooth="yes"/>
      <point x="469" y="754"/>
      <point x="542" y="695"/>
      <point x="542" y="566" type="curve" smooth="yes"/>
      <point x="542" y="453"/>
      <point x="483" y="398"/>
      <point x="383" y="398" type="curve" smooth="yes"/>
      <point x="346" y="398"/>
      <point x="315" y="405"/>
      <point x="283" y="416" type="curve"/>
      <point x="283" y="330" type="line"/>
      <point x="312" y="325"/>
      <point x="347" y="321"/>
      <point x="385" y="321" type="curve" smooth="yes"/>
      <point x="571" y="321"/>
      <point x="702" y="429"/>
      <point x="702" y="584" type="curve" smooth="yes"/>
      <point x="702" y="739"/>
      <point x="592" y="824"/>
      <point x="387" y="824" type="curve" smooth="yes"/>
      <point x="62" y="824" type="line"/>
      <point x="58" y="762" type="line"/>
      <point x="145" y="743" type="line"/>
      <point x="148" y="733"/>
      <point x="153" y="668"/>
      <point x="153" y="543" type="curve"/>
      <point x="151" y="285" type="line"/>
      <point x="151" y="154"/>
      <point x="148" y="91"/>
      <point x="143" y="80" type="curve"/>
      <point x="62" y="60" type="line"/>
    </contour>
  </outline>
</glyph>
<glyph name="Q" format="2">
  <advance width="975"/>
  <unicode hex="0051"/>
  <note>
Q
</note>
  <anchor x="487" y="824" name="above"/>
  <outline>
    <contour>
      <point x="495" y="-10" type="curve"/>
      <point x="512" y="-7" type="line"/>
      <point x="706" y="-7"/>
      <point x="909" y="154"/>
      <point x="909" y="419" type="curve" smooth="yes"/>
      <point x="909" y="665"/>
      <point x="740" y="836"/>
      <point x="497" y="836" type="curve" smooth="yes"/>
      <point x="248" y="836"/>
      <point x="66" y="653"/>
      <point x="66" y="405" type="curve" smooth="yes"/>
      <point x="66" y="159"/>
      <point x="244" y="-10"/>
    </contour>
    <contour>
      <point x="847" y="-197" type="curve" smooth="yes"/>
      <point x="921" y="-197"/>
      <point x="989" y="-176"/>
      <point x="1038" y="-145" type="curve"/>
      <point x="1021" y="-82" type="line"/>
      <point x="990" y="-92"/>
      <point x="959" y="-94"/>
      <point x="933" y="-94" type="curve" smooth="yes"/>
      <point x="876" y="-94"/>
      <point x="829" y="-81"/>
      <point x="769" y="-46" type="curve" smooth="yes"/>
      <point x="703" y="-9"/>
      <point x="632" y="8"/>
      <point x="557" y="10" type="curve"/>
      <point x="379" y="10" type="line"/>
      <point x="434" y="-6"/>
      <point x="509" y="-62"/>
      <point x="573" y="-106" type="curve" smooth="yes"/>
      <point x="654" y="-164"/>
      <point x="731" y="-197"/>
    </contour>
    <contour>
      <point x="507" y="76" type="curve" smooth="yes"/>
      <point x="354" y="76"/>
      <point x="246" y="225"/>
      <point x="246" y="437" type="curve" smooth="yes"/>
      <point x="246" y="635"/>
      <point x="336" y="756"/>
      <point x="480" y="756" type="curve" smooth="yes"/>
      <point x="632" y="756"/>
      <point x="732" y="607"/>
      <point x="732" y="384" type="curve" smooth="yes"/>
      <point x="732" y="190"/>
      <point x="649" y="76"/>
    </contour>
  </outline>
</glyph>
<glyph name="R" format="2">
  <advance width="831"/>
  <unicode hex="0052"/>
  <note>
R
</note>
  <anchor x="396" y="824" name="above"/>
  <anchor x="450" y="0" name="below"/>
  <outline>
    <contour>
      <point x="65" y="0" type="line"/>
      <point x="386" y="0" type="line"/>
      <point x="390" y="60" type="line"/>
      <point x="309" y="82" type="line"/>
      <point x="305" y="112"/>
      <point x="302" y="190"/>
      <point x="302" y="292" type="curve" smooth="yes"/>
      <point x="302" y="546" type="line" smooth="yes"/>
      <point x="302" y="689"/>
      <point x="303" y="743"/>
      <point x="305" y="754" type="curve"/>
      <point x="374" y="754" type="line" smooth="yes"/>
      <point x="472" y="754"/>
      <point x="526" y="704"/>
      <point x="526" y="610" type="curve" smooth="yes"/>
      <point x="526" y="510"/>
      <point x="461" y="448"/>
      <point x="356" y="448" type="curve" smooth="yes"/>
      <point x="285" y="448" type="line"/>
      <point x="285" y="378" type="line"/>
      <point x="373" y="378" type="line" smooth="yes"/>
      <point x="556" y="378"/>
      <point x="685" y="477"/>
      <point x="685" y="617" type="curve" smooth="yes"/>
      <point x="685" y="755"/>
      <point x="587" y="824"/>
      <point x="393" y="824" type="curve" smooth="yes"/>
      <point x="61" y="824" type="line"/>
      <point x="56" y="762" type="line"/>
      <point x="145" y="742" type="line"/>
      <point x="150" y="731"/>
      <point x="153" y="652"/>
      <point x="153" y="529" type="curve" smooth="yes"/>
      <point x="153" y="292" type="line" smooth="yes"/>
      <point x="153" y="210"/>
      <point x="150" y="107"/>
      <point x="150" y="82" type="curve"/>
      <point x="62" y="60" type="line"/>
    </contour>
    <contour>
      <point x="762" y="-14" type="curve" smooth="yes"/>
      <point x="786" y="-14"/>
      <point x="810" y="-12"/>
      <point x="834" y="-7" type="curve"/>
      <point x="835" y="47" type="line"/>
      <point x="764" y="63"/>
      <point x="713" y="102"/>
      <point x="643" y="203" type="curve" smooth="yes"/>
      <point x="485" y="430" type="line"/>
      <point x="358" y="400" type="line"/>
      <point x="446" y="228" type="line" smooth="yes"/>
      <point x="537" y="50"/>
      <point x="623" y="-14"/>
    </contour>
  </outline>
</glyph>
<glyph name="S" format="2">
  <advance width="691"/>
  <unicode hex="0053"/>
  <note>
S
</note>
  <anchor x="352" y="824" name="above"/>
  <anchor x="352" y="0" name="below"/>
  <outline>
    <contour>
      <point x="320" y="-12" type="curve" smooth="yes"/>
      <point x="513" y="-12"/>
      <point x="645" y="87"/>
      <point x="645" y="227" type="curve" smooth="yes"/>
      <point x="645" y="487"/>
      <point x="232" y="448"/>
      <point x="232" y="643" type="curve" smooth="yes"/>
      <point x="232" y="716"/>
      <point x="292" y="762"/>
      <point x="378" y="762" type="curve" smooth="yes"/>
      <point x="422" y="762"/>
      <point x="455" y="754"/>
      <point x="487" y="736" type="curve"/>
      <point x="529" y="609" type="line"/>
      <point x="603" y="614" type="line"/>
      <point x="590" y="803" type="line"/>
      <point x="539" y="826"/>
      <point x="463" y="838"/>
      <point x="394" y="838" type="curve" smooth="yes"/>
      <point x="204" y="838"/>
      <point x="75" y="741"/>
      <point x="75" y="597" type="curve" smooth="yes"/>
      <point x="75" y="323"/>
      <point x="482" y="375"/>
      <point x="482" y="180" type="curve" smooth="yes"/>
      <point x="482" y="109"/>
      <point x="430" y="66"/>
      <point x="339" y="66" type="curve" smooth="yes"/>
      <point x="286" y="66"/>
      <point x="231" y="82"/>
      <point x="188" y="109" type="curve"/>
      <point x="145" y="243" type="line"/>
      <point x="72" y="238" type="line"/>
      <point x="79" y="43" type="line"/>
      <point x="138" y="9"/>
      <point x="239" y="-12"/>
    </contour>
  </outline>
</glyph>
<glyph name="T" format="2">
  <advance width="815"/>
  <unicode hex="0054"/>
  <note>
T
</note>
  <anchor x="407" y="824" name="above"/>
  <anchor x="407" y="0" name="below"/>
  <anchor x="407" y="425" name="stroke"/>
  <outline>
    <contour>
      <point x="760" y="829" type="line"/>
      <point x="716" y="827"/>
      <point x="644" y="824"/>
      <point x="597" y="824" type="curve" smooth="yes"/>
      <point x="215" y="824" type="line" smooth="yes"/>
      <point x="168" y="824"/>
      <point x="94" y="827"/>
      <point x="51" y="829" type="curve"/>
      <point x="22" y="592" type="line"/>
      <point x="95" y="583" type="line"/>
      <point x="151" y="746" type="line"/>
      <point x="168" y="748"/>
      <point x="189" y="750"/>
      <point x="209" y="750" type="curve" smooth="yes"/>
      <point x="260" y="750" type="line" smooth="yes"/>
      <point x="280" y="750"/>
      <point x="310" y="750"/>
      <point x="328" y="748" type="curve"/>
      <point x="330" y="728"/>
      <point x="330" y="595"/>
      <point x="330" y="483" type="curve" smooth="yes"/>
      <point x="330" y="320" type="line" smooth="yes"/>
      <point x="330" y="206"/>
      <point x="327" y="114"/>
      <point x="327" y="80" type="curve"/>
      <point x="207" y="63" type="line"/>
      <point x="211" y="0" type="line"/>
      <point x="603" y="0" type="line"/>
      <point x="608" y="63" type="line"/>
      <point x="488" y="80" type="line"/>
      <point x="486" y="114"/>
      <point x="484" y="206"/>
      <point x="484" y="320" type="curve" smooth="yes"/>
      <point x="484" y="483" type="line" smooth="yes"/>
      <point x="484" y="595"/>
      <point x="485" y="728"/>
      <point x="486" y="748" type="curve"/>
      <point x="506" y="750"/>
      <point x="536" y="750"/>
      <point x="555" y="750" type="curve" smooth="yes"/>
      <point x="605" y="750" type="line" smooth="yes"/>
      <point x="624" y="750"/>
      <point x="644" y="748"/>
      <point x="662" y="746" type="curve"/>
      <point x="720" y="587" type="line"/>
      <point x="791" y="594" type="line"/>
    </contour>
  </outline>
</glyph>
<glyph name="U" format="2">
  <advance width="954"/>
  <unicode hex="0055"/>
  <note>
U
</note>
  <anchor x="505" y="824" name="above"/>
  <anchor x="504" y="0" name="below"/>
  <anchor x="590" y="0" name="ogonek"/>
  <anchor x="916" y="824" name="topright"/>
  <outline>
    <contour>
      <point x="57" y="824" type="line"/>
      <point x="54" y="762" type="line"/>
      <point x="141" y="741" type="line"/>
      <point x="143" y="733"/>
      <point x="147" y="667"/>
      <point x="147" y="529" type="curve" smooth="yes"/>
      <point x="147" y="325" type="line" smooth="yes"/>
      <point x="147" y="109"/>
      <point x="272" y="-12"/>
      <point x="490" y="-12" type="curve" smooth="yes"/>
      <point x="678" y="-12"/>
      <point x="807" y="106"/>
      <point x="807" y="337" type="curve" smooth="yes"/>
      <point x="807" y="504" type="line" smooth="yes"/>
      <point x="807" y="655"/>
      <point x="811" y="733"/>
      <point x="813" y="741" type="curve"/>
      <point x="901" y="762" type="line"/>
      <point x="896" y="824" type="line"/>
      <point x="606" y="824" type="line"/>
      <point x="602" y="762" type="line"/>
      <point x="700" y="741" type="line"/>
      <point x="704" y="728"/>
      <point x="708" y="634"/>
      <point x="708" y="504" type="curve" smooth="yes"/>
      <point x="708" y="352" type="line" smooth="yes"/>
      <point x="708" y="172"/>
      <point x="635" y="97"/>
      <point x="510" y="97" type="curve" smooth="yes"/>
      <point x="379" y="97"/>
      <point x="301" y="173"/>
      <point x="301" y="346" type="curve"/>
      <point x="301" y="529" type="line"/>
      <point x="299" y="664"/>
      <point x="304" y="720"/>
      <point x="305" y="741" type="curve"/>
      <point x="394" y="762" type="line"/>
      <point x="390" y="824" type="line"/>
    </contour>
  </outline>
</glyph>
<glyph name="V" format="2">
  <advance width="837"/>
  <unicode hex="0056"/>
  <note>
V
</note>
  <anchor x="411" y="824" name="above"/>
  <anchor x="411" y="0" name="below"/>
  <outline>
    <contour>
      <point x="381" y="-3" type="line"/>
      <point x="448" y="-3" type="line"/>
      <point x="770" y="742" type="line"/>
      <point x="840" y="764" type="line"/>
      <point x="837" y="824" type="line"/>
      <point x="565" y="824" type="line"/>
      <point x="560" y="762" type="line"/>
      <point x="659" y="742" type="line"/>
      <point x="439" y="160" type="line"/>
      <point x="480" y="160" type="line"/>
      <point x="243" y="742" type="line"/>
      <point x="330" y="762" type="line"/>
      <point x="325" y="824" type="line"/>
      <point x="0" y="824" type="line"/>
      <point x="-3" y="764" type="line"/>
      <point x="67" y="742" type="line"/>
    </contour>
  </outline>
</glyph>
<glyph name="W" format="2">
  <advance width="1342"/>
  <unicode hex="0057"/>
  <note>
W
</note>
  <anchor x="675" y="824" name="above"/>
  <anchor x="675" y="0" name="below"/>
  <outline>
    <contour>
      <point x="689" y="590" type="line"/>
      <point x="640" y="708" type="line"/>
      <point x="428" y="160" type="line"/>
      <point x="477" y="160" type="line"/>
      <point x="250" y="742" type="line"/>
      <point x="321" y="762" type="line"/>
      <point x="317" y="824" type="line"/>
      <point x="6" y="824" type="line"/>
      <point x="4" y="762" type="line"/>
      <point x="74" y="742" type="line"/>
      <point x="378" y="-3" type="line"/>
      <point x="444" y="-3" type="line"/>
    </contour>
    <contour>
      <point x="891" y="-3" type="line"/>
      <point x="958" y="-3" type="line"/>
      <point x="1267" y="742" type="line"/>
      <point x="1339" y="762" type="line"/>
      <point x="1334" y="824" type="line"/>
      <point x="1063" y="824" type="line"/>
      <point x="1059" y="762" type="line"/>
      <point x="1157" y="742" type="line"/>
      <point x="943" y="160" type="line"/>
      <point x="985" y="160" type="line"/>
      <point x="758" y="742" type="line"/>
      <point x="845" y="762" type="line"/>
      <point x="841" y="824" type="line"/>
      <point x="520" y="824" type="line"/>
      <point x="516" y="762" type="line"/>
      <point x="588" y="742" type="line"/>
    </contour>
  </outline>
</glyph>
<glyph name="X" format="2">
  <advance width="832"/>
  <unicode hex="0058"/>
  <note>
X
</note>
  <anchor x="409" y="824" name="above"/>
  <anchor x="409" y="0" name="below"/>
  <outline>
    <contour>
      <point x="825" y="0" type="line"/>
      <point x="829" y="60" type="line"/>
      <point x="757" y="82" type="line"/>
      <point x="486" y="463" type="line"/>
      <point x="440" y="529" type="line"/>
      <point x="289" y="742" type="line"/>
      <point x="368" y="762" type="line"/>
      <point x="365" y="824" type="line"/>
      <point x="34" y="824" type="line"/>
      <point x="30" y="762" type="line"/>
      <point x="102" y="742" type="line"/>
      <point x="338" y="408" type="line"/>
      <point x="389" y="340" type="line"/>
      <point x="570" y="82" type="line"/>
      <point x="484" y="60" type="line"/>
      <point x="487" y="0" type="line"/>
    </contour>
    <contour>
      <point x="589" y="742" type="line"/>
      <point x="440" y="529" type="line"/>
      <point x="338" y="408" type="line"/>
      <point x="95" y="82" type="line"/>
      <point x="23" y="60" type="line"/>
      <point x="26" y="0" type="line"/>
      <point x="300" y="0" type="line"/>
      <point x="303" y="60" type="line"/>
      <point x="208" y="82" type="line"/>
      <point x="389" y="340" type="line"/>
      <point x="486" y="463" type="line"/>
      <point x="702" y="742" type="line"/>
      <point x="773" y="762" type="line"/>
      <point x="771" y="824" type="line"/>
      <point x="505" y="824" type="line"/>
      <point x="502" y="762" type="line"/>
    </contour>
  </outline>
</glyph>
<glyph name="Z" format="2">
  <advance width="759"/>
  <unicode hex="005A"/>
  <note>
Z
</note>
  <anchor x="378" y="824" name="above"/>
  <anchor x="378" y="0" name="below"/>
  <outline>
    <contour>
      <point x="693" y="-5" type="curve"/>
      <point x="730" y="232" type="line"/>
      <point x="659" y="241" type="line"/>
      <point x="601" y="83" type="line"/>
      <point x="581" y="80"/>
      <point x="565" y="79"/>
      <point x="541" y="79" type="curve" smooth="yes"/>
      <point x="240" y="79" type="line"/>
      <point x="240" y="25" type="line"/>
      <point x="687" y="766" type="line"/>
      <point x="687" y="826" type="line"/>
      <point x="652" y="825"/>
      <point x="615" y="824"/>
      <point x="580" y="824" type="curve" smooth="yes"/>
      <point x="188" y="824" type="line" smooth="yes"/>
      <point x="153" y="824"/>
      <point x="105" y="824"/>
      <point x="62" y="825" type="curve"/>
      <point x="64" y="601" type="line"/>
      <point x="135" y="601" type="line"/>
      <point x="159" y="743" type="line"/>
      <point x="185" y="747"/>
      <point x="213" y="750"/>
      <point x="260" y="750" type="curve" smooth="yes"/>
      <point x="542" y="750" type="line"/>
      <point x="541" y="802" type="line"/>
      <point x="87" y="56" type="line"/>
      <point x="87" y="-2" type="line"/>
      <point x="122" y="0"/>
      <point x="154" y="0"/>
      <point x="192" y="0" type="curve" smooth="yes"/>
      <point x="533" y="0" type="line" smooth="yes"/>
      <point x="579" y="0"/>
      <point x="650" y="-3"/>
    </contour>
  </outline>
</glyph>
<glyph name="bracketleft" format="2">
  <advance width="469"/>
  <unicode hex="005B"/>
  <note>
bracketleft
</note>
  <outline>
    <contour>
      <point x="416" y="-308" type="line"/>
      <point x="416" y="-234" type="line"/>
      <point x="278" y="-234" type="line"/>
      <point x="278" y="939" type="line"/>
      <point x="416" y="939" type="line"/>
      <point x="416" y="1013" type="line"/>
      <point x="139" y="1013" type="line"/>
      <point x="139" y="-308" type="line"/>
    </contour>
  </outline>
</glyph>
<glyph name="backslash" format="2">
  <advance width="545"/>
  <unicode hex="005C"/>
  <note>
backslash
</note>
  <outline>
    <contour>
      <point x="511" y="-252" type="line"/>
      <point x="88" y="1022" type="line"/>
      <point x="-21" y="1022" type="line"/>
      <point x="399" y="-252" type="line"/>
    </contour>
  </outline>
</glyph>
<glyph name="bracketright" format="2">
  <advance width="469"/>
  <unicode hex="005D"/>
  <note>
bracketright
</note>
  <outline>
    <contour>
      <point x="53" y="-308" type="line"/>
      <point x="330" y="-308" type="line"/>
      <point x="330" y="1013" type="line"/>
      <point x="53" y="1013" type="line"/>
      <point x="53" y="939" type="line"/>
      <point x="189" y="939" type="line"/>
      <point x="189" y="-234" type="line"/>
      <point x="53" y="-234" type="line"/>
    </contour>
  </outline>
</glyph>
<glyph name="asciicircum" format="2">
  <advance width="757"/>
  <unicode hex="005E"/>
  <outline>
    <contour>
      <point x="432" y="786" type="line"/>
      <point x="327" y="786" type="line"/>
      <point x="63" y="177" type="line"/>
      <point x="171" y="177" type="line"/>
      <point x="413" y="740" type="line"/>
      <point x="344" y="740" type="line"/>
      <point x="586" y="177" type="line"/>
      <point x="695" y="177" type="line"/>
    </contour>
  </outline>
</glyph>
<glyph name="underscore" format="2">
  <advance width="615"/>
  <unicode hex="005F"/>
  <note>
underscore
</note>
  <outline>
    <contour>
      <point x="32" y="-91" type="line"/>
      <point x="583" y="-91" type="line"/>
      <point x="583" y="0" type="line"/>
      <point x="32" y="0" type="line"/>
    </contour>
  </outline>
</glyph>
<glyph name="a" format="2">
  <advance width="680"/>
  <unicode hex="0061"/>
  <note>
a
</note>
  <anchor x="331" y="609" name="above"/>
  <anchor x="345" y="0" name="below"/>
  <anchor x="611" y="0" name="ogonek"/>
  <outline>
    <contour>
      <point x="268" y="-10" type="curve" smooth="yes"/>
      <point x="326" y="-10"/>
      <point x="385" y="25"/>
      <point x="445" y="96" type="curve"/>
      <point x="420" y="100" type="line"/>
      <point x="439" y="39" type="line" smooth="yes"/>
      <point x="451" y="5"/>
      <point x="473" y="-10"/>
      <point x="505" y="-10" type="curve" smooth="yes"/>
      <point x="525" y="-10"/>
      <point x="550" y="-3"/>
      <point x="580" y="7" type="curve" smooth="yes"/>
      <point x="658" y="38" type="line"/>
      <point x="658" y="89" type="line"/>
      <point x="569" y="106" type="line"/>
      <point x="561" y="123"/>
      <point x="558" y="157"/>
      <point x="558" y="200" type="curve"/>
      <point x="562" y="416" type="line"/>
      <point x="561" y="538"/>
      <point x="464" y="620"/>
      <point x="313" y="620" type="curve"/>
      <point x="218" y="606"/>
      <point x="72" y="525"/>
      <point x="72" y="461" type="curve" smooth="yes"/>
      <point x="72" y="408"/>
      <point x="132" y="383"/>
      <point x="211" y="401" type="curve"/>
      <point x="215" y="472" type="line" smooth="yes"/>
      <point x="219" y="521"/>
      <point x="230" y="535"/>
      <point x="270" y="535" type="curve" smooth="yes"/>
      <point x="349" y="535"/>
      <point x="416" y="479"/>
      <point x="416" y="414" type="curve" smooth="yes"/>
      <point x="416" y="352" type="line"/>
      <point x="200" y="283" type="line" smooth="yes"/>
      <point x="107" y="254"/>
      <point x="69" y="214"/>
      <point x="69" y="149" type="curve" smooth="yes"/>
      <point x="69" y="76"/>
      <point x="147" y="-10"/>
    </contour>
    <contour>
      <point x="322" y="90" type="curve" smooth="yes"/>
      <point x="268" y="90"/>
      <point x="224" y="133"/>
      <point x="224" y="179" type="curve" smooth="yes"/>
      <point x="224" y="216"/>
      <point x="242" y="239"/>
      <point x="287" y="250" type="curve" smooth="yes"/>
      <point x="417" y="281" type="line"/>
      <point x="417" y="137" type="line"/>
      <point x="388" y="106"/>
      <point x="357" y="90"/>
    </contour>
  </outline>
</glyph>
<glyph name="b" format="2">
  <advance width="758"/>
  <unicode hex="0062"/>
  <note>
b
</note>
  <anchor x="378" y="926" name="above"/>
  <anchor x="378" y="0" name="below"/>
  <outline>
    <contour>
      <point x="103" y="38" type="curve"/>
      <point x="175" y="7"/>
      <point x="257" y="-10"/>
      <point x="343" y="-10" type="curve" smooth="yes"/>
      <point x="552" y="-10"/>
      <point x="705" y="135"/>
      <point x="705" y="332" type="curve" smooth="yes"/>
      <point x="705" y="513"/>
      <point x="582" y="620"/>
      <point x="443" y="620" type="curve" smooth="yes"/>
      <point x="365" y="620"/>
      <point x="291" y="573"/>
      <point x="249" y="515" type="curve"/>
      <point x="244" y="516" type="line"/>
      <point x="249" y="740"/>
      <point x="250" y="836"/>
      <point x="256" y="954" type="curve"/>
      <point x="223" y="976" type="line"/>
      <point x="-4" y="914" type="line"/>
      <point x="-1" y="861" type="line"/>
      <point x="101" y="849" type="line"/>
      <point x="104" y="811"/>
      <point x="107" y="656"/>
      <point x="107" y="508" type="curve"/>
      <point x="107" y="299" type="line"/>
      <point x="107" y="209"/>
      <point x="107" y="134"/>
    </contour>
    <contour>
      <point x="375" y="74" type="curve" smooth="yes"/>
      <point x="324" y="74"/>
      <point x="279" y="90"/>
      <point x="247" y="115" type="curve"/>
      <point x="247" y="444" type="line"/>
      <point x="280" y="487"/>
      <point x="329" y="508"/>
      <point x="379" y="508" type="curve" smooth="yes"/>
      <point x="473" y="508"/>
      <point x="551" y="444"/>
      <point x="550" y="301" type="curve" smooth="yes"/>
      <point x="548" y="149"/>
      <point x="475" y="74"/>
    </contour>
  </outline>
</glyph>
<glyph name="c" format="2">
  <advance width="617"/>
  <unicode hex="0063"/>
  <note>
c
</note>
  <anchor x="354" y="609" name="above"/>
  <anchor x="354" y="0" name="below"/>
  <outline>
    <contour>
      <point x="354" y="-10" type="curve" smooth="yes"/>
      <point x="460" y="-10"/>
      <point x="549" y="40"/>
      <point x="602" y="146" type="curve"/>
      <point x="562" y="182" type="line"/>
      <point x="515" y="123"/>
      <point x="465" y="101"/>
      <point x="401" y="101" type="curve" smooth="yes"/>
      <point x="293" y="101"/>
      <point x="210" y="180"/>
      <point x="210" y="327" type="curve" smooth="yes"/>
      <point x="210" y="492"/>
      <point x="313" y="569"/>
      <point x="412" y="549" type="curve"/>
      <point x="353" y="564" type="line"/>
      <point x="438" y="483" type="line" smooth="yes"/>
      <point x="471" y="452"/>
      <point x="491" y="441"/>
      <point x="525" y="441" type="curve" smooth="yes"/>
      <point x="562" y="441"/>
      <point x="587" y="464"/>
      <point x="587" y="503" type="curve" smooth="yes"/>
      <point x="587" y="565"/>
      <point x="507" y="620"/>
      <point x="384" y="620" type="curve" smooth="yes"/>
      <point x="193" y="620"/>
      <point x="53" y="472"/>
      <point x="53" y="291" type="curve" smooth="yes"/>
      <point x="53" y="106"/>
      <point x="188" y="-10"/>
    </contour>
  </outline>
</glyph>
<glyph name="d" format="2">
  <advance width="769"/>
  <unicode hex="0064"/>
  <note>
d
</note>
  <anchor x="386" y="926" name="above"/>
  <anchor x="406" y="0" name="below"/>
  <anchor x="386" y="303" name="center"/>
  <anchor x="494" y="727" name="stroke"/>
  <anchor x="700" y="966" name="topright"/>
  <outline>
    <contour>
      <point x="535" y="-15" type="line"/>
      <point x="744" y="37" type="line"/>
      <point x="744" y="88" type="line"/>
      <point x="652" y="111" type="line"/>
      <point x="649" y="143"/>
      <point x="643" y="206"/>
      <point x="643" y="301" type="curve"/>
      <point x="644" y="625" type="line" smooth="yes"/>
      <point x="644" y="740"/>
      <point x="648" y="838"/>
      <point x="653" y="954" type="curve"/>
      <point x="622" y="976" type="line"/>
      <point x="388" y="914" type="line"/>
      <point x="391" y="861" type="line"/>
      <point x="498" y="843" type="line"/>
      <point x="501" y="807"/>
      <point x="504" y="657"/>
      <point x="504" y="589" type="curve"/>
      <point x="472" y="609"/>
      <point x="421" y="619"/>
      <point x="377" y="619" type="curve" smooth="yes"/>
      <point x="213" y="619"/>
      <point x="51" y="488"/>
      <point x="51" y="282" type="curve" smooth="yes"/>
      <point x="51" y="108"/>
      <point x="174" y="-11"/>
      <point x="329" y="-11" type="curve" smooth="yes"/>
      <point x="392" y="-11"/>
      <point x="451" y="16"/>
      <point x="504" y="95" type="curve"/>
      <point x="508" y="93" type="line"/>
      <point x="506" y="2" type="line"/>
    </contour>
    <contour>
      <point x="379" y="100" type="curve" smooth="yes"/>
      <point x="283" y="100"/>
      <point x="206" y="181"/>
      <point x="206" y="325" type="curve" smooth="yes"/>
      <point x="206" y="459"/>
      <point x="274" y="547"/>
      <point x="379" y="547" type="curve" smooth="yes"/>
      <point x="424" y="547"/>
      <point x="474" y="527"/>
      <point x="505" y="476" type="curve"/>
      <point x="505" y="170" type="line"/>
      <point x="465" y="118"/>
      <point x="422" y="100"/>
    </contour>
  </outline>
</glyph>
<glyph name="e" format="2">
  <advance width="648"/>
  <unicode hex="0065"/>
  <note>
e
</note>
  <anchor x="344" y="609" name="above"/>
  <anchor x="344" y="0" name="below"/>
  <anchor x="527" y="0" name="ogonek"/>
  <outline>
    <contour>
      <point x="353" y="-10" type="curve" smooth="yes"/>
      <point x="462" y="-10"/>
      <point x="550" y="40"/>
      <point x="604" y="145" type="curve"/>
      <point x="565" y="181" type="line"/>
      <point x="516" y="122"/>
      <point x="467" y="100"/>
      <point x="402" y="100" type="curve" smooth="yes"/>
      <point x="283" y="100"/>
      <point x="202" y="189"/>
      <point x="202" y="332" type="curve" smooth="yes"/>
      <point x="202" y="355" type="line" smooth="yes"/>
      <point x="202" y="487"/>
      <point x="269" y="553"/>
      <point x="344" y="553" type="curve" smooth="yes"/>
      <point x="421" y="553"/>
      <point x="469" y="495"/>
      <point x="469" y="395" type="curve" smooth="yes"/>
      <point x="469" y="357" type="line"/>
      <point x="488" y="383" type="line"/>
      <point x="178" y="383" type="line"/>
      <point x="178" y="316" type="line"/>
      <point x="600" y="316" type="line"/>
      <point x="600" y="345" type="line" smooth="yes"/>
      <point x="600" y="512"/>
      <point x="512" y="619"/>
      <point x="355" y="620" type="curve" smooth="yes"/>
      <point x="198" y="621"/>
      <point x="54" y="490"/>
      <point x="54" y="294" type="curve" smooth="yes"/>
      <point x="54" y="111"/>
      <point x="182" y="-10"/>
    </contour>
  </outline>
</glyph>
<glyph name="f" format="2">
  <advance width="441"/>
  <unicode hex="0066"/>
  <note>
f
</note>
  <outline>
    <contour>
      <point x="384" y="0" type="line"/>
      <point x="389" y="57" type="line"/>
      <point x="273" y="79" type="line"/>
      <point x="270" y="133"/>
      <point x="267" y="230"/>
      <point x="267" y="318" type="curve"/>
      <point x="266" y="528" type="line"/>
      <point x="263" y="606" type="line"/>
      <point x="263" y="724" type="line" smooth="yes"/>
      <point x="263" y="854"/>
      <point x="299" y="925"/>
      <point x="362" y="925" type="curve"/>
      <point x="316" y="934" type="line"/>
      <point x="386" y="866" type="line" smooth="yes"/>
      <point x="413" y="843"/>
      <point x="434" y="833"/>
      <point x="460" y="833" type="curve" smooth="yes"/>
      <point x="493" y="833"/>
      <point x="516" y="852"/>
      <point x="516" y="885" type="curve" smooth="yes"/>
      <point x="516" y="939"/>
      <point x="453" y="980"/>
      <point x="369" y="980" type="curve" smooth="yes"/>
      <point x="225" y="980"/>
      <point x="125" y="856"/>
      <point x="125" y="675" type="curve" smooth="yes"/>
      <point x="125" y="528" type="line"/>
      <point x="126" y="311" type="line"/>
      <point x="126" y="167"/>
      <point x="126" y="126"/>
      <point x="123" y="79" type="curve"/>
      <point x="36" y="56" type="line"/>
      <point x="40" y="0" type="line"/>
    </contour>
    <contour>
      <point x="24" y="528" type="line"/>
      <point x="417" y="528" type="line"/>
      <point x="417" y="606" type="line"/>
      <point x="219" y="606" type="line"/>
      <point x="125" y="608" type="line"/>
      <point x="24" y="582" type="line"/>
    </contour>
  </outline>
</glyph>
<glyph name="g" format="2">
  <advance width="708"/>
  <unicode hex="0067"/>
  <note>
g
</note>
  <anchor x="343" y="609" name="above"/>
  <anchor x="349" y="-308" name="below"/>
  <outline>
    <contour>
      <point x="330" y="-319" type="curve" smooth="yes"/>
      <point x="520" y="-319"/>
      <point x="665" y="-218"/>
      <point x="665" y="-88" type="curve" smooth="yes"/>
      <point x="665" y="7"/>
      <point x="598" y="65"/>
      <point x="462" y="77" type="curve" smooth="yes"/>
      <point x="266" y="98" type="line" smooth="yes"/>
      <point x="231" y="100"/>
      <point x="210" y="117"/>
      <point x="210" y="141" type="curve" smooth="yes"/>
      <point x="210" y="159"/>
      <point x="225" y="175"/>
      <point x="254" y="196" type="curve"/>
      <point x="235" y="222" type="line"/>
      <point x="141" y="188"/>
      <point x="85" y="135"/>
      <point x="85" y="81" type="curve" smooth="yes"/>
      <point x="85" y="25"/>
      <point x="140" y="-13"/>
      <point x="220" y="-13" type="curve"/>
      <point x="238" y="-20" type="line"/>
      <point x="399" y="-34" type="line" smooth="yes"/>
      <point x="495" y="-42"/>
      <point x="532" y="-68"/>
      <point x="532" y="-124" type="curve" smooth="yes"/>
      <point x="532" y="-198"/>
      <point x="452" y="-252"/>
      <point x="340" y="-252" type="curve" smooth="yes"/>
      <point x="236" y="-252"/>
      <point x="175" y="-212"/>
      <point x="175" y="-143" type="curve" smooth="yes"/>
      <point x="175" y="-92"/>
      <point x="208" y="-47"/>
      <point x="262" y="-12" type="curve"/>
      <point x="205" y="-3" type="line"/>
      <point x="92" y="-49"/>
      <point x="35" y="-102"/>
      <point x="35" y="-165" type="curve" smooth="yes"/>
      <point x="35" y="-259"/>
      <point x="147" y="-319"/>
    </contour>
    <contour>
      <point x="339" y="169" type="curve" smooth="yes"/>
      <point x="491" y="169"/>
      <point x="603" y="264"/>
      <point x="603" y="394" type="curve" smooth="yes"/>
      <point x="603" y="523"/>
      <point x="492" y="620"/>
      <point x="342" y="620" type="curve" smooth="yes"/>
      <point x="189" y="620"/>
      <point x="72" y="521"/>
      <point x="72" y="385" type="curve" smooth="yes"/>
      <point x="72" y="258"/>
      <point x="181" y="169"/>
    </contour>
    <contour>
      <point x="348" y="237" type="curve" smooth="yes"/>
      <point x="275" y="237"/>
      <point x="225" y="301"/>
      <point x="225" y="397" type="curve" smooth="yes"/>
      <point x="225" y="490"/>
      <point x="272" y="554"/>
      <point x="340" y="554" type="curve" smooth="yes"/>
      <point x="412" y="554"/>
      <point x="460" y="487"/>
      <point x="460" y="386" type="curve" smooth="yes"/>
      <point x="460" y="294"/>
      <point x="416" y="237"/>
    </contour>
    <contour>
      <point x="685" y="506" type="line"/>
      <point x="685" y="606" type="line"/>
      <point x="456" y="581" type="line"/>
      <point x="507" y="521" type="line"/>
    </contour>
  </outline>
</glyph>
<glyph name="h" format="2">
  <advance width="795"/>
  <unicode hex="0068"/>
  <note>
h
</note>
  <anchor x="196" y="926" name="above"/>
  <anchor x="401" y="0" name="below"/>
  <anchor x="278" y="727" name="stroke"/>
  <outline>
    <contour>
      <point x="35" y="0" type="line"/>
      <point x="355" y="0" type="line"/>
      <point x="358" y="56" type="line"/>
      <point x="273" y="79" type="line"/>
      <point x="269" y="93"/>
      <point x="266" y="151"/>
      <point x="266" y="230" type="curve" smooth="yes"/>
      <point x="266" y="439" type="line"/>
      <point x="301" y="487"/>
      <point x="351" y="514"/>
      <point x="405" y="514" type="curve" smooth="yes"/>
      <point x="473" y="514"/>
      <point x="536" y="466"/>
      <point x="536" y="353" type="curve" smooth="yes"/>
      <point x="536" y="217" type="line" smooth="yes"/>
      <point x="536" y="151"/>
      <point x="532" y="101"/>
      <point x="529" y="79" type="curve"/>
      <point x="449" y="56" type="line"/>
      <point x="453" y="0" type="line"/>
      <point x="766" y="0" type="line"/>
      <point x="770" y="56" type="line"/>
      <point x="684" y="79" type="line"/>
      <point x="679" y="96"/>
      <point x="675" y="157"/>
      <point x="675" y="223" type="curve" smooth="yes"/>
      <point x="675" y="371" type="line" smooth="yes"/>
      <point x="675" y="536"/>
      <point x="579" y="620"/>
      <point x="470" y="620" type="curve" smooth="yes"/>
      <point x="393" y="620"/>
      <point x="329" y="587"/>
      <point x="267" y="515" type="curve"/>
      <point x="263" y="516" type="line"/>
      <point x="266" y="743"/>
      <point x="268" y="838"/>
      <point x="273" y="954" type="curve"/>
      <point x="241" y="976" type="line"/>
      <point x="12" y="914" type="line"/>
      <point x="15" y="861" type="line"/>
      <point x="119" y="847" type="line"/>
      <point x="123" y="800"/>
      <point x="126" y="635"/>
      <point x="126" y="507" type="curve" smooth="yes"/>
      <point x="126" y="331" type="line" smooth="yes"/>
      <point x="126" y="203"/>
      <point x="121" y="106"/>
      <point x="118" y="79" type="curve"/>
      <point x="31" y="56" type="line"/>
    </contour>
  </outline>
</glyph>
<glyph name="k" format="2">
  <advance width="728"/>
  <unicode hex="006B"/>
  <note>
k
</note>
  <anchor x="197" y="926" name="above"/>
  <anchor x="384" y="0" name="below"/>
  <outline>
    <contour>
      <point x="42" y="0" type="line"/>
      <point x="355" y="0" type="line"/>
      <point x="358" y="56" type="line"/>
      <point x="270" y="79" type="line"/>
      <point x="269" y="92"/>
      <point x="265" y="142"/>
      <point x="265" y="213" type="curve"/>
      <point x="266" y="545" type="line"/>
      <point x="266" y="738"/>
      <point x="268" y="836"/>
      <point x="275" y="954" type="curve"/>
      <point x="241" y="976" type="line"/>
      <point x="14" y="914" type="line"/>
      <point x="16" y="861" type="line"/>
      <point x="121" y="847" type="line"/>
      <point x="122" y="802"/>
      <point x="126" y="645"/>
      <point x="126" y="508" type="curve" smooth="yes"/>
      <point x="126" y="315" type="line" smooth="yes"/>
      <point x="126" y="207"/>
      <point x="122" y="107"/>
      <point x="118" y="79" type="curve"/>
      <point x="38" y="56" type="line"/>
    </contour>
    <contour>
      <point x="728" y="0" type="line"/>
      <point x="733" y="57" type="line"/>
      <point x="674" y="69" type="line"/>
      <point x="656" y="85"/>
      <point x="623" y="119"/>
      <point x="594" y="151" type="curve" smooth="yes"/>
      <point x="388" y="378" type="line"/>
      <point x="370" y="322" type="line"/>
      <point x="613" y="534" type="line"/>
      <point x="706" y="551" type="line"/>
      <point x="701" y="609" type="line"/>
      <point x="407" y="609" type="line"/>
      <point x="404" y="551" type="line"/>
      <point x="497" y="534" type="line"/>
      <point x="295" y="340" type="line"/>
      <point x="247" y="326" type="line"/>
      <point x="245" y="285" type="line"/>
      <point x="283" y="285" type="line"/>
      <point x="463" y="86" type="line" smooth="yes"/>
      <point x="484" y="63"/>
      <point x="503" y="41"/>
      <point x="535" y="0" type="curve"/>
    </contour>
  </outline>
</glyph>
<glyph name="l" format="2">
  <advance width="394"/>
  <unicode hex="006C"/>
  <note>
l
</note>
  <anchor x="197" y="926" name="above"/>
  <anchor x="197" y="0" name="below"/>
  <anchor x="197" y="484" name="center"/>
  <anchor x="422" y="484" name="dotacc"/>
  <anchor x="326" y="966" name="topright"/>
  <outline>
    <contour>
      <point x="31" y="0" type="line"/>
      <point x="363" y="0" type="line"/>
      <point x="366" y="57" type="line"/>
      <point x="275" y="79" type="line"/>
      <point x="270" y="99"/>
      <point x="268" y="199"/>
      <point x="268" y="320" type="curve"/>
      <point x="270" y="537" type="line" smooth="yes"/>
      <point x="270" y="740"/>
      <point x="272" y="835"/>
      <point x="277" y="954" type="curve"/>
      <point x="244" y="976" type="line"/>
      <point x="12" y="914" type="line"/>
      <point x="15" y="861" type="line"/>
      <point x="119" y="847" type="line"/>
      <point x="123" y="803"/>
      <point x="126" y="644"/>
      <point x="126" y="508" type="curve" smooth="yes"/>
      <point x="126" y="331" type="line" smooth="yes"/>
      <point x="126" y="203"/>
      <point x="121" y="105"/>
      <point x="118" y="79" type="curve"/>
      <point x="26" y="57" type="line"/>
    </contour>
  </outline>
</glyph>
<glyph name="m" format="2">
  <advance width="1182"/>
  <unicode hex="006D"/>
  <note>
m
</note>
  <anchor x="595" y="609" name="above"/>
  <anchor x="595" y="0" name="below"/>
  <outline>
    <contour>
      <point x="36" y="0" type="line"/>
      <point x="351" y="0" type="line"/>
      <point x="355" y="56" type="line"/>
      <point x="274" y="79" type="line"/>
      <point x="270" y="95"/>
      <point x="267" y="154"/>
      <point x="267" y="230" type="curve" smooth="yes"/>
      <point x="267" y="439" type="line"/>
      <point x="301" y="489"/>
      <point x="349" y="514"/>
      <point x="400" y="514" type="curve" smooth="yes"/>
      <point x="467" y="514"/>
      <point x="524" y="471"/>
      <point x="524" y="362" type="curve"/>
      <point x="525" y="217" type="line"/>
      <point x="525" y="151"/>
      <point x="523" y="101"/>
      <point x="520" y="79" type="curve"/>
      <point x="445" y="56" type="line"/>
      <point x="449" y="0" type="line"/>
      <point x="750" y="0" type="line"/>
      <point x="754" y="56" type="line"/>
      <point x="673" y="79" type="line"/>
      <point x="668" y="96"/>
      <point x="666" y="157"/>
      <point x="666" y="223" type="curve"/>
      <point x="664" y="370" type="line"/>
      <point x="664" y="540"/>
      <point x="561" y="620"/>
      <point x="458" y="620" type="curve" smooth="yes"/>
      <point x="390" y="620"/>
      <point x="326" y="589"/>
      <point x="267" y="514" type="curve"/>
      <point x="263" y="516" type="line"/>
      <point x="272" y="593" type="line"/>
      <point x="240" y="617" type="line"/>
      <point x="26" y="560" type="line"/>
      <point x="26" y="506" type="line"/>
      <point x="115" y="486" type="line"/>
      <point x="122" y="445"/>
      <point x="128" y="390"/>
      <point x="128" y="331" type="curve"/>
      <point x="126" y="224" type="line" smooth="yes"/>
      <point x="125" y="136"/>
      <point x="121" y="92"/>
      <point x="119" y="79" type="curve"/>
      <point x="32" y="56" type="line"/>
    </contour>
    <contour>
      <point x="843" y="0" type="line"/>
      <point x="1151" y="0" type="line"/>
      <point x="1155" y="56" type="line"/>
      <point x="1069" y="79" type="line"/>
      <point x="1063" y="96"/>
      <point x="1060" y="157"/>
      <point x="1060" y="223" type="curve"/>
      <point x="1060" y="376" type="line"/>
      <point x="1060" y="527"/>
      <point x="968" y="620"/>
      <point x="843" y="620" type="curve" smooth="yes"/>
      <point x="757" y="620"/>
      <point x="682" y="576"/>
      <point x="617" y="486" type="curve"/>
      <point x="650" y="434" type="line"/>
      <point x="686" y="487"/>
      <point x="735" y="514"/>
      <point x="792" y="514" type="curve" smooth="yes"/>
      <point x="856" y="514"/>
      <point x="920" y="471"/>
      <point x="920" y="354" type="curve"/>
      <point x="921" y="217" type="line"/>
      <point x="921" y="151"/>
      <point x="918" y="101"/>
      <point x="914" y="79" type="curve"/>
      <point x="838" y="56" type="line"/>
    </contour>
  </outline>
</glyph>
<glyph name="n" format="2">
  <advance width="795"/>
  <unicode hex="006E"/>
  <note>
n
</note>
  <anchor x="401" y="609" name="above"/>
  <anchor x="401" y="0" name="below"/>
  <outline>
    <contour>
      <point x="35" y="0" type="line"/>
      <point x="355" y="0" type="line"/>
      <point x="360" y="56" type="line"/>
      <point x="273" y="79" type="line"/>
      <point x="269" y="95"/>
      <point x="266" y="154"/>
      <point x="266" y="230" type="curve" smooth="yes"/>
      <point x="266" y="439" type="line"/>
      <point x="301" y="487"/>
      <point x="349" y="514"/>
      <point x="405" y="514" type="curve" smooth="yes"/>
      <point x="471" y="514"/>
      <point x="536" y="469"/>
      <point x="536" y="353" type="curve" smooth="yes"/>
      <point x="536" y="217" type="line" smooth="yes"/>
      <point x="536" y="151"/>
      <point x="532" y="101"/>
      <point x="529" y="79" type="curve"/>
      <point x="449" y="56" type="line"/>
      <point x="451" y="0" type="line"/>
      <point x="766" y="0" type="line"/>
      <point x="770" y="56" type="line"/>
      <point x="684" y="79" type="line"/>
      <point x="678" y="95"/>
      <point x="675" y="157"/>
      <point x="675" y="223" type="curve" smooth="yes"/>
      <point x="675" y="373" type="line" smooth="yes"/>
      <point x="675" y="536"/>
      <point x="579" y="620"/>
      <point x="470" y="620" type="curve" smooth="yes"/>
      <point x="393" y="620"/>
      <point x="329" y="587"/>
      <point x="266" y="515" type="curve"/>
      <point x="262" y="516" type="line"/>
      <point x="270" y="593" type="line"/>
      <point x="239" y="617" type="line"/>
      <point x="24" y="560" type="line"/>
      <point x="24" y="506" type="line"/>
      <point x="114" y="486" type="line"/>
      <point x="121" y="445"/>
      <point x="126" y="391"/>
      <point x="126" y="331" type="curve"/>
      <point x="125" y="224" type="line" smooth="yes"/>
      <point x="123" y="139"/>
      <point x="121" y="92"/>
      <point x="118" y="79" type="curve"/>
      <point x="31" y="56" type="line"/>
    </contour>
  </outline>
</glyph>
<glyph name="o" format="2">
  <advance width="728"/>
  <unicode hex="006F"/>
  <note>
o
</note>
  <anchor x="364" y="609" name="above"/>
  <anchor x="364" y="0" name="below"/>
  <anchor x="364" y="303" name="center"/>
  <anchor x="464" y="0" name="ogonek"/>
  <anchor x="706" y="609" name="topright"/>
  <outline>
    <contour>
      <point x="368" y="-10" type="curve" smooth="yes"/>
      <point x="540" y="-10"/>
      <point x="675" y="129"/>
      <point x="675" y="310" type="curve" smooth="yes"/>
      <point x="675" y="493"/>
      <point x="554" y="620"/>
      <point x="374" y="620" type="curve" smooth="yes"/>
      <point x="202" y="620"/>
      <point x="53" y="497"/>
      <point x="53" y="300" type="curve" smooth="yes"/>
      <point x="53" y="116"/>
      <point x="180" y="-10"/>
    </contour>
    <contour>
      <point x="382" y="64" type="curve" smooth="yes"/>
      <point x="283" y="64"/>
      <point x="211" y="175"/>
      <point x="211" y="330" type="curve" smooth="yes"/>
      <point x="211" y="462"/>
      <point x="268" y="547"/>
      <point x="355" y="547" type="curve" smooth="yes"/>
      <point x="453" y="547"/>
      <point x="518" y="438"/>
      <point x="518" y="276" type="curve" smooth="yes"/>
      <point x="518" y="147"/>
      <point x="466" y="64"/>
    </contour>
  </outline>
</glyph>
<glyph name="p" format="2">
  <advance width="769"/>
  <unicode hex="0070"/>
  <note>
p
</note>
  <anchor x="386" y="609" name="above"/>
  <outline>
    <contour>
      <point x="32" y="-308" type="line"/>
      <point x="381" y="-308" type="line"/>
      <point x="386" y="-249" type="line"/>
      <point x="270" y="-228" type="line"/>
      <point x="267" y="-210"/>
      <point x="265" y="-154"/>
      <point x="265" y="-87" type="curve" smooth="yes"/>
      <point x="265" y="11" type="line"/>
      <point x="299" y="-1"/>
      <point x="345" y="-9"/>
      <point x="382" y="-9" type="curve" smooth="yes"/>
      <point x="578" y="-9"/>
      <point x="714" y="138"/>
      <point x="714" y="324" type="curve" smooth="yes"/>
      <point x="714" y="503"/>
      <point x="598" y="620"/>
      <point x="453" y="620" type="curve" smooth="yes"/>
      <point x="379" y="620"/>
      <point x="312" y="580"/>
      <point x="264" y="511" type="curve"/>
      <point x="260" y="513" type="line"/>
      <point x="269" y="593" type="line"/>
      <point x="238" y="617" type="line"/>
      <point x="22" y="560" type="line"/>
      <point x="22" y="506" type="line"/>
      <point x="112" y="486" type="line"/>
      <point x="119" y="445"/>
      <point x="125" y="392"/>
      <point x="125" y="336" type="curve" smooth="yes"/>
      <point x="122" y="20" type="line" smooth="yes"/>
      <point x="121" y="-115"/>
      <point x="116" y="-209"/>
      <point x="114" y="-228" type="curve"/>
      <point x="28" y="-252" type="line"/>
    </contour>
    <contour>
      <point x="386" y="72" type="curve" smooth="yes"/>
      <point x="342" y="72"/>
      <point x="296" y="85"/>
      <point x="265" y="109" type="curve"/>
      <point x="265" y="439" type="line"/>
      <point x="298" y="483"/>
      <point x="345" y="508"/>
      <point x="394" y="508" type="curve" smooth="yes"/>
      <point x="487" y="508"/>
      <point x="560" y="427"/>
      <point x="559" y="290" type="curve" smooth="yes"/>
      <point x="557" y="144"/>
      <point x="488" y="72"/>
    </contour>
  </outline>
</glyph>
<glyph name="q" format="2">
  <advance width="749"/>
  <unicode hex="0071"/>
  <note>
q
</note>
  <anchor x="387" y="609" name="above"/>
  <outline>
    <contour>
      <point x="405" y="-308" type="line"/>
      <point x="735" y="-308" type="line"/>
      <point x="739" y="-252" type="line"/>
      <point x="652" y="-228" type="line"/>
      <point x="649" y="-210"/>
      <point x="647" y="-146"/>
      <point x="645" y="-30" type="curve" smooth="yes"/>
      <point x="642" y="316" type="line" smooth="yes"/>
      <point x="640" y="435"/>
      <point x="643" y="542"/>
      <point x="645" y="629" type="curve"/>
      <point x="597" y="629" type="line"/>
      <point x="545" y="583" type="line"/>
      <point x="500" y="606"/>
      <point x="446" y="619"/>
      <point x="385" y="619" type="curve" smooth="yes"/>
      <point x="219" y="619"/>
      <point x="54" y="497"/>
      <point x="54" y="282" type="curve" smooth="yes"/>
      <point x="54" y="108"/>
      <point x="170" y="-11"/>
      <point x="329" y="-11" type="curve" smooth="yes"/>
      <point x="391" y="-11"/>
      <point x="452" y="18"/>
      <point x="502" y="92" type="curve"/>
      <point x="506" y="91" type="line"/>
      <point x="506" y="-81" type="line" smooth="yes"/>
      <point x="506" y="-165"/>
      <point x="503" y="-199"/>
      <point x="502" y="-228" type="curve"/>
      <point x="401" y="-252" type="line"/>
    </contour>
    <contour>
      <point x="377" y="100" type="curve" smooth="yes"/>
      <point x="281" y="100"/>
      <point x="208" y="181"/>
      <point x="208" y="325" type="curve" smooth="yes"/>
      <point x="208" y="471"/>
      <point x="286" y="547"/>
      <point x="380" y="547" type="curve" smooth="yes"/>
      <point x="423" y="547"/>
      <point x="472" y="530"/>
      <point x="503" y="488" type="curve"/>
      <point x="501" y="170" type="line"/>
      <point x="462" y="118"/>
      <point x="421" y="100"/>
    </contour>
  </outline>
</glyph>
<glyph name="r" format="2">
  <advance width="539"/>
  <unicode hex="0072"/>
  <note>
r
</note>
  <anchor x="253" y="609" name="above"/>
  <anchor x="198" y="0" name="below"/>
  <outline>
    <contour>
      <point x="36" y="0" type="line"/>
      <point x="395" y="0" type="line"/>
      <point x="398" y="58" type="line"/>
      <point x="276" y="79" type="line"/>
      <point x="273" y="103"/>
      <point x="270" y="185"/>
      <point x="268" y="271" type="curve" smooth="yes"/>
      <point x="266" y="392" type="line"/>
      <point x="291" y="443"/>
      <point x="320" y="480"/>
      <point x="353" y="502" type="curve"/>
      <point x="321" y="508" type="line"/>
      <point x="355" y="474"/>
      <point x="386" y="460"/>
      <point x="425" y="460" type="curve" smooth="yes"/>
      <point x="476" y="460"/>
      <point x="516" y="490"/>
      <point x="516" y="541" type="curve" smooth="yes"/>
      <point x="516" y="591"/>
      <point x="479" y="615"/>
      <point x="432" y="615" type="curve" smooth="yes"/>
      <point x="377" y="615"/>
      <point x="319" y="585"/>
      <point x="265" y="480" type="curve"/>
      <point x="260" y="481" type="line"/>
      <point x="266" y="596" type="line"/>
      <point x="239" y="617" type="line"/>
      <point x="26" y="560" type="line"/>
      <point x="26" y="506" type="line"/>
      <point x="115" y="486" type="line"/>
      <point x="122" y="445"/>
      <point x="128" y="390"/>
      <point x="128" y="331" type="curve"/>
      <point x="126" y="224" type="line" smooth="yes"/>
      <point x="125" y="140"/>
      <point x="121" y="91"/>
      <point x="119" y="79" type="curve"/>
      <point x="32" y="56" type="line"/>
    </contour>
  </outline>
</glyph>
<glyph name="s" format="2">
  <advance width="572"/>
  <unicode hex="0073"/>
  <note>
s
</note>
  <anchor x="291" y="609" name="above"/>
  <anchor x="285" y="0" name="below"/>
  <outline>
    <contour>
      <point x="273" y="-10" type="curve" smooth="yes"/>
      <point x="422" y="-10"/>
      <point x="528" y="62"/>
      <point x="528" y="171" type="curve" smooth="yes"/>
      <point x="528" y="252"/>
      <point x="482" y="302"/>
      <point x="358" y="355" type="curve" smooth="yes"/>
      <point x="249" y="403"/>
      <point x="214" y="427"/>
      <point x="214" y="478" type="curve" smooth="yes"/>
      <point x="214" y="522"/>
      <point x="254" y="554"/>
      <point x="315" y="554" type="curve" smooth="yes"/>
      <point x="342" y="554"/>
      <point x="370" y="547"/>
      <point x="390" y="536" type="curve"/>
      <point x="422" y="438" type="line"/>
      <point x="499" y="438" type="line"/>
      <point x="484" y="591" type="line"/>
      <point x="445" y="608"/>
      <point x="383" y="620"/>
      <point x="327" y="620" type="curve" smooth="yes"/>
      <point x="175" y="620"/>
      <point x="70" y="544"/>
      <point x="70" y="438" type="curve" smooth="yes"/>
      <point x="70" y="351"/>
      <point x="118" y="302"/>
      <point x="253" y="248" type="curve" smooth="yes"/>
      <point x="356" y="207"/>
      <point x="381" y="180"/>
      <point x="381" y="132" type="curve" smooth="yes"/>
      <point x="381" y="86"/>
      <point x="344" y="56"/>
      <point x="283" y="56" type="curve" smooth="yes"/>
      <point x="242" y="56"/>
      <point x="205" y="66"/>
      <point x="172" y="89" type="curve"/>
      <point x="142" y="190" type="line"/>
      <point x="64" y="190" type="line"/>
      <point x="71" y="33" type="line"/>
      <point x="121" y="5"/>
      <point x="200" y="-10"/>
    </contour>
  </outline>
</glyph>
<glyph name="t" format="2">
  <advance width="494"/>
  <unicode hex="0074"/>
  <note>
t
</note>
  <anchor x="239" y="724" name="above"/>
  <anchor x="275" y="0" name="below"/>
  <anchor x="183" y="378" name="stroke"/>
  <anchor x="322" y="966" name="topright"/>
  <outline>
    <contour>
      <point x="501" y="100" type="curve"/>
      <point x="472" y="137" type="line"/>
      <point x="444" y="111"/>
      <point x="406" y="95"/>
      <point x="368" y="95" type="curve" smooth="yes"/>
      <point x="295" y="95"/>
      <point x="253" y="134"/>
      <point x="253" y="223" type="curve"/>
      <point x="256" y="564" type="line"/>
      <point x="259" y="741" type="line"/>
      <point x="224" y="741" type="line"/>
      <point x="16" y="565" type="line"/>
      <point x="16" y="529" type="line"/>
      <point x="114" y="529" type="line"/>
      <point x="111" y="204" type="line"/>
      <point x="111" y="59"/>
      <point x="197" y="-11"/>
      <point x="317" y="-11" type="curve" smooth="yes"/>
      <point x="396" y="-11"/>
      <point x="468" y="29"/>
    </contour>
    <contour>
      <point x="194" y="529" type="line"/>
      <point x="461" y="529" type="line"/>
      <point x="461" y="608" type="line"/>
      <point x="194" y="608" type="line"/>
    </contour>
  </outline>
</glyph>
<glyph name="u" format="2">
  <advance width="785"/>
  <unicode hex="0075"/>
  <note>
u
</note>
  <anchor x="391" y="609" name="above"/>
  <anchor x="391" y="0" name="below"/>
  <anchor x="603" y="0" name="ogonek"/>
  <anchor x="632" y="609" name="topright"/>
  <outline>
    <contour>
      <point x="669" y="111" type="line"/>
      <point x="664" y="150"/>
      <point x="660" y="208"/>
      <point x="660" y="287" type="curve" smooth="yes"/>
      <point x="660" y="392" type="line" smooth="yes"/>
      <point x="660" y="476"/>
      <point x="660" y="530"/>
      <point x="663" y="596" type="curve"/>
      <point x="636" y="617" type="line"/>
      <point x="411" y="560" type="line"/>
      <point x="411" y="506" type="line"/>
      <point x="513" y="486" type="line"/>
      <point x="518" y="442"/>
      <point x="520" y="388"/>
      <point x="520" y="326" type="curve" smooth="yes"/>
      <point x="520" y="175" type="line"/>
      <point x="485" y="119"/>
      <point x="435" y="97"/>
      <point x="391" y="97" type="curve" smooth="yes"/>
      <point x="311" y="97"/>
      <point x="258" y="140"/>
      <point x="258" y="248" type="curve"/>
      <point x="259" y="386" type="line"/>
      <point x="259" y="463"/>
      <point x="261" y="538"/>
      <point x="265" y="593" type="curve"/>
      <point x="233" y="617" type="line"/>
      <point x="14" y="560" type="line"/>
      <point x="14" y="506" type="line"/>
      <point x="110" y="486" type="line"/>
      <point x="114" y="439"/>
      <point x="116" y="394"/>
      <point x="116" y="350" type="curve" smooth="yes"/>
      <point x="116" y="229" type="line" smooth="yes"/>
      <point x="116" y="68"/>
      <point x="210" y="-11"/>
      <point x="340" y="-11" type="curve" smooth="yes"/>
      <point x="407" y="-11"/>
      <point x="465" y="14"/>
      <point x="520" y="96" type="curve"/>
      <point x="525" y="95" type="line"/>
      <point x="523" y="2" type="line"/>
      <point x="551" y="-15" type="line"/>
      <point x="759" y="37" type="line"/>
      <point x="759" y="88" type="line"/>
    </contour>
  </outline>
</glyph>
<glyph name="v" format="2">
  <advance width="678"/>
  <unicode hex="0076"/>
  <note>
v
</note>
  <anchor x="340" y="609" name="above"/>
  <anchor x="340" y="0" name="below"/>
  <outline>
    <contour>
      <point x="310" y="-5" type="line"/>
      <point x="362" y="-5" type="line"/>
      <point x="623" y="529" type="line"/>
      <point x="688" y="553" type="line"/>
      <point x="686" y="609" type="line"/>
      <point x="442" y="609" type="line"/>
      <point x="439" y="553" type="line"/>
      <point x="525" y="529" type="line"/>
      <point x="362" y="140" type="line"/>
      <point x="401" y="140" type="line"/>
      <point x="223" y="529" type="line"/>
      <point x="310" y="553" type="line"/>
      <point x="306" y="609" type="line"/>
      <point x="-3" y="609" type="line"/>
      <point x="-7" y="553" type="line"/>
      <point x="58" y="529" type="line"/>
    </contour>
  </outline>
</glyph>
<glyph name="w" format="2">
  <advance width="1095"/>
  <unicode hex="0077"/>
  <note>
w
</note>
  <anchor x="581" y="609" name="above"/>
  <anchor x="544" y="0" name="below"/>
  <outline>
    <contour>
      <point x="729" y="-5" type="line"/>
      <point x="782" y="-5" type="line"/>
      <point x="1034" y="529" type="line"/>
      <point x="1099" y="553" type="line"/>
      <point x="1097" y="609" type="line"/>
      <point x="868" y="609" type="line"/>
      <point x="866" y="553" type="line"/>
      <point x="938" y="529" type="line"/>
      <point x="779" y="140" type="line"/>
      <point x="816" y="140" type="line"/>
      <point x="661" y="529" type="line"/>
      <point x="734" y="553" type="line"/>
      <point x="732" y="609" type="line"/>
      <point x="436" y="609" type="line"/>
      <point x="433" y="553" type="line"/>
      <point x="502" y="529" type="line"/>
    </contour>
    <contour>
      <point x="304" y="-5" type="line"/>
      <point x="356" y="-5" type="line"/>
      <point x="574" y="448" type="line"/>
      <point x="529" y="537" type="line"/>
      <point x="355" y="140" type="line"/>
      <point x="397" y="140" type="line"/>
      <point x="233" y="529" type="line"/>
      <point x="302" y="553" type="line"/>
      <point x="299" y="609" type="line"/>
      <point x="4" y="609" type="line"/>
      <point x="1" y="553" type="line"/>
      <point x="67" y="529" type="line"/>
    </contour>
  </outline>
</glyph>
<glyph name="x" format="2">
  <advance width="697"/>
  <unicode hex="0078"/>
  <note>
x
</note>
  <anchor x="355" y="609" name="above"/>
  <anchor x="355" y="0" name="below"/>
  <outline>
    <contour>
      <point x="678" y="0" type="line"/>
      <point x="683" y="56" type="line"/>
      <point x="616" y="79" type="line"/>
      <point x="419" y="333" type="line"/>
      <point x="378" y="387" type="line"/>
      <point x="271" y="529" type="line"/>
      <point x="329" y="553" type="line"/>
      <point x="325" y="609" type="line"/>
      <point x="36" y="609" type="line"/>
      <point x="33" y="553" type="line"/>
      <point x="98" y="529" type="line"/>
      <point x="275" y="302" type="line"/>
      <point x="316" y="252" type="line"/>
      <point x="447" y="79" type="line"/>
      <point x="381" y="56" type="line"/>
      <point x="384" y="0" type="line"/>
    </contour>
    <contour>
      <point x="487" y="529" type="line"/>
      <point x="378" y="387" type="line"/>
      <point x="275" y="302" type="line"/>
      <point x="93" y="79" type="line"/>
      <point x="27" y="56" type="line"/>
      <point x="31" y="0" type="line"/>
      <point x="254" y="0" type="line"/>
      <point x="256" y="56" type="line"/>
      <point x="191" y="79" type="line"/>
      <point x="316" y="252" type="line"/>
      <point x="419" y="333" type="line"/>
      <point x="584" y="529" type="line"/>
      <point x="650" y="553" type="line"/>
      <point x="645" y="609" type="line"/>
      <point x="432" y="609" type="line"/>
      <point x="427" y="553" type="line"/>
    </contour>
  </outline>
</glyph>
<glyph name="y" format="2">
  <advance width="678"/>
  <unicode hex="0079"/>
  <note>
y
</note>
  <anchor x="374" y="609" name="above"/>
  <anchor x="447" y="0" name="below"/>
  <outline>
    <contour>
      <point x="310" y="-5" type="line"/>
      <point x="399" y="140" type="line"/>
      <point x="223" y="529" type="line"/>
      <point x="310" y="553" type="line"/>
      <point x="306" y="609" type="line"/>
      <point x="-2" y="609" type="line"/>
      <point x="-7" y="553" type="line"/>
      <point x="58" y="529" type="line"/>
    </contour>
    <contour>
      <point x="684" y="609" type="line"/>
      <point x="442" y="609" type="line"/>
      <point x="439" y="553" type="line"/>
      <point x="525" y="529" type="line"/>
      <point x="358" y="140" type="line"/>
      <point x="341" y="111" type="line"/>
      <point x="179" y="-194" type="line"/>
      <point x="257" y="-127" type="line"/>
      <point x="111" y="-169" type="line" smooth="yes"/>
      <point x="53" y="-185"/>
      <point x="28" y="-215"/>
      <point x="28" y="-251" type="curve" smooth="yes"/>
      <point x="28" y="-291"/>
      <point x="63" y="-319"/>
      <point x="117" y="-319" type="curve" smooth="yes"/>
      <point x="176" y="-319"/>
      <point x="223" y="-289"/>
      <point x="269" y="-195" type="curve" smooth="yes"/>
      <point x="380" y="36" type="line"/>
      <point x="623" y="529" type="line"/>
      <point x="688" y="553" type="line"/>
    </contour>
  </outline>
</glyph>
<glyph name="z" format="2">
  <advance width="631"/>
  <unicode hex="007A"/>
  <note>
z
</note>
  <anchor x="321" y="609" name="above"/>
  <anchor x="321" y="0" name="below"/>
  <outline>
    <contour>
      <point x="220" y="23" type="line"/>
      <point x="568" y="557" type="line"/>
      <point x="568" y="612" type="line"/>
      <point x="527" y="610"/>
      <point x="486" y="609"/>
      <point x="446" y="609" type="curve" smooth="yes"/>
      <point x="191" y="609" type="line" smooth="yes"/>
      <point x="154" y="609"/>
      <point x="104" y="609"/>
      <point x="56" y="610" type="curve"/>
      <point x="59" y="419" type="line"/>
      <point x="134" y="419" type="line"/>
      <point x="153" y="532" type="line"/>
      <point x="181" y="535"/>
      <point x="212" y="538"/>
      <point x="251" y="538" type="curve" smooth="yes"/>
      <point x="423" y="538" type="line"/>
      <point x="424" y="584" type="line"/>
      <point x="70" y="49" type="line"/>
      <point x="70" y="-2" type="line"/>
      <point x="109" y="0"/>
      <point x="151" y="0"/>
      <point x="190" y="0" type="curve" smooth="yes"/>
      <point x="441" y="0" type="line" smooth="yes"/>
      <point x="479" y="0"/>
      <point x="530" y="0"/>
      <point x="577" y="-1" type="curve"/>
      <point x="603" y="198" type="line"/>
      <point x="525" y="198" type="line"/>
      <point x="490" y="77" type="line"/>
      <point x="459" y="75"/>
      <point x="428" y="72"/>
      <point x="398" y="72" type="curve" smooth="yes"/>
      <point x="214" y="72" type="line"/>
    </contour>
  </outline>
</glyph>
<glyph name="braceleft" format="2">
  <advance width="525"/>
  <unicode hex="007B"/>
  <note>
braceleft
</note>
  <outline>
    <contour>
      <point x="314" y="-112" type="curve" smooth="yes"/>
      <point x="314" y="-12"/>
      <point x="371" y="65"/>
      <point x="371" y="177" type="curve" smooth="yes"/>
      <point x="371" y="276"/>
      <point x="306" y="351"/>
      <point x="191" y="368" type="curve"/>
      <point x="191" y="348" type="line"/>
      <point x="307" y="362"/>
      <point x="371" y="429"/>
      <point x="371" y="526" type="curve" smooth="yes"/>
      <point x="371" y="638"/>
      <point x="314" y="717"/>
      <point x="314" y="817" type="curve" smooth="yes"/>
      <point x="314" y="901"/>
      <point x="365" y="944"/>
      <point x="460" y="961" type="curve"/>
      <point x="444" y="1024" type="line"/>
      <point x="261" y="999"/>
      <point x="158" y="927"/>
      <point x="158" y="797" type="curve" smooth="yes"/>
      <point x="158" y="693"/>
      <point x="231" y="583"/>
      <point x="231" y="497" type="curve" smooth="yes"/>
      <point x="231" y="427"/>
      <point x="193" y="392"/>
      <point x="85" y="388" type="curve"/>
      <point x="85" y="315" type="line"/>
      <point x="193" y="310"/>
      <point x="231" y="275"/>
      <point x="231" y="206" type="curve" smooth="yes"/>
      <point x="231" y="120"/>
      <point x="158" y="11"/>
      <point x="158" y="-91" type="curve" smooth="yes"/>
      <point x="158" y="-222"/>
      <point x="261" y="-295"/>
      <point x="444" y="-319" type="curve"/>
      <point x="460" y="-256" type="line"/>
      <point x="365" y="-240"/>
      <point x="314" y="-196"/>
    </contour>
  </outline>
</glyph>
<glyph name="bar" format="2">
  <advance width="382"/>
  <unicode hex="007C"/>
  <note>
bar
</note>
  <outline>
    <contour>
      <point x="139" y="-308" type="line"/>
      <point x="243" y="-308" type="line"/>
      <point x="243" y="1013" type="line"/>
      <point x="139" y="1013" type="line"/>
    </contour>
  </outline>
</glyph>
<glyph name="asciitilde" format="2">
  <advance width="757"/>
  <unicode hex="007E"/>
  <outline>
    <contour>
      <point x="633" y="425" type="line"/>
      <point x="609" y="382"/>
      <point x="579" y="358"/>
      <point x="536" y="358" type="curve" smooth="yes"/>
      <point x="466" y="358"/>
      <point x="344" y="454"/>
      <point x="238" y="454" type="curve" smooth="yes"/>
      <point x="164" y="454"/>
      <point x="104" y="403"/>
      <point x="74" y="319" type="curve"/>
      <point x="123" y="287" type="line"/>
      <point x="147" y="331"/>
      <point x="180" y="355"/>
      <point x="220" y="355" type="curve" smooth="yes"/>
      <point x="290" y="355"/>
      <point x="412" y="259"/>
      <point x="518" y="259" type="curve" smooth="yes"/>
      <point x="592" y="259"/>
      <point x="653" y="311"/>
      <point x="683" y="393" type="curve"/>
    </contour>
  </outline>
</glyph>
<glyph name="cent" format="2">
  <advance width="617"/>
  <unicode hex="00A2"/>
  <note>
cent
</note>
  <outline>
    <contour>
      <point x="354" y="-10" type="curve" smooth="yes"/>
      <point x="460" y="-10"/>
      <point x="549" y="40"/>
      <point x="602" y="146" type="curve"/>
      <point x="562" y="182" type="line"/>
      <point x="515" y="122"/>
      <point x="465" y="100"/>
      <point x="401" y="100" type="curve" smooth="yes"/>
      <point x="293" y="100"/>
      <point x="210" y="179"/>
      <point x="210" y="327" type="curve" smooth="yes"/>
      <point x="210" y="494"/>
      <point x="313" y="570"/>
      <point x="412" y="550" type="curve"/>
      <point x="355" y="565" type="line"/>
      <point x="441" y="485" type="line" smooth="yes"/>
      <point x="474" y="453"/>
      <point x="493" y="443"/>
      <point x="525" y="443" type="curve" smooth="yes"/>
      <point x="562" y="443"/>
      <point x="587" y="466"/>
      <point x="587" y="503" type="curve" smooth="yes"/>
      <point x="587" y="566"/>
      <point x="507" y="620"/>
      <point x="384" y="620" type="curve" smooth="yes"/>
      <point x="193" y="620"/>
      <point x="53" y="473"/>
      <point x="53" y="291" type="curve" smooth="yes"/>
      <point x="53" y="106"/>
      <point x="188" y="-10"/>
    </contour>
    <contour>
      <point x="333" y="-162" type="line"/>
      <point x="409" y="-162" type="line"/>
      <point x="409" y="770" type="line"/>
      <point x="333" y="770" type="line"/>
    </contour>
  </outline>
</glyph>
<glyph name="sterling" format="2">
  <advance width="729"/>
  <unicode hex="00A3"/>
  <note>
sterling
</note>
  <outline>
    <contour>
      <point x="74" y="-14" type="line"/>
      <point x="160" y="12"/>
      <point x="201" y="20"/>
      <point x="260" y="20" type="curve" smooth="yes"/>
      <point x="360" y="20"/>
      <point x="416" y="-10"/>
      <point x="516" y="-10" type="curve" smooth="yes"/>
      <point x="615" y="-10"/>
      <point x="687" y="47"/>
      <point x="732" y="175" type="curve"/>
      <point x="677" y="201" type="line"/>
      <point x="649" y="139"/>
      <point x="612" y="116"/>
      <point x="560" y="116" type="curve" smooth="yes"/>
      <point x="510" y="116"/>
      <point x="447" y="141"/>
      <point x="398" y="141" type="curve" smooth="yes"/>
      <point x="328" y="141"/>
      <point x="290" y="119"/>
      <point x="182" y="59" type="curve"/>
      <point x="181" y="42" type="line"/>
      <point x="313" y="137"/>
      <point x="348" y="206"/>
      <point x="348" y="307" type="curve" smooth="yes"/>
      <point x="348" y="419"/>
      <point x="282" y="538"/>
      <point x="282" y="637" type="curve" smooth="yes"/>
      <point x="282" y="733"/>
      <point x="360" y="779"/>
      <point x="468" y="763" type="curve"/>
      <point x="398" y="801" type="line"/>
      <point x="511" y="694" type="line" smooth="yes"/>
      <point x="539" y="665"/>
      <point x="562" y="655"/>
      <point x="594" y="655" type="curve" smooth="yes"/>
      <point x="633" y="655"/>
      <point x="658" y="682"/>
      <point x="658" y="718" type="curve" smooth="yes"/>
      <point x="658" y="789"/>
      <point x="568" y="836"/>
      <point x="440" y="836" type="curve" smooth="yes"/>
      <point x="251" y="836"/>
      <point x="117" y="734"/>
      <point x="117" y="589" type="curve" smooth="yes"/>
      <point x="117" y="484"/>
      <point x="212" y="357"/>
      <point x="212" y="221" type="curve" smooth="yes"/>
      <point x="212" y="125"/>
      <point x="171" y="81"/>
      <point x="58" y="51" type="curve"/>
    </contour>
    <contour>
      <point x="35" y="389" type="line"/>
      <point x="554" y="389" type="line"/>
      <point x="554" y="460" type="line"/>
      <point x="35" y="460" type="line"/>
    </contour>
  </outline>
</glyph>
<glyph name="yen" format="2">
  <advance width="785"/>
  <unicode hex="00A5"/>
  <note>
yen
</note>
  <outline>
    <contour>
      <point x="109" y="342" type="line"/>
      <point x="671" y="342" type="line"/>
      <point x="671" y="414" type="line"/>
      <point x="109" y="414" type="line"/>
    </contour>
    <contour>
      <point x="109" y="176" type="line"/>
      <point x="671" y="176" type="line"/>
      <point x="671" y="248" type="line"/>
      <point x="109" y="248" type="line"/>
    </contour>
    <contour>
      <point x="711" y="742" type="line"/>
      <point x="783" y="762" type="line"/>
      <point x="778" y="824" type="line"/>
      <point x="513" y="824" type="line"/>
      <point x="508" y="762" type="line"/>
      <point x="607" y="742" type="line"/>
      <point x="417" y="421" type="line"/>
      <point x="444" y="421" type="line"/>
      <point x="249" y="742" type="line"/>
      <point x="336" y="762" type="line"/>
      <point x="331" y="824" type="line"/>
      <point x="5" y="824" type="line"/>
      <point x="2" y="762" type="line"/>
      <point x="72" y="742" type="line"/>
      <point x="352" y="284" type="line"/>
      <point x="316" y="399" type="line"/>
      <point x="316" y="263" type="line" smooth="yes"/>
      <point x="316" y="154"/>
      <point x="312" y="91"/>
      <point x="309" y="80" type="curve"/>
      <point x="211" y="62" type="line"/>
      <point x="216" y="0" type="line"/>
      <point x="568" y="0" type="line"/>
      <point x="571" y="62" type="line"/>
      <point x="473" y="80" type="line"/>
      <point x="470" y="91"/>
      <point x="466" y="154"/>
      <point x="466" y="263" type="curve" smooth="yes"/>
      <point x="466" y="399" type="line"/>
      <point x="419" y="284" type="line"/>
    </contour>
  </outline>
</glyph>
<glyph name="brokenbar" format="2">
  <advance width="382"/>
  <unicode hex="00A6"/>
  <note>
brokenbar
</note>
  <outline>
    <contour>
      <point x="139" y="490" type="line"/>
      <point x="243" y="490" type="line"/>
      <point x="243" y="1013" type="line"/>
      <point x="139" y="1013" type="line"/>
    </contour>
    <contour>
      <point x="139" y="-308" type="line"/>
      <point x="243" y="-308" type="line"/>
      <point x="243" y="212" type="line"/>
      <point x="139" y="212" type="line"/>
    </contour>
  </outline>
</glyph>
<glyph name="section" format="2">
  <advance width="665"/>
  <unicode hex="00A7"/>
  <note>
section
</note>
  <outline>
    <contour>
      <point x="341" y="321" type="line"/>
      <point x="462" y="324"/>
      <point x="594" y="397"/>
      <point x="594" y="517" type="curve" smooth="yes"/>
      <point x="594" y="717"/>
      <point x="253" y="707"/>
      <point x="253" y="835" type="curve" smooth="yes"/>
      <point x="253" y="883"/>
      <point x="293" y="911"/>
      <point x="363" y="911" type="curve" smooth="yes"/>
      <point x="384" y="911"/>
      <point x="409" y="908"/>
      <point x="427" y="900" type="curve"/>
      <point x="458" y="810" type="line"/>
      <point x="535" y="810" type="line"/>
      <point x="521" y="953" type="line"/>
      <point x="483" y="969"/>
      <point x="418" y="977"/>
      <point x="362" y="977" type="curve" smooth="yes"/>
      <point x="218" y="977"/>
      <point x="110" y="903"/>
      <point x="110" y="801" type="curve" smooth="yes"/>
      <point x="110" y="602"/>
      <point x="460" y="630"/>
      <point x="460" y="469" type="curve" smooth="yes"/>
      <point x="460" y="406"/>
      <point x="403" y="361"/>
      <point x="321" y="347" type="curve"/>
    </contour>
    <contour>
      <point x="293" y="-10" type="curve" smooth="yes"/>
      <point x="444" y="-10"/>
      <point x="551" y="64"/>
      <point x="551" y="167" type="curve" smooth="yes"/>
      <point x="551" y="362"/>
      <point x="206" y="337"/>
      <point x="206" y="496" type="curve" smooth="yes"/>
      <point x="206" y="560"/>
      <point x="264" y="603"/>
      <point x="348" y="618" type="curve"/>
      <point x="327" y="644" type="line"/>
      <point x="203" y="641"/>
      <point x="71" y="568"/>
      <point x="71" y="445" type="curve" smooth="yes"/>
      <point x="71" y="249"/>
      <point x="408" y="257"/>
      <point x="408" y="132" type="curve" smooth="yes"/>
      <point x="408" y="87"/>
      <point x="368" y="56"/>
      <point x="299" y="56" type="curve" smooth="yes"/>
      <point x="272" y="56"/>
      <point x="242" y="63"/>
      <point x="222" y="73" type="curve"/>
      <point x="195" y="161" type="line"/>
      <point x="117" y="161" type="line"/>
      <point x="128" y="16" type="line"/>
      <point x="166" y="0"/>
      <point x="230" y="-10"/>
    </contour>
  </outline>
</glyph>
<glyph name="ordfeminine" format="2">
  <advance width="574"/>
  <unicode hex="00AA"/>
  <note>
ordfeminine
</note>
  <outline>
    <contour>
      <point x="219" y="321" type="curve" smooth="yes"/>
      <point x="260" y="321"/>
      <point x="310" y="343"/>
      <point x="362" y="411" type="curve"/>
      <point x="340" y="418" type="line"/>
      <point x="361" y="368" type="line" smooth="yes"/>
      <point x="373" y="339"/>
      <point x="388" y="321"/>
      <point x="419" y="321" type="curve" smooth="yes"/>
      <point x="436" y="321"/>
      <point x="454" y="327"/>
      <point x="478" y="338" type="curve" smooth="yes"/>
      <point x="556" y="369" type="line"/>
      <point x="556" y="417" type="line"/>
      <point x="483" y="433" type="line"/>
      <point x="476" y="451"/>
      <point x="472" y="476"/>
      <point x="472" y="512" type="curve"/>
      <point x="472" y="663" type="line"/>
      <point x="476" y="770"/>
      <point x="395" y="834"/>
      <point x="265" y="834" type="curve"/>
      <point x="196" y="827"/>
      <point x="62" y="757"/>
      <point x="62" y="694" type="curve" smooth="yes"/>
      <point x="62" y="649"/>
      <point x="114" y="624"/>
      <point x="182" y="640" type="curve"/>
      <point x="188" y="712" type="line" smooth="yes"/>
      <point x="189" y="743"/>
      <point x="196" y="753"/>
      <point x="229" y="753" type="curve" smooth="yes"/>
      <point x="284" y="753"/>
      <point x="336" y="711"/>
      <point x="336" y="659" type="curve" smooth="yes"/>
      <point x="336" y="621" type="line"/>
      <point x="156" y="570" type="line" smooth="yes"/>
      <point x="83" y="548"/>
      <point x="55" y="510"/>
      <point x="55" y="458" type="curve" smooth="yes"/>
      <point x="55" y="400"/>
      <point x="119" y="321"/>
    </contour>
    <contour>
      <point x="277" y="420" type="curve" smooth="yes"/>
      <point x="234" y="420"/>
      <point x="200" y="450"/>
      <point x="200" y="487" type="curve" smooth="yes"/>
      <point x="200" y="516"/>
      <point x="215" y="536"/>
      <point x="250" y="541" type="curve" smooth="yes"/>
      <point x="340" y="558" type="line"/>
      <point x="340" y="445" type="line"/>
      <point x="319" y="426"/>
      <point x="297" y="420"/>
    </contour>
  </outline>
</glyph>
<glyph name="logicalnot" format="2">
  <advance width="757"/>
  <unicode hex="00AC"/>
  <outline>
    <contour>
      <point x="683" y="536" type="line"/>
      <point x="74" y="536" type="line"/>
      <point x="74" y="431" type="line"/>
      <point x="582" y="431" type="line"/>
      <point x="582" y="176" type="line"/>
      <point x="683" y="176" type="line"/>
    </contour>
  </outline>
</glyph>
<glyph name="softhyphen" format="2">
  <advance width="449"/>
  <unicode hex="00AD"/>
  <outline>
    <contour>
      <point x="394" y="249" type="line"/>
      <point x="394" y="353" type="line"/>
      <point x="53" y="353" type="line"/>
      <point x="53" y="249" type="line"/>
    </contour>
  </outline>
</glyph>
<glyph name="registered" format="2">
  <advance width="1139"/>
  <unicode hex="00AE"/>
  <outline>
    <contour>
      <point x="316" y="272" type="line"/>
      <point x="321" y="222" type="line"/>
      <point x="574" y="222" type="line"/>
      <point x="576" y="272" type="line"/>
      <point x="520" y="289" type="line"/>
      <point x="520" y="300"/>
      <point x="516" y="361"/>
      <point x="516" y="435" type="curve" smooth="yes"/>
      <point x="516" y="719" type="line"/>
      <point x="556" y="719" type="line" smooth="yes"/>
      <point x="611" y="719"/>
      <point x="653" y="695"/>
      <point x="653" y="630" type="curve" smooth="yes"/>
      <point x="653" y="556"/>
      <point x="602" y="525"/>
      <point x="546" y="525" type="curve" smooth="yes"/>
      <point x="536" y="525"/>
      <point x="522" y="525"/>
      <point x="510" y="527" type="curve"/>
      <point x="510" y="473" type="line"/>
      <point x="566" y="473" type="line" smooth="yes"/>
      <point x="698" y="473"/>
      <point x="796" y="538"/>
      <point x="796" y="630" type="curve" smooth="yes"/>
      <point x="796" y="735"/>
      <point x="711" y="774"/>
      <point x="571" y="774" type="curve"/>
      <point x="315" y="774" type="line"/>
      <point x="313" y="723" type="line"/>
      <point x="376" y="708" type="line"/>
      <point x="380" y="701"/>
      <point x="383" y="637"/>
      <point x="383" y="564" type="curve" smooth="yes"/>
      <point x="383" y="435" type="line" smooth="yes"/>
      <point x="383" y="361"/>
      <point x="381" y="296"/>
      <point x="380" y="289" type="curve"/>
    </contour>
    <contour>
      <point x="795" y="215" type="curve" smooth="yes"/>
      <point x="815" y="215"/>
      <point x="835" y="218"/>
      <point x="855" y="221" type="curve"/>
      <point x="862" y="266" type="line"/>
      <point x="817" y="278"/>
      <point x="786" y="305"/>
      <point x="750" y="357" type="curve" smooth="yes"/>
      <point x="651" y="511" type="line"/>
      <point x="538" y="487" type="line"/>
      <point x="586" y="373" type="line" smooth="yes"/>
      <point x="634" y="261"/>
      <point x="686" y="215"/>
    </contour>
    <contour>
      <point x="570" y="-8" type="curve" smooth="yes"/>
      <point x="853" y="-8"/>
      <point x="1073" y="206"/>
      <point x="1073" y="490" type="curve" smooth="yes"/>
      <point x="1073" y="774"/>
      <point x="853" y="988"/>
      <point x="570" y="988" type="curve" smooth="yes"/>
      <point x="285" y="988"/>
      <point x="66" y="774"/>
      <point x="66" y="490" type="curve" smooth="yes"/>
      <point x="66" y="206"/>
      <point x="287" y="-8"/>
    </contour>
    <contour>
      <point x="570" y="46" type="curve" smooth="yes"/>
      <point x="320" y="46"/>
      <point x="128" y="238"/>
      <point x="128" y="490" type="curve" smooth="yes"/>
      <point x="128" y="742"/>
      <point x="320" y="932"/>
      <point x="570" y="932" type="curve" smooth="yes"/>
      <point x="819" y="932"/>
      <point x="1011" y="742"/>
      <point x="1011" y="490" type="curve" smooth="yes"/>
      <point x="1011" y="238"/>
      <point x="819" y="46"/>
    </contour>
  </outline>
</glyph>
<glyph name="degree" format="2">
  <advance width="530"/>
  <unicode hex="00B0"/>
  <note>
degree
</note>
  <outline>
    <contour>
      <point x="265" y="429" type="curve" smooth="yes"/>
      <point x="382" y="429"/>
      <point x="473" y="515"/>
      <point x="473" y="633" type="curve" smooth="yes"/>
      <point x="473" y="750"/>
      <point x="382" y="835"/>
      <point x="265" y="835" type="curve" smooth="yes"/>
      <point x="147" y="835"/>
      <point x="56" y="750"/>
      <point x="56" y="633" type="curve" smooth="yes"/>
      <point x="56" y="515"/>
      <point x="147" y="429"/>
    </contour>
    <contour>
      <point x="265" y="511" type="curve" smooth="yes"/>
      <point x="197" y="511"/>
      <point x="147" y="561"/>
      <point x="147" y="633" type="curve" smooth="yes"/>
      <point x="147" y="704"/>
      <point x="197" y="754"/>
      <point x="265" y="754" type="curve" smooth="yes"/>
      <point x="332" y="754"/>
      <point x="381" y="704"/>
      <point x="381" y="633" type="curve" smooth="yes"/>
      <point x="381" y="561"/>
      <point x="332" y="511"/>
    </contour>
  </outline>
</glyph>
<glyph name="plusminus" format="2">
  <advance width="757"/>
  <unicode hex="00B1"/>
  <outline>
    <contour>
      <point x="683" y="463" type="line"/>
      <point x="74" y="463" type="line"/>
      <point x="74" y="364" type="line"/>
      <point x="683" y="364" type="line"/>
    </contour>
    <contour>
      <point x="327" y="661" type="line"/>
      <point x="327" y="165" type="line"/>
      <point x="428" y="165" type="line"/>
      <point x="428" y="661" type="line"/>
    </contour>
    <contour>
      <point x="683" y="102" type="line"/>
      <point x="74" y="102" type="line"/>
      <point x="74" y="0" type="line"/>
      <point x="683" y="0" type="line"/>
    </contour>
  </outline>
</glyph>
<glyph name="twosuperior" format="2">
  <advance width="561"/>
  <unicode hex="00B2"/>
  <note>
uni2082
</note>
  <outline>
    <contour>
      <point x="63" y="330" type="curve"/>
      <point x="66" y="276" type="line"/>
      <point x="91" y="277"/>
      <point x="118" y="279"/>
      <point x="141" y="279" type="curve" smooth="yes"/>
      <point x="353" y="279" type="line" smooth="yes"/>
      <point x="381" y="279"/>
      <point x="452" y="277"/>
      <point x="490" y="274" type="curve"/>
      <point x="521" y="443" type="line"/>
      <point x="459" y="450" type="line"/>
      <point x="430" y="386" type="line"/>
      <point x="411" y="383"/>
      <point x="401" y="382"/>
      <point x="374" y="382" type="curve" smooth="yes"/>
      <point x="187" y="382" type="line"/>
      <point x="186" y="372" type="line"/>
      <point x="362" y="456"/>
      <point x="456" y="561"/>
      <point x="456" y="663" type="curve" smooth="yes"/>
      <point x="456" y="766"/>
      <point x="376" y="832"/>
      <point x="258" y="832" type="curve" smooth="yes"/>
      <point x="161" y="832"/>
      <point x="82" y="781"/>
      <point x="41" y="695" type="curve"/>
      <point x="85" y="663" type="line"/>
      <point x="115" y="708"/>
      <point x="158" y="730"/>
      <point x="209" y="730" type="curve" smooth="yes"/>
      <point x="279" y="730"/>
      <point x="317" y="696"/>
      <point x="317" y="636" type="curve" smooth="yes"/>
      <point x="317" y="545"/>
      <point x="243" y="453"/>
    </contour>
  </outline>
</glyph>
<glyph name="threesuperior" format="2">
  <advance width="561"/>
  <unicode hex="00B3"/>
  <note>
uni2083
</note>
  <outline>
    <contour>
      <point x="292" y="578" type="curve"/>
      <point x="271" y="560" type="line"/>
      <point x="385" y="583"/>
      <point x="453" y="637"/>
      <point x="453" y="708" type="curve" smooth="yes"/>
      <point x="453" y="782"/>
      <point x="386" y="832"/>
      <point x="283" y="832" type="curve" smooth="yes"/>
      <point x="189" y="832"/>
      <point x="109" y="785"/>
      <point x="70" y="714" type="curve"/>
      <point x="115" y="682" type="line"/>
      <point x="141" y="713"/>
      <point x="179" y="733"/>
      <point x="231" y="733" type="curve" smooth="yes"/>
      <point x="285" y="733"/>
      <point x="317" y="707"/>
      <point x="317" y="669" type="curve" smooth="yes"/>
      <point x="317" y="621"/>
      <point x="269" y="585"/>
      <point x="166" y="576" type="curve"/>
      <point x="173" y="517" type="line"/>
      <point x="186" y="520"/>
      <point x="200" y="521"/>
      <point x="218" y="521" type="curve" smooth="yes"/>
      <point x="301" y="521"/>
      <point x="352" y="485"/>
      <point x="352" y="425" type="curve" smooth="yes"/>
      <point x="352" y="358"/>
      <point x="288" y="320"/>
      <point x="212" y="336" type="curve"/>
      <point x="250" y="320" type="line"/>
      <point x="180" y="379" type="line" smooth="yes"/>
      <point x="152" y="403"/>
      <point x="139" y="408"/>
      <point x="118" y="408" type="curve" smooth="yes"/>
      <point x="88" y="408"/>
      <point x="66" y="386"/>
      <point x="66" y="357" type="curve" smooth="yes"/>
      <point x="66" y="306"/>
      <point x="135" y="270"/>
      <point x="228" y="270" type="curve" smooth="yes"/>
      <point x="373" y="270"/>
      <point x="490" y="347"/>
      <point x="490" y="443" type="curve" smooth="yes"/>
      <point x="490" y="525"/>
      <point x="416" y="576"/>
    </contour>
  </outline>
</glyph>
<glyph name="micro" format="2">
  <advance width="764"/>
  <unicode hex="00B5"/>
  <outline>
    <contour>
      <point x="687" y="136" type="line"/>
      <point x="682" y="109"/>
      <point x="670" y="53"/>
      <point x="634" y="53" type="curve" smooth="yes"/>
      <point x="584" y="53"/>
      <point x="589" y="140"/>
      <point x="589" y="174" type="curve" smooth="yes"/>
      <point x="589" y="602" type="line"/>
      <point x="480" y="602" type="line"/>
      <point x="480" y="150" type="line"/>
      <point x="441" y="105"/>
      <point x="386" y="63"/>
      <point x="324" y="63" type="curve" smooth="yes"/>
      <point x="225" y="63"/>
      <point x="231" y="181"/>
      <point x="231" y="252" type="curve" smooth="yes"/>
      <point x="231" y="602" type="line"/>
      <point x="123" y="602" type="line"/>
      <point x="123" y="125" type="line" smooth="yes"/>
      <point x="123" y="46"/>
      <point x="119" y="-34"/>
      <point x="102" y="-111" type="curve" smooth="yes"/>
      <point x="95" y="-145"/>
      <point x="82" y="-186"/>
      <point x="82" y="-220" type="curve" smooth="yes"/>
      <point x="82" y="-252"/>
      <point x="102" y="-292"/>
      <point x="140" y="-292" type="curve" smooth="yes"/>
      <point x="177" y="-292"/>
      <point x="200" y="-252"/>
      <point x="200" y="-218" type="curve" smooth="yes"/>
      <point x="200" y="-143"/>
      <point x="170" y="-70"/>
      <point x="170" y="7" type="curve" smooth="yes"/>
      <point x="170" y="37" type="line"/>
      <point x="193" y="0"/>
      <point x="229" y="-20"/>
      <point x="272" y="-20" type="curve" smooth="yes"/>
      <point x="357" y="-20"/>
      <point x="427" y="48"/>
      <point x="480" y="105" type="curve"/>
      <point x="487" y="46"/>
      <point x="511" y="-20"/>
      <point x="584" y="-20" type="curve" smooth="yes"/>
      <point x="677" y="-20"/>
      <point x="709" y="53"/>
      <point x="714" y="136" type="curve"/>
    </contour>
  </outline>
</glyph>
<glyph name="paragraph" format="2">
  <advance width="779"/>
  <unicode hex="00B6"/>
  <note>
paragraph
</note>
  <outline>
    <contour>
      <point x="715" y="0" type="line"/>
      <point x="718" y="60" type="line"/>
      <point x="636" y="80" type="line"/>
      <point x="630" y="96"/>
      <point x="626" y="186"/>
      <point x="626" y="292" type="curve" smooth="yes"/>
      <point x="626" y="529" type="line" smooth="yes"/>
      <point x="626" y="638"/>
      <point x="630" y="728"/>
      <point x="636" y="741" type="curve"/>
      <point x="722" y="762" type="line"/>
      <point x="717" y="824" type="line"/>
      <point x="374" y="824" type="line" smooth="yes"/>
      <point x="175" y="824"/>
      <point x="40" y="724"/>
      <point x="40" y="570" type="curve" smooth="yes"/>
      <point x="40" y="412"/>
      <point x="166" y="319"/>
      <point x="381" y="319" type="curve" smooth="yes"/>
      <point x="444" y="319"/>
      <point x="509" y="327"/>
      <point x="577" y="346" type="curve"/>
      <point x="577" y="432" type="line"/>
      <point x="507" y="409"/>
      <point x="451" y="400"/>
      <point x="385" y="400" type="curve" smooth="yes"/>
      <point x="269" y="400"/>
      <point x="199" y="469"/>
      <point x="199" y="586" type="curve" smooth="yes"/>
      <point x="199" y="692"/>
      <point x="268" y="754"/>
      <point x="373" y="754" type="curve" smooth="yes"/>
      <point x="408" y="754" type="line"/>
      <point x="410" y="731"/>
      <point x="410" y="651"/>
      <point x="410" y="534" type="curve" smooth="yes"/>
      <point x="410" y="253" type="line" smooth="yes"/>
      <point x="410" y="159"/>
      <point x="406" y="95"/>
      <point x="401" y="82" type="curve"/>
      <point x="287" y="63" type="line"/>
      <point x="291" y="0" type="line"/>
    </contour>
    <contour>
      <point x="490" y="754" type="line"/>
      <point x="556" y="754" type="line"/>
      <point x="551" y="69" type="line"/>
      <point x="490" y="69" type="line"/>
    </contour>
  </outline>
</glyph>
<glyph name="periodcentered" format="2">
  <advance width="377"/>
  <unicode hex="00B7"/>
  <note>
periodcentered
</note>
  <outline>
    <contour>
      <point x="188" y="204" type="curve" smooth="yes"/>
      <point x="249" y="204"/>
      <point x="296" y="251"/>
      <point x="296" y="309" type="curve" smooth="yes"/>
      <point x="296" y="369"/>
      <point x="249" y="415"/>
      <point x="188" y="415" type="curve" smooth="yes"/>
      <point x="127" y="415"/>
      <point x="81" y="369"/>
      <point x="81" y="309" type="curve" smooth="yes"/>
      <point x="81" y="251"/>
      <point x="127" y="204"/>
    </contour>
  </outline>
</glyph>
<glyph name="ordmasculine" format="2">
  <advance width="604"/>
  <unicode hex="00BA"/>
  <note>
ordmasculine
</note>
  <outline>
    <contour>
      <point x="305" y="321" type="curve" smooth="yes"/>
      <point x="449" y="321"/>
      <point x="561" y="436"/>
      <point x="561" y="583" type="curve" smooth="yes"/>
      <point x="561" y="730"/>
      <point x="459" y="834"/>
      <point x="310" y="834" type="curve" smooth="yes"/>
      <point x="162" y="834"/>
      <point x="42" y="732"/>
      <point x="42" y="570" type="curve" smooth="yes"/>
      <point x="42" y="424"/>
      <point x="151" y="321"/>
    </contour>
    <contour>
      <point x="317" y="392" type="curve" smooth="yes"/>
      <point x="248" y="392"/>
      <point x="192" y="485"/>
      <point x="192" y="607" type="curve" smooth="yes"/>
      <point x="192" y="706"/>
      <point x="231" y="766"/>
      <point x="291" y="766" type="curve" smooth="yes"/>
      <point x="364" y="766"/>
      <point x="413" y="675"/>
      <point x="413" y="543" type="curve" smooth="yes"/>
      <point x="413" y="447"/>
      <point x="377" y="392"/>
    </contour>
  </outline>
</glyph>
<glyph name="AE" format="2">
  <advance width="1146"/>
  <unicode hex="00C6"/>
  <note>
AE
</note>
  <anchor x="592" y="824" name="above"/>
  <anchor x="592" y="0" name="below"/>
  <outline>
    <contour>
      <point x="1054" y="-7" type="curve"/>
      <point x="1113" y="207" type="line"/>
      <point x="1042" y="220" type="line"/>
      <point x="968" y="84" type="line"/>
      <point x="947" y="80"/>
      <point x="931" y="79"/>
      <point x="867" y="79" type="curve" smooth="yes"/>
      <point x="773" y="79" type="line" smooth="yes"/>
      <point x="722" y="79"/>
      <point x="700" y="79"/>
      <point x="668" y="82" type="curve"/>
      <point x="666" y="101"/>
      <point x="665" y="147"/>
      <point x="665" y="239" type="curve" smooth="yes"/>
      <point x="665" y="580" type="line" smooth="yes"/>
      <point x="665" y="672"/>
      <point x="666" y="731"/>
      <point x="668" y="746" type="curve"/>
      <point x="696" y="748"/>
      <point x="726" y="750"/>
      <point x="757" y="750" type="curve" smooth="yes"/>
      <point x="878" y="750" type="line" smooth="yes"/>
      <point x="901" y="750"/>
      <point x="917" y="748"/>
      <point x="936" y="744" type="curve"/>
      <point x="985" y="624" type="line"/>
      <point x="1058" y="634" type="line"/>
      <point x="1026" y="829" type="line"/>
      <point x="978" y="827"/>
      <point x="907" y="824"/>
      <point x="853" y="824" type="curve" smooth="yes"/>
      <point x="399" y="824" type="line"/>
      <point x="395" y="762" type="line"/>
      <point x="525" y="742" type="line"/>
      <point x="510" y="794" type="line"/>
      <point x="45" y="80" type="line"/>
      <point x="-27" y="60" type="line"/>
      <point x="-23" y="0" type="line"/>
      <point x="232" y="0" type="line"/>
      <point x="235" y="60" type="line"/>
      <point x="147" y="80" type="line"/>
      <point x="560" y="740" type="line"/>
      <point x="517" y="719" type="line"/>
      <point x="517" y="240" type="line" smooth="yes"/>
      <point x="517" y="159"/>
      <point x="516" y="112"/>
      <point x="514" y="80" type="curve"/>
      <point x="427" y="60" type="line"/>
      <point x="429" y="0" type="line"/>
      <point x="893" y="0" type="line" smooth="yes"/>
      <point x="938" y="0"/>
      <point x="996" y="-3"/>
    </contour>
    <contour>
      <point x="224" y="240" type="line"/>
      <point x="262" y="243"/>
      <point x="314" y="245"/>
      <point x="389" y="245" type="curve" smooth="yes"/>
      <point x="467" y="245"/>
      <point x="506" y="243"/>
      <point x="550" y="241" type="curve"/>
      <point x="550" y="325" type="line"/>
      <point x="511" y="322"/>
      <point x="460" y="321"/>
      <point x="389" y="321" type="curve" smooth="yes"/>
      <point x="313" y="321"/>
      <point x="278" y="323"/>
      <point x="246" y="325" type="curve"/>
    </contour>
    <contour>
      <point x="887" y="285" type="line"/>
      <point x="954" y="285" type="line"/>
      <point x="954" y="562" type="line"/>
      <point x="887" y="562" type="line"/>
      <point x="870" y="466" type="line"/>
      <point x="859" y="464"/>
      <point x="832" y="463"/>
      <point x="799" y="463" type="curve" smooth="yes"/>
      <point x="720" y="463" type="line" smooth="yes"/>
      <point x="692" y="463"/>
      <point x="665" y="464"/>
      <point x="641" y="466" type="curve"/>
      <point x="641" y="379" type="line"/>
      <point x="665" y="381"/>
      <point x="692" y="384"/>
      <point x="720" y="384" type="curve" smooth="yes"/>
      <point x="799" y="384" type="line" smooth="yes"/>
      <point x="832" y="384"/>
      <point x="859" y="381"/>
      <point x="870" y="380" type="curve"/>
    </contour>
  </outline>
</glyph>
<glyph name="multiply" format="2">
  <advance width="757"/>
  <unicode hex="00D7"/>
  <outline>
    <contour>
      <point x="600" y="648" type="line"/>
      <point x="86" y="137" type="line"/>
      <point x="158" y="64" type="line"/>
      <point x="671" y="575" type="line"/>
    </contour>
    <contour>
      <point x="158" y="648" type="line"/>
      <point x="86" y="575" type="line"/>
      <point x="600" y="64" type="line"/>
      <point x="671" y="137" type="line"/>
    </contour>
  </outline>
</glyph>
<glyph name="Thorn" format="2">
  <advance width="752"/>
  <unicode hex="00DE"/>
  <note>
Thorn
</note>
  <outline>
    <contour>
      <point x="67" y="0" type="line"/>
      <point x="417" y="0" type="line"/>
      <point x="421" y="63" type="line"/>
      <point x="306" y="80" type="line"/>
      <point x="305" y="94"/>
      <point x="302" y="130"/>
      <point x="302" y="171" type="curve" smooth="yes"/>
      <point x="302" y="611" type="line"/>
      <point x="362" y="611" type="line" smooth="yes"/>
      <point x="467" y="611"/>
      <point x="541" y="553"/>
      <point x="541" y="421" type="curve" smooth="yes"/>
      <point x="541" y="311"/>
      <point x="481" y="251"/>
      <point x="380" y="251" type="curve" smooth="yes"/>
      <point x="345" y="251"/>
      <point x="313" y="258"/>
      <point x="281" y="269" type="curve"/>
      <point x="281" y="189" type="line"/>
      <point x="310" y="183"/>
      <point x="345" y="178"/>
      <point x="382" y="178" type="curve" smooth="yes"/>
      <point x="570" y="178"/>
      <point x="701" y="284"/>
      <point x="701" y="440" type="curve" smooth="yes"/>
      <point x="701" y="594"/>
      <point x="590" y="680"/>
      <point x="385" y="680" type="curve" smooth="yes"/>
      <point x="268" y="680" type="line"/>
      <point x="302" y="634" type="line"/>
      <point x="302" y="686" type="line" smooth="yes"/>
      <point x="302" y="711"/>
      <point x="303" y="732"/>
      <point x="303" y="741" type="curve"/>
      <point x="391" y="762" type="line"/>
      <point x="387" y="824" type="line"/>
      <point x="61" y="824" type="line"/>
      <point x="56" y="762" type="line"/>
      <point x="143" y="741" type="line"/>
      <point x="148" y="730"/>
      <point x="151" y="652"/>
      <point x="151" y="529" type="curve" smooth="yes"/>
      <point x="151" y="292" type="line" smooth="yes"/>
      <point x="151" y="170"/>
      <point x="148" y="93"/>
      <point x="145" y="80" type="curve"/>
      <point x="63" y="60" type="line"/>
    </contour>
  </outline>
</glyph>
<glyph name="germandbls" format="2">
  <advance width="835"/>
  <unicode hex="00DF"/>
  <note>
germandbls
</note>
  <outline>
    <contour>
      <point x="582" y="-10" type="curve" smooth="yes"/>
      <point x="720" y="-10"/>
      <point x="814" y="64"/>
      <point x="814" y="178" type="curve" smooth="yes"/>
      <point x="814" y="377"/>
      <point x="519" y="363"/>
      <point x="519" y="512" type="curve" smooth="yes"/>
      <point x="519" y="607"/>
      <point x="650" y="685"/>
      <point x="650" y="800" type="curve" smooth="yes"/>
      <point x="650" y="909"/>
      <point x="565" y="980"/>
      <point x="423" y="980" type="curve" smooth="yes"/>
      <point x="238" y="980"/>
      <point x="123" y="853"/>
      <point x="123" y="671" type="curve" smooth="yes"/>
      <point x="123" y="528" type="line"/>
      <point x="126" y="273" type="line" smooth="yes"/>
      <point x="128" y="182"/>
      <point x="123" y="108"/>
      <point x="121" y="79" type="curve"/>
      <point x="49" y="57" type="line"/>
      <point x="52" y="0" type="line"/>
      <point x="343" y="0" type="line"/>
      <point x="347" y="57" type="line"/>
      <point x="274" y="79" type="line"/>
      <point x="270" y="109"/>
      <point x="268" y="180"/>
      <point x="266" y="298" type="curve" smooth="yes"/>
      <point x="263" y="725" type="line"/>
      <point x="263" y="840"/>
      <point x="318" y="911"/>
      <point x="406" y="911" type="curve" smooth="yes"/>
      <point x="481" y="911"/>
      <point x="524" y="861"/>
      <point x="524" y="778" type="curve" smooth="yes"/>
      <point x="524" y="632"/>
      <point x="392" y="574"/>
      <point x="392" y="460" type="curve" smooth="yes"/>
      <point x="392" y="263"/>
      <point x="681" y="284"/>
      <point x="681" y="138" type="curve" smooth="yes"/>
      <point x="681" y="87"/>
      <point x="644" y="56"/>
      <point x="593" y="56" type="curve" smooth="yes"/>
      <point x="560" y="56"/>
      <point x="525" y="65"/>
      <point x="491" y="86" type="curve"/>
      <point x="468" y="187" type="line"/>
      <point x="394" y="187" type="line"/>
      <point x="399" y="33" type="line"/>
      <point x="450" y="5"/>
      <point x="520" y="-10"/>
    </contour>
    <contour>
      <point x="21" y="528" type="line"/>
      <point x="190" y="528" type="line"/>
      <point x="190" y="606" type="line"/>
      <point x="123" y="609" type="line"/>
      <point x="21" y="582" type="line"/>
    </contour>
  </outline>
</glyph>
<glyph name="ae" format="2">
  <advance width="996"/>
  <unicode hex="00E6"/>
  <note>
ae
</note>
  <anchor x="494" y="609" name="above"/>
  <anchor x="494" y="0" name="below"/>
  <outline>
    <contour>
      <point x="284" y="-10" type="curve" smooth="yes"/>
      <point x="355" y="-10"/>
      <point x="414" y="18"/>
      <point x="506" y="123" type="curve"/>
      <point x="465" y="172" type="line"/>
      <point x="416" y="115"/>
      <point x="381" y="90"/>
      <point x="331" y="90" type="curve" smooth="yes"/>
      <point x="276" y="90"/>
      <point x="224" y="128"/>
      <point x="224" y="177" type="curve" smooth="yes"/>
      <point x="224" y="214"/>
      <point x="248" y="233"/>
      <point x="294" y="242" type="curve" smooth="yes"/>
      <point x="946" y="355" type="line"/>
      <point x="946" y="512"/>
      <point x="857" y="620"/>
      <point x="716" y="620" type="curve" smooth="yes"/>
      <point x="624" y="620"/>
      <point x="548" y="571"/>
      <point x="503" y="495" type="curve"/>
      <point x="546" y="495" type="line"/>
      <point x="512" y="580"/>
      <point x="423" y="620"/>
      <point x="317" y="620" type="curve"/>
      <point x="222" y="606"/>
      <point x="78" y="524"/>
      <point x="78" y="461" type="curve" smooth="yes"/>
      <point x="78" y="407"/>
      <point x="139" y="385"/>
      <point x="214" y="401" type="curve"/>
      <point x="219" y="472" type="line" smooth="yes"/>
      <point x="222" y="521"/>
      <point x="233" y="535"/>
      <point x="274" y="535" type="curve" smooth="yes"/>
      <point x="350" y="535"/>
      <point x="422" y="483"/>
      <point x="422" y="385" type="curve" smooth="yes"/>
      <point x="422" y="292" type="line" smooth="yes"/>
      <point x="422" y="114"/>
      <point x="541" y="-10"/>
      <point x="706" y="-10" type="curve" smooth="yes"/>
      <point x="811" y="-10"/>
      <point x="899" y="40"/>
      <point x="951" y="145" type="curve"/>
      <point x="911" y="181" type="line"/>
      <point x="863" y="121"/>
      <point x="814" y="100"/>
      <point x="755" y="100" type="curve" smooth="yes"/>
      <point x="642" y="100"/>
      <point x="566" y="185"/>
      <point x="566" y="328" type="curve" smooth="yes"/>
      <point x="566" y="366" type="line" smooth="yes"/>
      <point x="566" y="485"/>
      <point x="623" y="553"/>
      <point x="698" y="553" type="curve" smooth="yes"/>
      <point x="769" y="553"/>
      <point x="810" y="494"/>
      <point x="810" y="397" type="curve" smooth="yes"/>
      <point x="810" y="357" type="line"/>
      <point x="834" y="399" type="line"/>
      <point x="258" y="302" type="line" smooth="yes"/>
      <point x="125" y="279"/>
      <point x="70" y="229"/>
      <point x="70" y="149" type="curve" smooth="yes"/>
      <point x="70" y="70"/>
      <point x="161" y="-10"/>
    </contour>
  </outline>
</glyph>
<glyph name="eth" format="2">
  <advance width="716"/>
  <unicode hex="00F0"/>
  <note>
eth
</note>
  <outline>
    <contour>
      <point x="538" y="515" type="curve"/>
      <point x="557" y="592" type="line"/>
      <point x="504" y="610"/>
      <point x="446" y="619"/>
      <point x="401" y="619" type="curve" smooth="yes"/>
      <point x="201" y="619"/>
      <point x="53" y="501"/>
      <point x="53" y="297" type="curve" smooth="yes"/>
      <point x="53" y="105"/>
      <point x="190" y="-10"/>
      <point x="360" y="-10" type="curve" smooth="yes"/>
      <point x="540" y="-10"/>
      <point x="662" y="126"/>
      <point x="662" y="382" type="curve" smooth="yes"/>
      <point x="662" y="640"/>
      <point x="490" y="894"/>
      <point x="246" y="966" type="curve"/>
      <point x="74" y="966" type="line"/>
      <point x="71" y="913" type="line"/>
      <point x="368" y="826"/>
      <point x="510" y="621"/>
      <point x="510" y="326" type="curve" smooth="yes"/>
      <point x="510" y="137"/>
      <point x="466" y="66"/>
      <point x="380" y="66" type="curve" smooth="yes"/>
      <point x="286" y="66"/>
      <point x="210" y="156"/>
      <point x="210" y="316" type="curve" smooth="yes"/>
      <point x="210" y="464"/>
      <point x="279" y="545"/>
      <point x="399" y="545" type="curve" smooth="yes"/>
      <point x="447" y="545"/>
      <point x="492" y="538"/>
    </contour>
    <contour>
      <point x="125" y="691" type="line"/>
      <point x="592" y="914" type="line"/>
      <point x="561" y="980" type="line"/>
      <point x="93" y="757" type="line"/>
    </contour>
  </outline>
</glyph>
<glyph name="divide" format="2">
  <advance width="757"/>
  <unicode hex="00F7"/>
  <outline>
    <contour>
      <point x="683" y="408" type="line"/>
      <point x="74" y="408" type="line"/>
      <point x="74" y="303" type="line"/>
      <point x="683" y="303" type="line"/>
    </contour>
    <contour>
      <point x="372" y="28" type="curve" smooth="yes"/>
      <point x="416" y="28"/>
      <point x="453" y="64"/>
      <point x="453" y="110" type="curve" smooth="yes"/>
      <point x="453" y="156"/>
      <point x="416" y="194"/>
      <point x="372" y="194" type="curve" smooth="yes"/>
      <point x="328" y="194"/>
      <point x="290" y="156"/>
      <point x="290" y="110" type="curve" smooth="yes"/>
      <point x="290" y="64"/>
      <point x="328" y="28"/>
    </contour>
    <contour>
      <point x="372" y="520" type="curve" smooth="yes"/>
      <point x="416" y="520"/>
      <point x="453" y="555"/>
      <point x="453" y="601" type="curve" smooth="yes"/>
      <point x="453" y="646"/>
      <point x="416" y="684"/>
      <point x="372" y="684" type="curve" smooth="yes"/>
      <point x="328" y="684"/>
      <point x="290" y="646"/>
      <point x="290" y="601" type="curve" smooth="yes"/>
      <point x="290" y="555"/>
      <point x="328" y="520"/>
    </contour>
  </outline>
</glyph>
<glyph name="thorn" format="2">
  <advance width="754"/>
  <unicode hex="00FE"/>
  <note>
thorn
</note>
  <outline>
    <contour>
      <point x="17" y="-308" type="line"/>
      <point x="368" y="-308" type="line"/>
      <point x="372" y="-249" type="line"/>
      <point x="257" y="-228" type="line"/>
      <point x="252" y="-210"/>
      <point x="250" y="-155"/>
      <point x="250" y="-78" type="curve" smooth="yes"/>
      <point x="250" y="11" type="line"/>
      <point x="286" y="-1"/>
      <point x="328" y="-9"/>
      <point x="368" y="-9" type="curve" smooth="yes"/>
      <point x="564" y="-9"/>
      <point x="699" y="138"/>
      <point x="699" y="324" type="curve" smooth="yes"/>
      <point x="699" y="503"/>
      <point x="584" y="620"/>
      <point x="438" y="620" type="curve" smooth="yes"/>
      <point x="363" y="620"/>
      <point x="296" y="580"/>
      <point x="251" y="513" type="curve"/>
      <point x="247" y="515" type="line"/>
      <point x="251" y="749"/>
      <point x="252" y="840"/>
      <point x="259" y="954" type="curve"/>
      <point x="226" y="976" type="line"/>
      <point x="-1" y="914" type="line"/>
      <point x="0" y="861" type="line"/>
      <point x="104" y="847" type="line"/>
      <point x="107" y="800"/>
      <point x="110" y="635"/>
      <point x="110" y="507" type="curve"/>
      <point x="107" y="36" type="line" smooth="yes"/>
      <point x="106" y="-130"/>
      <point x="103" y="-209"/>
      <point x="101" y="-228" type="curve"/>
      <point x="14" y="-252" type="line"/>
    </contour>
    <contour>
      <point x="373" y="72" type="curve" smooth="yes"/>
      <point x="326" y="72"/>
      <point x="281" y="85"/>
      <point x="250" y="109" type="curve"/>
      <point x="250" y="439" type="line"/>
      <point x="283" y="483"/>
      <point x="328" y="508"/>
      <point x="380" y="508" type="curve" smooth="yes"/>
      <point x="472" y="508"/>
      <point x="544" y="427"/>
      <point x="543" y="290" type="curve" smooth="yes"/>
      <point x="543" y="144"/>
      <point x="473" y="72"/>
    </contour>
  </outline>
</glyph>
<glyph name="idotless" format="2">
  <advance width="394"/>
  <unicode hex="0131"/>
  <note>
dotlessi
</note>
  <anchor x="197" y="609" name="above"/>
  <anchor x="197" y="0" name="below"/>
  <anchor x="279" y="0" name="ogonek"/>
  <outline>
    <contour>
      <point x="29" y="0" type="line"/>
      <point x="365" y="0" type="line"/>
      <point x="370" y="57" type="line"/>
      <point x="276" y="79" type="line"/>
      <point x="270" y="93"/>
      <point x="268" y="154"/>
      <point x="268" y="230" type="curve" smooth="yes"/>
      <point x="268" y="408" type="line" smooth="yes"/>
      <point x="268" y="483"/>
      <point x="270" y="537"/>
      <point x="276" y="594" type="curve"/>
      <point x="247" y="617" type="line"/>
      <point x="21" y="560" type="line"/>
      <point x="21" y="506" type="line"/>
      <point x="115" y="486" type="line"/>
      <point x="122" y="445"/>
      <point x="126" y="391"/>
      <point x="126" y="324" type="curve"/>
      <point x="126" y="224" type="line"/>
      <point x="125" y="133"/>
      <point x="121" y="89"/>
      <point x="119" y="79" type="curve"/>
      <point x="26" y="57" type="line"/>
    </contour>
  </outline>
</glyph>
<glyph name="OE" format="2">
  <advance width="1292"/>
  <unicode hex="0152"/>
  <note>
OE
</note>
  <anchor x="736" y="824" name="above"/>
  <anchor x="736" y="0" name="below"/>
  <outline>
    <contour>
      <point x="538" y="-12" type="curve" smooth="yes"/>
      <point x="608" y="-12"/>
      <point x="672" y="0"/>
      <point x="737" y="0" type="curve" smooth="yes"/>
      <point x="1039" y="0" type="line" smooth="yes"/>
      <point x="1085" y="0"/>
      <point x="1138" y="0"/>
      <point x="1200" y="-7" type="curve"/>
      <point x="1258" y="207" type="line"/>
      <point x="1188" y="220" type="line"/>
      <point x="1113" y="84" type="line"/>
      <point x="1094" y="80"/>
      <point x="1077" y="79"/>
      <point x="1013" y="79" type="curve" smooth="yes"/>
      <point x="919" y="79" type="line" smooth="yes"/>
      <point x="880" y="79"/>
      <point x="851" y="80"/>
      <point x="815" y="84" type="curve"/>
      <point x="813" y="105"/>
      <point x="812" y="166"/>
      <point x="812" y="239" type="curve" smooth="yes"/>
      <point x="812" y="580" type="line" smooth="yes"/>
      <point x="812" y="659"/>
      <point x="813" y="728"/>
      <point x="815" y="744" type="curve"/>
      <point x="836" y="748"/>
      <point x="868" y="750"/>
      <point x="903" y="750" type="curve" smooth="yes"/>
      <point x="1025" y="750" type="line" smooth="yes"/>
      <point x="1046" y="750"/>
      <point x="1064" y="748"/>
      <point x="1084" y="744" type="curve"/>
      <point x="1133" y="624" type="line"/>
      <point x="1204" y="634" type="line"/>
      <point x="1170" y="829" type="line"/>
      <point x="1109" y="824"/>
      <point x="1046" y="824"/>
      <point x="998" y="824" type="curve" smooth="yes"/>
      <point x="726" y="824" type="line" smooth="yes"/>
      <point x="661" y="824"/>
      <point x="605" y="833"/>
      <point x="545" y="833" type="curve" smooth="yes"/>
      <point x="232" y="833"/>
      <point x="67" y="637"/>
      <point x="67" y="403" type="curve" smooth="yes"/>
      <point x="67" y="145"/>
      <point x="248" y="-12"/>
    </contour>
    <contour>
      <point x="556" y="74" type="curve" smooth="yes"/>
      <point x="367" y="74"/>
      <point x="249" y="207"/>
      <point x="249" y="424" type="curve" smooth="yes"/>
      <point x="249" y="623"/>
      <point x="357" y="750"/>
      <point x="538" y="750" type="curve" smooth="yes"/>
      <point x="580" y="750"/>
      <point x="621" y="745"/>
      <point x="654" y="735" type="curve"/>
      <point x="658" y="705"/>
      <point x="663" y="621"/>
      <point x="663" y="538" type="curve" smooth="yes"/>
      <point x="663" y="298" type="line" smooth="yes"/>
      <point x="663" y="200"/>
      <point x="660" y="120"/>
      <point x="657" y="89" type="curve"/>
      <point x="626" y="80"/>
      <point x="587" y="74"/>
    </contour>
    <contour>
      <point x="1033" y="285" type="line"/>
      <point x="1100" y="285" type="line"/>
      <point x="1100" y="562" type="line"/>
      <point x="1033" y="562" type="line"/>
      <point x="1017" y="465" type="line"/>
      <point x="1005" y="464"/>
      <point x="980" y="463"/>
      <point x="946" y="463" type="curve" smooth="yes"/>
      <point x="868" y="463" type="line" smooth="yes"/>
      <point x="839" y="463"/>
      <point x="810" y="464"/>
      <point x="785" y="466" type="curve"/>
      <point x="785" y="379" type="line"/>
      <point x="810" y="381"/>
      <point x="839" y="384"/>
      <point x="868" y="384" type="curve" smooth="yes"/>
      <point x="946" y="384" type="line" smooth="yes"/>
      <point x="980" y="384"/>
      <point x="1005" y="381"/>
      <point x="1017" y="378" type="curve"/>
    </contour>
  </outline>
</glyph>
<glyph name="oe" format="2">
  <advance width="1114"/>
  <unicode hex="0153"/>
  <note>
oe
</note>
  <anchor x="596" y="609" name="above"/>
  <anchor x="596" y="0" name="below"/>
  <outline>
    <contour>
      <point x="367" y="-10" type="curve" smooth="yes"/>
      <point x="535" y="-10"/>
      <point x="641" y="131"/>
      <point x="641" y="308" type="curve" smooth="yes"/>
      <point x="641" y="491"/>
      <point x="534" y="620"/>
      <point x="360" y="620" type="curve" smooth="yes"/>
      <point x="194" y="620"/>
      <point x="53" y="490"/>
      <point x="53" y="300" type="curve" smooth="yes"/>
      <point x="53" y="116"/>
      <point x="181" y="-10"/>
    </contour>
    <contour>
      <point x="383" y="64" type="curve" smooth="yes"/>
      <point x="292" y="64"/>
      <point x="213" y="163"/>
      <point x="213" y="328" type="curve" smooth="yes"/>
      <point x="213" y="473"/>
      <point x="271" y="547"/>
      <point x="358" y="547" type="curve" smooth="yes"/>
      <point x="454" y="547"/>
      <point x="521" y="438"/>
      <point x="521" y="277" type="curve" smooth="yes"/>
      <point x="521" y="141"/>
      <point x="463" y="64"/>
    </contour>
    <contour>
      <point x="825" y="-10" type="curve" smooth="yes"/>
      <point x="928" y="-10"/>
      <point x="1019" y="40"/>
      <point x="1069" y="145" type="curve"/>
      <point x="1030" y="181" type="line"/>
      <point x="980" y="121"/>
      <point x="931" y="100"/>
      <point x="869" y="100" type="curve" smooth="yes"/>
      <point x="752" y="100"/>
      <point x="670" y="189"/>
      <point x="670" y="329" type="curve" smooth="yes"/>
      <point x="670" y="360" type="line" smooth="yes"/>
      <point x="670" y="480"/>
      <point x="731" y="553"/>
      <point x="812" y="553" type="curve" smooth="yes"/>
      <point x="879" y="553"/>
      <point x="932" y="503"/>
      <point x="932" y="395" type="curve" smooth="yes"/>
      <point x="932" y="357" type="line"/>
      <point x="956" y="383" type="line"/>
      <point x="657" y="383" type="line"/>
      <point x="655" y="316" type="line"/>
      <point x="1065" y="316" type="line"/>
      <point x="1065" y="343" type="line" smooth="yes"/>
      <point x="1065" y="517"/>
      <point x="971" y="619"/>
      <point x="826" y="620" type="curve" smooth="yes"/>
      <point x="665" y="621"/>
      <point x="541" y="484"/>
      <point x="541" y="305" type="curve" smooth="yes"/>
      <point x="541" y="111"/>
      <point x="661" y="-10"/>
    </contour>
  </outline>
</glyph>
<glyph name="florin" format="2">
  <advance width="518"/>
  <unicode hex="0192"/>
  <outline>
    <contour>
      <point x="97" y="-319" type="curve" smooth="yes"/>
      <point x="212" y="-319"/>
      <point x="317" y="-202"/>
      <point x="317" y="84" type="curve" smooth="yes"/>
      <point x="317" y="528" type="line"/>
      <point x="314" y="606" type="line"/>
      <point x="314" y="722" type="line" smooth="yes"/>
      <point x="314" y="846"/>
      <point x="347" y="900"/>
      <point x="384" y="917" type="curve"/>
      <point x="439" y="866" type="line" smooth="yes"/>
      <point x="463" y="843"/>
      <point x="484" y="833"/>
      <point x="511" y="833" type="curve" smooth="yes"/>
      <point x="543" y="833"/>
      <point x="567" y="852"/>
      <point x="567" y="885" type="curve" smooth="yes"/>
      <point x="567" y="938"/>
      <point x="505" y="980"/>
      <point x="420" y="980" type="curve" smooth="yes"/>
      <point x="282" y="980"/>
      <point x="176" y="861"/>
      <point x="176" y="672" type="curve" smooth="yes"/>
      <point x="176" y="-7" type="line"/>
      <point x="176" y="-187"/>
      <point x="148" y="-240"/>
      <point x="133" y="-259" type="curve"/>
      <point x="77" y="-208" type="line" smooth="yes"/>
      <point x="54" y="-184"/>
      <point x="33" y="-175"/>
      <point x="3" y="-175" type="curve" smooth="yes"/>
      <point x="-26" y="-175"/>
      <point x="-48" y="-192"/>
      <point x="-48" y="-226" type="curve" smooth="yes"/>
      <point x="-48" y="-280"/>
      <point x="12" y="-319"/>
    </contour>
    <contour>
      <point x="72" y="528" type="line"/>
      <point x="468" y="528" type="line"/>
      <point x="468" y="606" type="line"/>
      <point x="271" y="606" type="line"/>
      <point x="176" y="609" type="line"/>
      <point x="140" y="596"/>
      <point x="108" y="588"/>
      <point x="72" y="582" type="curve"/>
    </contour>
  </outline>
</glyph>
<glyph name="ringhalfleftcentered" format="2">
  <advance width="638"/>
  <unicode hex="02D3"/>
  <outline>
    <contour>
      <point x="357" y="859" type="curve" smooth="yes"/>
      <point x="366" y="859"/>
      <point x="370" y="863"/>
      <point x="370" y="872" type="curve" smooth="yes"/>
      <point x="370" y="873"/>
      <point x="369" y="875"/>
      <point x="368" y="878" type="curve"/>
      <point x="345" y="923"/>
      <point x="329" y="959"/>
      <point x="320" y="988" type="curve" smooth="yes"/>
      <point x="311" y="1021"/>
      <point x="306" y="1054"/>
      <point x="306" y="1087" type="curve" smooth="yes"/>
      <point x="306" y="1120"/>
      <point x="311" y="1152"/>
      <point x="320" y="1185" type="curve" smooth="yes"/>
      <point x="329" y="1214"/>
      <point x="345" y="1250"/>
      <point x="368" y="1295" type="curve"/>
      <point x="370" y="1301" type="line"/>
      <point x="370" y="1310"/>
      <point x="366" y="1314"/>
      <point x="357" y="1314" type="curve" smooth="yes"/>
      <point x="346" y="1314"/>
      <point x="331" y="1292"/>
      <point x="311" y="1247" type="curve" smooth="yes"/>
      <point x="293" y="1208"/>
      <point x="282" y="1179"/>
      <point x="277" y="1160" type="curve" smooth="yes"/>
      <point x="271" y="1134"/>
      <point x="268" y="1110"/>
      <point x="268" y="1087" type="curve" smooth="yes"/>
      <point x="268" y="1035"/>
      <point x="283" y="980"/>
      <point x="313" y="922" type="curve" smooth="yes"/>
      <point x="334" y="880"/>
      <point x="349" y="859"/>
    </contour>
  </outline>
</glyph>
<glyph name="dotaccentcomb" format="2">
  <unicode hex="0307"/>
  <anchor x="110" y="0" name="_above"/>
  <anchor x="110" y="315" name="above"/>
  <outline>
    <contour>
      <point x="20" y="2" type="line"/>
      <point x="185" y="2" type="line"/>
      <point x="185" y="167" type="line"/>
      <point x="20" y="167" type="line"/>
    </contour>
  </outline>
</glyph>
<glyph name="pi" format="2">
  <advance width="927"/>
  <unicode hex="03C0"/>
  <outline>
    <contour>
      <point x="702" y="-14" type="curve" smooth="yes"/>
      <point x="784" y="-14"/>
      <point x="848" y="28"/>
      <point x="891" y="112" type="curve"/>
      <point x="851" y="149" type="line"/>
      <point x="818" y="107"/>
      <point x="783" y="87"/>
      <point x="752" y="87" type="curve" smooth="yes"/>
      <point x="702" y="87"/>
      <point x="670" y="120"/>
      <point x="673" y="205" type="curve" smooth="yes"/>
      <point x="680" y="576" type="line"/>
      <point x="539" y="575" type="line"/>
      <point x="525" y="177" type="line" smooth="yes"/>
      <point x="521" y="55"/>
      <point x="589" y="-14"/>
    </contour>
    <contour>
      <point x="145" y="-14" type="curve" smooth="yes"/>
      <point x="267" y="-14"/>
      <point x="328" y="88"/>
      <point x="341" y="272" type="curve" smooth="yes"/>
      <point x="365" y="584" type="line"/>
      <point x="263" y="584" type="line"/>
      <point x="240" y="229" type="line" smooth="yes"/>
      <point x="232" y="104"/>
      <point x="207" y="39"/>
      <point x="146" y="39" type="curve"/>
      <point x="202" y="30" type="line"/>
      <point x="134" y="98" type="line" smooth="yes"/>
      <point x="112" y="121"/>
      <point x="94" y="132"/>
      <point x="67" y="132" type="curve" smooth="yes"/>
      <point x="36" y="132"/>
      <point x="13" y="112"/>
      <point x="13" y="80" type="curve" smooth="yes"/>
      <point x="13" y="25"/>
      <point x="69" y="-14"/>
    </contour>
    <contour>
      <point x="94" y="491" type="line"/>
      <point x="149" y="521"/>
      <point x="203" y="533"/>
      <point x="267" y="533" type="curve" smooth="yes"/>
      <point x="690" y="533" type="line" smooth="yes"/>
      <point x="758" y="533"/>
      <point x="789" y="533"/>
      <point x="826" y="531" type="curve"/>
      <point x="850" y="713" type="line"/>
      <point x="775" y="713" type="line"/>
      <point x="740" y="615" type="line"/>
      <point x="709" y="610"/>
      <point x="681" y="609"/>
      <point x="647" y="609" type="curve" smooth="yes"/>
      <point x="309" y="609" type="line" smooth="yes"/>
      <point x="210" y="609"/>
      <point x="129" y="595"/>
      <point x="66" y="565" type="curve"/>
    </contour>
  </outline>
</glyph>
<glyph name="harkleanAsteriscus-syriac" format="2">
  <advance width="832"/>
  <unicode hex="070D"/>
  <outline>
    <contour>
      <point x="231" y="224" type="line"/>
      <point x="416" y="409" type="line"/>
      <point x="601" y="224" type="line"/>
      <point x="647" y="270" type="line"/>
      <point x="462" y="455" type="line"/>
      <point x="647" y="640" type="line"/>
      <point x="601" y="686" type="line"/>
      <point x="416" y="501" type="line"/>
      <point x="231" y="686" type="line"/>
      <point x="185" y="640" type="line"/>
      <point x="370" y="455" type="line"/>
      <point x="185" y="270" type="line"/>
    </contour>
    <contour>
      <point x="414" y="584" type="curve" smooth="yes"/>
      <point x="435" y="584"/>
      <point x="452" y="601"/>
      <point x="452" y="622" type="curve" smooth="yes"/>
      <point x="452" y="643"/>
      <point x="435" y="660"/>
      <point x="414" y="660" type="curve" smooth="yes"/>
      <point x="393" y="660"/>
      <point x="376" y="643"/>
      <point x="376" y="622" type="curve" smooth="yes"/>
      <point x="376" y="601"/>
      <point x="393" y="584"/>
    </contour>
    <contour>
      <point x="414" y="259" type="curve" smooth="yes"/>
      <point x="435" y="259"/>
      <point x="452" y="276"/>
      <point x="452" y="297" type="curve" smooth="yes"/>
      <point x="452" y="318"/>
      <point x="435" y="335"/>
      <point x="414" y="335" type="curve" smooth="yes"/>
      <point x="393" y="335"/>
      <point x="376" y="318"/>
      <point x="376" y="297" type="curve" smooth="yes"/>
      <point x="376" y="276"/>
      <point x="393" y="259"/>
    </contour>
    <contour>
      <point x="290" y="460" type="curve" smooth="yes"/>
      <point x="290" y="481"/>
      <point x="273" y="498"/>
      <point x="252" y="498" type="curve" smooth="yes"/>
      <point x="231" y="498"/>
      <point x="214" y="481"/>
      <point x="214" y="460" type="curve" smooth="yes"/>
      <point x="214" y="439"/>
      <point x="231" y="422"/>
      <point x="252" y="422" type="curve" smooth="yes"/>
      <point x="273" y="422"/>
      <point x="290" y="439"/>
    </contour>
    <contour>
      <point x="615" y="460" type="curve" smooth="yes"/>
      <point x="615" y="481"/>
      <point x="598" y="498"/>
      <point x="577" y="498" type="curve" smooth="yes"/>
      <point x="556" y="498"/>
      <point x="539" y="481"/>
      <point x="539" y="460" type="curve" smooth="yes"/>
      <point x="539" y="439"/>
      <point x="556" y="422"/>
      <point x="577" y="422" type="curve" smooth="yes"/>
      <point x="598" y="422"/>
      <point x="615" y="439"/>
    </contour>
  </outline>
</glyph>
<glyph name="abbreviation-syriac" format="2">
  <advance width="33"/>
  <unicode hex="070F"/>
  <outline>
    <contour>
      <point x="0" y="-94" type="line"/>
      <point x="33" y="-94" type="line"/>
      <point x="33" y="1058" type="line"/>
      <point x="38" y="1061"/>
      <point x="42" y="1065"/>
      <point x="45" y="1070" type="curve"/>
      <point x="113" y="1070" type="line"/>
      <point x="120" y="1058"/>
      <point x="130" y="1052"/>
      <point x="144" y="1052" type="curve" smooth="yes"/>
      <point x="167" y="1052"/>
      <point x="179" y="1064"/>
      <point x="179" y="1088" type="curve" smooth="yes"/>
      <point x="179" y="1111"/>
      <point x="167" y="1123"/>
      <point x="144" y="1123" type="curve" smooth="yes"/>
      <point x="127" y="1123"/>
      <point x="116" y="1115"/>
      <point x="111" y="1099" type="curve"/>
      <point x="47" y="1099" type="line"/>
      <point x="42" y="1115"/>
      <point x="31" y="1123"/>
      <point x="14" y="1123" type="curve" smooth="yes"/>
      <point x="-3" y="1123"/>
      <point x="-14" y="1115"/>
      <point x="-19" y="1099" type="curve"/>
      <point x="-82" y="1099" type="line"/>
      <point x="-88" y="1115"/>
      <point x="-99" y="1123"/>
      <point x="-116" y="1123" type="curve" smooth="yes"/>
      <point x="-139" y="1123"/>
      <point x="-151" y="1111"/>
      <point x="-151" y="1088" type="curve" smooth="yes"/>
      <point x="-151" y="1064"/>
      <point x="-139" y="1052"/>
      <point x="-116" y="1052" type="curve" smooth="yes"/>
      <point x="-102" y="1052"/>
      <point x="-92" y="1058"/>
      <point x="-85" y="1070" type="curve"/>
      <point x="-16" y="1070" type="line"/>
      <point x="-13" y="1063"/>
      <point x="-7" y="1058"/>
      <point x="0" y="1055" type="curve"/>
    </contour>
  </outline>
</glyph>
<glyph name="alaph-syriac" format="2">
  <advance width="630"/>
  <unicode hex="0710"/>
  <anchor x="259" y="975" name="above"/>
  <anchor x="50" y="975" name="aboveleft"/>
  <anchor x="259" y="-150" name="below"/>
  <anchor x="50" y="-150" name="belowleft"/>
  <outline>
    <contour>
      <point x="567" y="0" type="line" smooth="yes"/>
      <point x="583" y="0"/>
      <point x="580" y="60"/>
      <point x="580" y="117" type="curve" smooth="yes"/>
      <point x="580" y="130"/>
      <point x="580" y="145"/>
      <point x="574" y="145" type="curve" smooth="yes"/>
      <point x="180" y="145" type="line"/>
      <point x="244" y="104" type="line"/>
      <point x="338" y="299"/>
      <point x="386" y="455"/>
      <point x="386" y="650" type="curve" smooth="yes"/>
      <point x="386" y="804"/>
      <point x="325" y="867"/>
      <point x="257" y="867" type="curve" smooth="yes"/>
      <point x="193" y="867"/>
      <point x="140" y="804"/>
      <point x="140" y="737" type="curve" smooth="yes"/>
      <point x="140" y="606"/>
      <point x="328" y="737"/>
      <point x="328" y="538" type="curve" smooth="yes"/>
      <point x="328" y="349"/>
      <point x="96" y="133"/>
      <point x="84" y="125" type="curve"/>
      <point x="81" y="120"/>
      <point x="80" y="111"/>
      <point x="80" y="99" type="curve" smooth="yes"/>
      <point x="80" y="48"/>
      <point x="94" y="0"/>
      <point x="105" y="0" type="curve" smooth="yes"/>
    </contour>
  </outline>
</glyph>
<glyph name="dalathrishDotless-syriac" format="2">
  <advance width="623"/>
  <unicode hex="0716"/>
  <outline>
    <contour>
      <point x="573" y="219" type="curve" smooth="yes"/>
      <point x="573" y="467"/>
      <point x="413" y="612"/>
      <point x="221" y="612" type="curve" smooth="yes"/>
      <point x="95" y="612"/>
      <point x="50" y="580"/>
      <point x="50" y="464" type="curve" smooth="yes"/>
      <point x="50" y="440"/>
      <point x="63" y="372"/>
      <point x="72" y="372" type="curve" smooth="yes"/>
      <point x="87" y="372"/>
      <point x="119" y="466"/>
      <point x="231" y="466" type="curve" smooth="yes"/>
      <point x="382" y="466"/>
      <point x="428" y="318"/>
      <point x="428" y="199" type="curve" smooth="yes"/>
      <point x="428" y="166"/>
      <point x="425" y="136"/>
      <point x="419" y="111" type="curve"/>
      <point x="443" y="145" type="line"/>
      <point x="51" y="145" type="line"/>
      <point x="51" y="69"/>
      <point x="65" y="0"/>
      <point x="111" y="0" type="curve" smooth="yes"/>
      <point x="448" y="0" type="line" smooth="yes"/>
      <point x="578" y="0"/>
      <point x="573" y="153"/>
    </contour>
  </outline>
</glyph>
<glyph name="he-syriac" format="2">
  <advance width="865"/>
  <unicode hex="0717"/>
  <anchor x="415" y="765" name="above"/>
  <anchor x="50" y="765" name="aboveleft"/>
  <anchor x="400" y="-150" name="below"/>
  <anchor x="50" y="-150" name="belowleft"/>
  <outline>
    <contour>
      <point x="612" y="595" type="curve" smooth="yes"/>
      <point x="317" y="595" type="line" smooth="yes"/>
      <point x="163" y="595"/>
      <point x="50" y="440"/>
      <point x="50" y="287" type="curve" smooth="yes"/>
      <point x="50" y="138"/>
      <point x="157" y="-8"/>
      <point x="361" y="-8" type="curve" smooth="yes"/>
      <point x="580" y="-8"/>
      <point x="650" y="126"/>
      <point x="650" y="356" type="curve" smooth="yes"/>
      <point x="650" y="383"/>
      <point x="649" y="412"/>
      <point x="647" y="442" type="curve"/>
      <point x="477" y="433" type="line"/>
      <point x="487" y="334"/>
      <point x="489" y="254"/>
      <point x="469" y="210" type="curve"/>
      <point x="456" y="202"/>
      <point x="417" y="190"/>
      <point x="375" y="190" type="curve" smooth="yes"/>
      <point x="310" y="190"/>
      <point x="238" y="218"/>
      <point x="238" y="330" type="curve" smooth="yes"/>
      <point x="238" y="366"/>
      <point x="246" y="400"/>
      <point x="260" y="426" type="curve"/>
      <point x="218" y="400" type="line"/>
      <point x="776" y="400" type="line"/>
      <point x="726" y="445" type="line"/>
      <point x="753" y="-108" type="line" smooth="yes"/>
      <point x="755" y="-124"/>
      <point x="764" y="-133"/>
      <point x="774" y="-133" type="curve" smooth="yes"/>
      <point x="784" y="-133"/>
      <point x="795" y="-125"/>
      <point x="795" y="-107" type="curve" smooth="yes"/>
      <point x="815" y="577" type="line" smooth="yes"/>
      <point x="816" y="613"/>
      <point x="810" y="640"/>
      <point x="805" y="640" type="curve" smooth="yes"/>
      <point x="789" y="640"/>
      <point x="787" y="595"/>
    </contour>
  </outline>
</glyph>
<glyph name="waw-syriac" format="2">
  <advance width="707"/>
  <unicode hex="0718"/>
  <anchor x="359" y="750" name="above"/>
  <anchor x="50" y="750" name="aboveleft"/>
  <anchor x="359" y="-150" name="below"/>
  <anchor x="50" y="-150" name="belowleft"/>
  <outline>
    <contour>
      <point x="359" y="-12" type="curve" smooth="yes"/>
      <point x="519" y="-12"/>
      <point x="657" y="34"/>
      <point x="657" y="242" type="curve" smooth="yes"/>
      <point x="657" y="401"/>
      <point x="548" y="612"/>
      <point x="359" y="612" type="curve" smooth="yes"/>
      <point x="181" y="612"/>
      <point x="60" y="418"/>
      <point x="60" y="260" type="curve" smooth="yes"/>
      <point x="60" y="164"/>
      <point x="87" y="95"/>
      <point x="140" y="50" type="curve" smooth="yes"/>
      <point x="190" y="8"/>
      <point x="263" y="-12"/>
    </contour>
    <contour>
      <point x="509" y="166" type="curve"/>
      <point x="473" y="142"/>
      <point x="417" y="133"/>
      <point x="363" y="133" type="curve" smooth="yes"/>
      <point x="305" y="133"/>
      <point x="195" y="162"/>
      <point x="195" y="289" type="curve" smooth="yes"/>
      <point x="195" y="392"/>
      <point x="283" y="467"/>
      <point x="346" y="467" type="curve" smooth="yes"/>
      <point x="435" y="467"/>
      <point x="519" y="377"/>
    </contour>
  </outline>
</glyph>
<glyph name="zain-syriac" format="2">
  <advance width="462"/>
  <unicode hex="0719"/>
  <anchor x="221" y="705" name="above"/>
  <anchor x="50" y="705" name="aboveleft"/>
  <anchor x="267" y="-345" name="below"/>
  <anchor x="50" y="-345" name="belowleft"/>
  <outline>
    <contour>
      <point x="134" y="-193"/>
      <point x="131" y="-199"/>
      <point x="131" y="-205" type="curve" smooth="yes"/>
      <point x="131" y="-215"/>
      <point x="139" y="-222"/>
      <point x="149" y="-222" type="curve" smooth="yes"/>
      <point x="154" y="-222"/>
      <point x="161" y="-220"/>
      <point x="167" y="-216" type="curve" smooth="yes"/>
      <point x="239" y="-166"/>
      <point x="412" y="32"/>
      <point x="412" y="282" type="curve" smooth="yes"/>
      <point x="412" y="459"/>
      <point x="321" y="545"/>
      <point x="221" y="545" type="curve" smooth="yes"/>
      <point x="120" y="545"/>
      <point x="50" y="445"/>
      <point x="50" y="331" type="curve" smooth="yes"/>
      <point x="50" y="218"/>
      <point x="119" y="92"/>
      <point x="294" y="27" type="curve"/>
      <point x="262" y="96" type="line"/>
      <point x="263" y="87"/>
      <point x="264" y="79"/>
      <point x="264" y="71" type="curve" smooth="yes"/>
      <point x="264" y="-46"/>
      <point x="167" y="-152"/>
      <point x="139" y="-186" type="curve" smooth="yes"/>
    </contour>
  </outline>
</glyph>
<glyph name="yudh-syriac" format="2">
  <advance width="881"/>
  <unicode hex="071D"/>
  <anchor x="496" y="540" name="above"/>
  <anchor x="50" y="540" name="aboveleft"/>
  <anchor x="511" y="-150" name="below"/>
  <anchor x="50" y="-150" name="belowleft"/>
  <outline>
    <component base="_heth-init" xOffset="347"/>
    <component base="_LeftTail" xOffset="-50"/>
    <contour>
      <point x="583" y="195" type="curve"/>
      <point x="283" y="195" type="line"/>
      <point x="283" y="0" type="line"/>
      <point x="464" y="0" type="line" smooth="yes"/>
      <point x="549" y="0"/>
      <point x="583" y="65"/>
    </contour>
  </outline>
</glyph>
<glyph name="femininedot-syriac" format="2">
  <unicode hex="0740"/>
  <anchor x="68" y="-186" name="_aboveleft"/>
  <outline>
    <contour>
      <point x="68" y="-135" type="curve" smooth="yes"/>
      <point x="104" y="-135"/>
      <point x="135" y="-105"/>
      <point x="135" y="-68" type="curve" smooth="yes"/>
      <point x="135" y="-31"/>
      <point x="105" y="0"/>
      <point x="68" y="0" type="curve" smooth="yes"/>
      <point x="23" y="0"/>
      <point x="0" y="-23"/>
      <point x="0" y="-68" type="curve" smooth="yes"/>
      <point x="0" y="-105"/>
      <point x="31" y="-135"/>
    </contour>
  </outline>
</glyph>
<glyph name="figuredash" format="2">
  <advance width="842"/>
  <unicode hex="2012"/>
  <note>
figuredash
</note>
  <outline>
    <contour>
      <point x="70" y="273" type="line"/>
      <point x="771" y="273" type="line"/>
      <point x="771" y="351" type="line"/>
      <point x="70" y="351" type="line"/>
    </contour>
  </outline>
</glyph>
<glyph name="emdash" format="2">
  <advance width="1404"/>
  <unicode hex="2014"/>
  <note>
emdash
</note>
  <outline>
    <contour>
      <point x="0" y="273" type="line"/>
      <point x="1404" y="273" type="line"/>
      <point x="1404" y="351" type="line"/>
      <point x="0" y="351" type="line"/>
    </contour>
  </outline>
</glyph>
<glyph name="quoteright" format="2">
  <advance width="470"/>
  <unicode hex="2019"/>
  <outline>
    <contour>
      <point x="151" y="478" type="line"/>
      <point x="311" y="543"/>
      <point x="387" y="654"/>
      <point x="387" y="785" type="curve" smooth="yes"/>
      <point x="387" y="900"/>
      <point x="321" y="943"/>
      <point x="262" y="943" type="curve" smooth="yes"/>
      <point x="198" y="943"/>
      <point x="151" y="897"/>
      <point x="151" y="842" type="curve" smooth="yes"/>
      <point x="151" y="746"/>
      <point x="256" y="754"/>
      <point x="256" y="667" type="curve" smooth="yes"/>
      <point x="256" y="614"/>
      <point x="224" y="567"/>
      <point x="130" y="529" type="curve"/>
    </contour>
  </outline>
</glyph>
